<svg width="44" height="39" viewBox="0 0 84 79" fill="none" xmlns="http://www.w3.org/2000/svg">
<path d="M77.2557 31.9815C75.0307 29.817 72.7278 27.5785 71.0702 23.2643C70.7549 22.4429 69.8872 21.9656 69.0343 22.1247C68.1665 22.2838 67.5398 23.0386 67.5398 23.9155V61.5815C65.4594 60.4049 62.7524 60.0386 59.8821 60.6047C53.9377 61.7813 49.2837 66.4581 49.2837 71.2533C49.2837 73.3401 50.1811 75.2271 51.8054 76.5591C53.4036 77.8689 55.5619 78.5534 57.9538 78.5534C58.8067 78.5534 59.6893 78.4646 60.5867 78.287C66.5312 77.1104 71.1851 72.4336 71.1851 67.6384C71.1851 67.6347 71.1851 67.6273 71.1851 67.6236V30.8308C72.3495 32.3071 73.5622 33.4837 74.7006 34.5937C77.8379 37.6425 80.3113 40.0512 80.3113 47.5955H83.964C83.9715 38.512 80.5561 35.1931 77.2557 31.9815ZM59.8858 74.7202C57.5755 75.1753 55.4284 74.8127 54.1268 73.7471C53.3369 73.1033 52.9364 72.2634 52.9364 71.257C52.9364 68.2415 56.4445 65.004 60.5941 64.1789C61.2505 64.0494 61.892 63.9865 62.5076 63.9865C64.054 63.9865 65.4224 64.3898 66.3531 65.152C67.143 65.7958 67.5435 66.6357 67.5435 67.6421C67.5435 70.6576 64.0354 73.8988 59.8858 74.7202Z" fill="#FF6460"/>
<path d="M54.7647 43.9659C54.7647 43.9622 54.7647 43.9548 54.7647 43.9511V2.06339C54.7647 1.47879 54.4828 0.927491 54.0082 0.58709C53.5298 0.24299 52.9179 0.154191 52.3617 0.335491L19.5021 11.2616C18.7567 11.5095 18.2561 12.2051 18.2561 12.9895V48.8351C16.1757 47.6585 13.4687 47.2922 10.5984 47.8583C4.65396 49.0349 0 53.7117 0 58.5069C0 60.5937 0.897417 62.4807 2.52167 63.8127C4.11996 65.1225 6.27821 65.807 8.67008 65.807C9.523 65.807 10.4056 65.7182 11.303 65.5406C17.2475 64.364 21.9014 59.6872 21.9014 54.892C21.9014 54.8883 21.9014 54.8809 21.9014 54.8772V25.2328L51.1082 15.5203V37.909C49.0279 36.7324 46.3208 36.3661 43.4505 36.9322C37.5061 38.1088 32.8521 42.7856 32.8521 47.5808C32.8521 49.6676 33.7495 51.5546 35.3738 52.8866C36.9721 54.1964 39.1303 54.8809 41.5222 54.8809C42.3751 54.8809 43.2577 54.7921 44.1551 54.6145C50.1107 53.4416 54.7647 48.7611 54.7647 43.9659ZM10.5984 61.9701C8.28813 62.4252 6.141 62.0626 4.83938 60.997C4.0495 60.3532 3.649 59.5133 3.649 58.5069C3.649 55.4914 7.15708 52.2539 11.3067 51.4288C11.9631 51.2993 12.6046 51.2364 13.2202 51.2364C14.7666 51.2364 16.135 51.6397 17.0658 52.4019C17.8556 53.0457 18.2561 53.8856 18.2561 54.892C18.2561 57.9075 14.748 61.1487 10.5984 61.9701ZM43.458 51.044C41.1477 51.4991 39.0005 51.1365 37.6989 50.0709C36.909 49.4271 36.5085 48.5872 36.5085 47.5808C36.5085 44.5653 40.0166 41.3278 44.1662 40.5027C44.8226 40.3732 45.4642 40.3103 46.0798 40.3103C47.6261 40.3103 48.9945 40.7136 49.9253 41.4758C50.7152 42.1196 51.1157 42.9595 51.1157 43.9659C51.112 46.9814 47.6076 50.2226 43.458 51.044ZM51.112 11.676L21.9051 21.3922V14.303L51.112 4.59049V11.676Z" fill="#FF6460"/>
</svg>
