<svg width="127" height="132" viewBox="0 0 127 132" fill="none" xmlns="http://www.w3.org/2000/svg">
<path d="M98.5467 75.7679C90.123 71.8301 86.4407 61.8323 90.3412 53.4885C96.9976 39.2489 90.7334 22.1623 76.3225 15.4257L69.4303 12.2039C55.0542 5.48362 37.9081 11.5848 31.2355 25.8589L3.14318e-06 92.6783L83.2282 131.584L103.294 88.6585C105.586 83.8478 103.455 78.0623 98.5467 75.7679Z" fill="white"/>
<path d="M84.9458 50.9664C90.2323 39.6575 85.2603 26.1578 73.843 20.8207L66.9508 17.5988C55.5335 12.2617 41.987 17.1046 36.7005 28.4136L7.96321 89.8888L80.3658 123.734L97.9338 86.1527C98.8203 84.2564 97.9978 82.0234 96.0834 81.1284C84.6312 75.775 79.6593 62.2754 84.9458 50.9664Z" fill="#FF42CA"/>
<path d="M90.9524 100.997L18.5498 67.1511L7.92839 89.8725L80.331 123.718L90.9524 100.997Z" fill="#D62AA5"/>
<path d="M33.7204 79.1584L27.4548 76.2295L18.7191 94.9169L24.9848 97.8458L33.7204 79.1584Z" fill="white"/>
<path d="M46.2168 85L39.9511 82.071L31.2155 100.758L37.4811 103.687L46.2168 85Z" fill="white"/>
<path d="M58.6784 90.8254L52.4128 87.8965L43.6771 106.584L49.9427 109.513L58.6784 90.8254Z" fill="white"/>
<path d="M71.1748 96.6667L64.9092 93.7378L56.1736 112.425L62.4392 115.354L71.1748 96.6667Z" fill="white"/>
<path d="M27.4895 76.2458L21.2239 73.3169L12.4883 92.0043L18.7539 94.9332L27.4895 76.2458Z" fill="white"/>
<path d="M39.9511 82.0713L33.6855 79.1423L24.9499 97.8297L31.2155 100.759L39.9511 82.0713Z" fill="white"/>
<path d="M52.4476 87.9126L46.182 84.9836L37.4464 103.671L43.712 106.6L52.4476 87.9126Z" fill="white"/>
<path d="M64.9092 93.738L58.6436 90.8091L49.908 109.496L56.1736 112.425L64.9092 93.738Z" fill="white"/>
<path d="M77.4404 99.5959L71.1748 96.667L62.4391 115.354L68.7048 118.283L77.4404 99.5959Z" fill="white"/>
<path d="M83.6712 102.509L77.4056 99.5796L68.67 118.267L74.9356 121.196L83.6712 102.509Z" fill="white"/>
<path d="M80.6462 124.496L7.16449 90.1456L36.1436 28.1532C41.559 16.5685 55.5128 11.5798 67.2087 17.0472L74.1008 20.269C85.7966 25.7364 90.9181 39.642 85.5027 51.2267C80.3612 62.2254 85.221 75.4205 96.3251 80.6112C98.5181 81.6363 99.4713 84.2246 98.4559 86.3968L80.6462 124.496ZM8.69228 89.5994L80.0506 122.957L97.3769 85.8923C98.1183 84.3063 97.408 82.3778 95.8067 81.6293C84.1109 76.1619 78.9895 62.2563 84.4049 50.6715C89.5464 39.6729 84.6866 26.4778 73.5825 21.2871L66.6903 18.0653C55.5863 12.8745 42.3454 17.6083 37.204 28.6069L8.69228 89.5994Z" fill="black"/>
<path d="M80.6463 124.496L7.16456 90.1457L18.2856 66.3555L91.7673 100.705L80.6463 124.496ZM8.69235 89.5995L80.0507 122.957L90.1886 101.27L18.8302 67.9125L8.69235 89.5995Z" fill="black"/>
<path d="M19.0343 95.6947L11.6896 92.2613L20.9249 72.5051L28.2696 75.9385L19.0343 95.6947ZM13.2522 91.7314L18.4388 94.1559L26.6909 76.5029L21.5043 74.0784L13.2522 91.7314Z" fill="black"/>
<path d="M25.3 98.6234L17.9553 95.19L27.1906 75.4338L34.5352 78.8672L25.3 98.6234ZM19.4831 94.6438L24.6696 97.0683L32.9217 79.4153L27.7352 76.9908L19.4831 94.6438Z" fill="black"/>
<path d="M31.496 101.519L24.1513 98.086L33.3866 78.3298L40.7313 81.7632L31.496 101.519ZM25.7139 97.5561L30.9004 99.9806L39.1526 82.3276L33.966 79.9031L25.7139 97.5561Z" fill="black"/>
<path d="M29.5084 77.19L25.4706 75.3025L20.2969 86.3701L24.3347 88.2576L29.5084 77.19Z" fill="black"/>
<path d="M35.7045 80.086L31.6666 78.1985L26.4929 89.2661L30.5308 91.1536L35.7045 80.086Z" fill="black"/>
<path d="M73.2633 97.6434L69.2255 95.7559L64.0518 106.823L68.0896 108.711L73.2633 97.6434Z" fill="black"/>
<path d="M79.4593 100.54L75.4215 98.6521L70.2478 109.72L74.2857 111.607L79.4593 100.54Z" fill="black"/>
<path d="M48.2357 85.9442L44.1978 84.0566L39.0241 95.1242L43.062 97.0118L48.2357 85.9442Z" fill="black"/>
<path d="M54.4317 88.8404L50.3938 86.9529L45.2201 98.0205L49.258 99.908L54.4317 88.8404Z" fill="black"/>
<path d="M60.558 91.7044L56.5202 89.8169L51.3465 100.884L55.3843 102.772L60.558 91.7044Z" fill="black"/>
<path d="M37.7615 104.449L30.4169 101.015L39.6521 81.2593L46.9968 84.6926L37.7615 104.449ZM31.9795 100.486L37.166 102.91L45.4181 85.257L40.2316 82.8325L31.9795 100.486Z" fill="black"/>
<path d="M43.9924 107.361L36.6477 103.928L45.883 84.1716L53.2277 87.605L43.9924 107.361ZM38.2103 103.398L43.3969 105.822L51.649 88.1694L46.4624 85.7449L38.2103 103.398Z" fill="black"/>
<path d="M50.258 110.29L42.9134 106.857L52.1486 87.1003L59.4933 90.5337L50.258 110.29ZM44.476 106.327L49.6625 108.751L57.9146 91.0981L52.7281 88.6736L44.476 106.327Z" fill="black"/>
<path d="M56.4888 113.203L49.1441 109.77L58.3794 90.0134L65.7241 93.4468L56.4888 113.203ZM50.6719 109.223L55.8584 111.648L64.1105 93.9949L58.924 91.5704L50.6719 109.223Z" fill="black"/>
<path d="M62.7196 116.115L55.3749 112.682L64.6102 92.9258L71.9549 96.3591L62.7196 116.115ZM56.9375 112.152L62.1241 114.577L70.3762 96.9235L65.1896 94.499L56.9375 112.152Z" fill="black"/>
<path d="M68.9853 119.044L61.6406 115.611L70.8759 95.8547L78.2205 99.2881L68.9853 119.044ZM63.2032 115.081L68.3897 117.506L76.6418 99.8525L71.4553 97.428L63.2032 115.081Z" fill="black"/>
<path d="M75.2508 121.973L67.9061 118.54L77.1414 98.7839L84.4861 102.217L75.2508 121.973ZM69.4687 118.01L74.6553 120.435L82.9074 102.782L77.7208 100.357L69.4687 118.01Z" fill="black"/>
</svg>
