<svg width="552" height="1600" viewBox="0 0 552 1600" fill="none" xmlns="http://www.w3.org/2000/svg">
<rect width="414" height="1600" transform="translate(75)" fill="black"/>
<g opacity="0.12">
<path d="M484.916 1437.67L485.694 1433.95C485.831 1435.38 485.558 1436.69 484.916 1437.67Z" fill="white"/>
<path d="M313.976 1365.02C310.715 1364.34 307.577 1363.06 304.681 1361.26C298.587 1357.43 294.387 1351.64 292.825 1344.93C291.263 1338.21 292.56 1331.39 296.417 1325.68C300.316 1319.98 306.317 1316.13 313.36 1314.8C320.404 1313.47 327.62 1314.86 333.722 1318.65C339.816 1322.48 344.017 1328.27 345.579 1334.98C347.14 1341.7 345.843 1348.52 341.986 1354.23C338.088 1359.93 332.086 1363.78 325.043 1365.11C321.317 1365.82 317.572 1365.77 313.976 1365.02ZM322.733 1323.19C320.308 1322.68 317.783 1322.65 315.327 1323.13C310.606 1323.99 306.567 1326.61 303.984 1330.4C298.627 1338.27 301.101 1348.97 309.513 1354.23C313.606 1356.78 318.431 1357.71 323.16 1356.8C327.881 1355.93 331.921 1353.32 334.503 1349.53C339.86 1341.66 337.386 1330.96 328.974 1325.69C326.999 1324.5 324.907 1323.65 322.733 1323.19Z" fill="white"/>
<path d="M545.991 1308.33C545.957 1308.07 545.931 1307.78 545.897 1307.53C545.88 1307.19 545.787 1306.8 545.56 1306.42C545.51 1306.25 545.359 1306.13 545.292 1306.04C545.074 1305.83 544.94 1305.63 544.689 1305.38C544.002 1304.7 543.173 1304.28 542.421 1304.12L226.147 1237.91C225.018 1237.67 223.698 1237.93 222.63 1238.66L222.53 1238.72C222.213 1238.98 221.846 1239.28 221.596 1239.64C221.579 1239.72 221.579 1239.72 221.579 1239.72C221.221 1240.18 221.038 1240.63 220.93 1241.15L180.852 1432.6C180.769 1433 180.778 1433.37 180.879 1433.72C180.846 1433.88 180.913 1433.98 180.897 1434.06C180.957 1434.6 181.125 1435.05 181.418 1435.53C182.106 1436.62 183.22 1437.35 184.349 1437.58L500.58 1503.78C501.458 1503.96 502.386 1503.91 503.163 1503.54C503.446 1503.43 503.647 1503.31 503.981 1503.17C504.081 1503.11 504.281 1502.99 504.381 1502.93C504.699 1502.66 504.94 1502.34 505.132 1502.05C505.265 1501.83 505.406 1501.58 505.54 1501.36C505.673 1501.14 505.747 1500.78 505.797 1500.54L545.859 1309.17C545.959 1308.9 546.025 1308.58 545.991 1308.33ZM528.19 1309.76L503.133 1321.46L251.586 1268.8L235.876 1248.56L528.19 1309.76ZM378.554 1438.08C359.484 1429.1 346.806 1418.77 339.023 1411.12C349.418 1409.84 358.915 1406.59 368.252 1403.47C378.634 1399.96 388.44 1396.69 399.246 1395.94C399.906 1395.92 400.608 1395.9 401.277 1395.83C396.643 1397.95 393.03 1400.83 391.951 1404.31C391.37 1406.25 391.078 1410.15 395.743 1414.13C403.298 1420.79 411.856 1423.9 420.146 1426.83C425.383 1428.71 430.435 1430.43 435.164 1433.06C435.314 1433.18 435.549 1433.31 435.674 1433.34C434.155 1434.13 430.789 1435.41 423.537 1436.9C414.188 1438.82 404.555 1440.84 396.573 1448.12L387.081 1446.13C387.298 1445.93 386.225 1444.38 386.299 1444.03C383.935 1440.94 380.738 1439.11 378.554 1438.08ZM366.635 1441.85L224.429 1412.08L229.175 1389.41C236.464 1385.86 265.941 1373.07 291.232 1383.39C320.113 1395.13 326.75 1410.12 326.734 1410.2C326.919 1410.57 327.204 1411.08 327.489 1411.39C328.276 1412.21 343.898 1430.37 366.635 1441.85ZM425.93 1445.07C437.066 1442.74 444.658 1440.04 445.481 1434.44C445.984 1431.21 443.938 1428.26 439.443 1425.76C434.054 1422.73 428.44 1420.77 423.036 1418.86C415.248 1416.03 407.845 1413.45 401.614 1407.98C400.776 1407.19 400.524 1406.72 400.524 1406.72C401.255 1404.49 411.61 1400.26 424.252 1398.25C438.428 1401.84 451.008 1409.29 459.089 1419.48C467.228 1429.8 472.206 1435.21 475.756 1437.85L470.389 1463.49L408.13 1450.45C413.397 1447.6 419.463 1446.35 425.93 1445.07ZM466.14 1414.56C451.655 1396.19 425.075 1385.56 398.357 1387.47C386.44 1388.31 375.54 1392.01 365.025 1395.54C355.829 1398.6 347.084 1401.6 337.641 1402.71C335.929 1402.97 333.256 1404.06 333.005 1404.01C330.37 1399.09 321.757 1386.65 294.558 1375.64C270.547 1365.87 244.469 1373.68 231.35 1379.02L252.576 1277.62L498.52 1329.11L477.765 1428.25C475.427 1425.87 471.765 1421.68 466.14 1414.56ZM227.734 1252.22L244.283 1273.66L215.227 1412.46L191.534 1425.15L227.734 1252.22ZM197.609 1431.78L219.983 1419.77L471.446 1472.41L489.756 1492.94L197.609 1431.78ZM498.869 1490.27L478.665 1467.53L507.688 1328.88L535.368 1315.92L498.869 1490.27Z" fill="white"/>
</g>
<g opacity="0.12">
<path d="M243.225 818.522L223.697 822.648C189.746 818.341 155.366 825.606 126.059 843.28L124.684 843.571C90.7319 839.263 56.3522 846.528 27.0454 864.203L7.79271 868.271C4.49225 868.968 2.3225 872.297 3.01925 875.595L33.6763 1020.68C34.373 1023.97 37.5879 1025.59 40.8883 1024.89L146.778 1002.52C150.109 1004.68 154.583 1005.46 159.534 1004.42C164.484 1003.37 168.261 1000.85 170.431 997.52L276.321 975.145C279.621 974.447 281.907 971.668 281.21 968.371L250.553 823.289C249.857 819.991 246.526 817.825 243.225 818.522ZM251.79 965.115C216.58 961.647 186.325 968.04 158.278 984.875L129.595 849.135C157.468 831.476 187.722 825.083 223.108 829.375L251.79 965.115ZM152.777 986.037C135.171 984.303 119.739 984.694 104.337 987.949C88.9345 991.203 74.6631 997.089 59.264 1005.8L30.5811 870.058C61.2051 851.818 91.4592 845.425 124.094 850.298L152.777 986.037ZM152.187 992.764L62.5247 1011.71C89.3562 994.559 120.71 987.933 152.187 992.764ZM251.201 971.841L161.538 990.788C188.095 973.694 219.724 967.011 251.201 971.841ZM11.7349 876.049L25.4868 873.143L55.0987 1013.28L41.3468 1016.19L11.7349 876.049ZM272.379 967.366L258.627 970.272L229.015 830.136L242.767 827.23L272.379 967.366Z" fill="white"/>
<path d="M113.248 872.395C90.8785 868.511 68.0504 873.335 49.1644 885.937C47.9054 886.777 47.6456 888.267 48.486 889.525C49.3264 890.782 50.8177 891.041 52.0768 890.201C69.9787 878.381 91.4317 873.848 112.31 877.473C112.585 877.415 112.918 877.632 113.193 877.574C114.293 877.341 115.002 876.617 115.045 875.46C115.638 874.187 114.74 872.654 113.248 872.395Z" fill="white"/>
<path d="M117.661 893.279C95.2913 889.394 72.4632 894.218 53.5772 906.82C52.3182 907.66 52.0584 909.15 52.8988 910.408C53.7392 911.666 55.2305 911.925 56.4896 911.084C74.3915 899.264 95.8444 894.731 116.723 898.357C116.998 898.298 117.331 898.515 117.606 898.457C118.706 898.225 119.415 897.501 119.458 896.343C120.051 895.07 119.152 893.538 117.661 893.279Z" fill="white"/>
<path d="M122.074 914.162C99.7041 910.277 76.8759 915.101 57.99 927.703C56.7309 928.543 56.4711 930.033 57.3115 931.291C58.1519 932.549 59.6432 932.808 60.9023 931.967C78.8042 920.147 100.257 915.614 121.136 919.24C121.411 919.182 121.744 919.398 122.019 919.34C123.119 919.108 123.828 918.384 123.871 917.226C124.464 915.953 123.565 914.421 122.074 914.162Z" fill="white"/>
<path d="M130.899 955.927C108.53 952.043 85.7014 956.867 66.8155 969.469C65.5564 970.309 65.2966 971.799 66.137 973.057C66.9774 974.314 68.4687 974.573 69.7278 973.733C87.6297 961.913 109.083 957.38 129.961 961.006C130.236 960.947 130.569 961.164 130.844 961.106C131.944 960.873 132.653 960.15 132.696 958.992C133.231 957.444 132.391 956.186 130.899 955.927Z" fill="white"/>
<path d="M126.487 935.044C104.117 931.16 81.2887 935.984 62.4027 948.586C61.1437 949.426 60.8839 950.916 61.7243 952.174C62.5647 953.431 64.056 953.69 65.315 952.85C83.217 941.03 104.67 936.497 125.548 940.122C125.823 940.064 126.156 940.281 126.431 940.223C127.532 939.99 128.241 939.267 128.283 938.109C128.876 936.836 127.978 935.303 126.487 935.044Z" fill="white"/>
<path d="M212.262 851.473C189.892 847.588 167.064 852.412 148.178 865.014C146.919 865.854 146.659 867.345 147.5 868.602C148.34 869.86 149.831 870.119 151.09 869.279C168.992 857.459 190.445 852.925 211.324 856.551C211.599 856.493 211.932 856.709 212.207 856.651C213.307 856.419 214.016 855.695 214.059 854.538C214.652 853.264 213.753 851.732 212.262 851.473Z" fill="white"/>
<path d="M216.675 872.356C194.305 868.472 171.477 873.296 152.591 885.898C151.332 886.738 151.072 888.228 151.912 889.486C152.753 890.743 154.244 891.002 155.503 890.162C173.405 878.342 194.858 873.809 215.736 877.434C216.011 877.376 216.345 877.593 216.62 877.535C217.72 877.302 218.429 876.578 218.472 875.421C219.064 874.148 218.166 872.615 216.675 872.356Z" fill="white"/>
<path d="M221.087 893.239C198.718 889.355 175.89 894.179 157.004 906.781C155.745 907.621 155.485 909.111 156.325 910.369C157.166 911.626 158.657 911.885 159.916 911.045C177.818 899.225 199.271 894.692 220.149 898.317C220.424 898.259 220.757 898.476 221.032 898.418C222.133 898.185 222.842 897.461 222.884 896.304C223.477 895.031 222.579 893.498 221.087 893.239Z" fill="white"/>
<path d="M229.913 935.005C207.543 931.121 184.715 935.944 165.829 948.547C164.57 949.387 164.31 950.877 165.151 952.134C165.991 953.392 167.482 953.651 168.741 952.811C186.643 940.991 208.096 936.458 228.975 940.083C229.25 940.025 229.583 940.242 229.858 940.184C230.958 939.951 231.667 939.227 231.71 938.07C232.245 936.522 231.404 935.264 229.913 935.005Z" fill="white"/>
<path d="M225.5 914.122C203.13 910.238 180.302 915.061 161.416 927.664C160.157 928.504 159.898 929.994 160.738 931.251C161.578 932.509 163.07 932.768 164.329 931.928C182.231 920.108 203.684 915.575 224.562 919.2C224.837 919.142 225.17 919.359 225.445 919.301C226.545 919.068 227.254 918.344 227.297 917.187C227.89 915.913 226.991 914.381 225.5 914.122Z" fill="white"/>
</g>
<g opacity="0.16">
<path d="M444.577 81.2246C440.126 76.9127 435.518 72.4534 432.201 63.8591C431.57 62.2228 429.834 61.272 428.128 61.5889C426.391 61.9059 425.137 63.4095 425.137 65.1564V140.19C420.975 137.847 415.558 137.117 409.815 138.245C397.921 140.588 388.61 149.905 388.61 159.458C388.61 163.615 390.405 167.374 393.655 170.027C396.853 172.636 401.171 174 405.957 174C407.664 174 409.43 173.823 411.225 173.469C423.119 171.125 432.431 161.809 432.431 152.256C432.431 152.249 432.431 152.234 432.431 152.227V78.9323C434.761 81.8732 437.187 84.2171 439.465 86.4283C445.742 92.5018 450.691 97.3001 450.691 112.329H458C458.015 94.2339 451.181 87.6224 444.577 81.2246ZM409.823 166.364C405.2 167.27 400.904 166.548 398.3 164.425C396.719 163.143 395.918 161.47 395.918 159.465C395.918 153.458 402.937 147.008 411.24 145.365C412.553 145.107 413.837 144.981 415.069 144.981C418.163 144.981 420.901 145.785 422.763 147.303C424.344 148.586 425.145 150.259 425.145 152.264C425.145 158.271 418.126 164.728 409.823 166.364Z" fill="white"/>
<path d="M399.576 105.099C399.576 105.091 399.576 105.077 399.576 105.069V21.6251C399.576 20.4605 399.012 19.3623 398.063 18.6842C397.105 17.9987 395.881 17.8218 394.768 18.183L329.021 39.9487C327.53 40.4426 326.528 41.8283 326.528 43.3909V114.799C322.365 112.455 316.949 111.725 311.206 112.853C299.312 115.197 290 124.513 290 134.066C290 138.223 291.796 141.982 295.045 144.635C298.243 147.244 302.562 148.608 307.348 148.608C309.054 148.608 310.82 148.431 312.616 148.077C324.51 145.733 333.822 136.417 333.822 126.864C333.822 126.857 333.822 126.842 333.822 126.835V67.7806L392.26 48.4324V93.0327C388.098 90.6889 382.681 89.9592 376.938 91.0869C365.044 93.4308 355.732 102.747 355.732 112.3C355.732 116.457 357.528 120.216 360.778 122.869C363.976 125.479 368.294 126.842 373.08 126.842C374.786 126.842 376.552 126.665 378.348 126.312C390.264 123.975 399.576 114.651 399.576 105.099ZM311.206 140.965C306.583 141.871 302.287 141.149 299.683 139.026C298.102 137.744 297.301 136.07 297.301 134.066C297.301 128.058 304.32 121.609 312.623 119.965C313.936 119.707 315.22 119.582 316.452 119.582C319.546 119.582 322.284 120.386 324.146 121.904C325.727 123.186 326.528 124.86 326.528 126.864C326.528 132.872 319.509 139.328 311.206 140.965ZM376.953 119.199C372.331 120.105 368.034 119.383 365.43 117.26C363.85 115.978 363.048 114.305 363.048 112.3C363.048 106.293 370.067 99.8433 378.37 98.1996C379.684 97.9417 380.967 97.8164 382.199 97.8164C385.293 97.8164 388.031 98.6198 389.893 100.138C391.474 101.421 392.275 103.094 392.275 105.099C392.268 111.106 385.256 117.563 376.953 119.199ZM392.268 40.7742L333.829 60.1298V46.0075L392.268 26.6593V40.7742Z" fill="white"/>
</g>
<g opacity="0.14">
<path d="M106.143 277.813C106.468 277.8 106.784 277.702 107.059 277.528C107.334 277.354 107.558 277.109 107.708 276.82C107.859 276.531 107.93 276.206 107.915 275.88C107.9 275.554 107.8 275.237 107.623 274.962C104.949 271.252 101.043 268.622 96.6098 267.549C92.1769 266.475 87.5103 267.029 83.4536 269.109C79.1481 270.608 75.5225 273.606 73.2335 277.561C70.9446 281.516 70.1436 286.165 70.9758 290.666C71.0524 290.984 71.2115 291.276 71.4368 291.512C71.6621 291.748 71.9456 291.921 72.2585 292.012C72.5714 292.103 72.9025 292.109 73.2183 292.03C73.5341 291.951 73.8232 291.789 74.0563 291.561C78.4506 287.553 83.4708 284.296 88.9174 281.919C94.3979 279.621 100.216 278.234 106.143 277.813ZM87.4652 278.51C82.7548 280.565 78.3354 283.233 74.3211 286.447C74.4871 283.325 75.5854 280.326 77.4731 277.842C79.3607 275.357 81.9504 273.501 84.9054 272.516C86.2407 271.935 87.6297 271.487 89.0526 271.179C91.3553 270.62 93.7592 270.628 96.0603 271.201C98.3614 271.774 100.492 272.895 102.271 274.47C97.1791 275.157 92.201 276.516 87.4652 278.51ZM264.088 241.88C263.37 241.456 262.56 241.217 261.729 241.183C260.898 241.149 260.072 241.322 259.325 241.686C257.843 242.41 256.246 243.12 254.555 243.816C229.603 254.239 202.006 256.53 175.66 250.365C172.402 237.881 168.195 225.666 163.075 213.826L158.624 205.716C158.216 204.975 157.634 204.345 156.929 203.881C156.223 203.417 155.416 203.133 154.577 203.053C153.758 202.971 152.932 203.093 152.171 203.407C151.41 203.72 150.738 204.217 150.213 204.852C149.147 206.16 148.008 207.446 146.76 208.798C134.434 222.281 119.389 232.974 102.622 240.167C85.8545 247.36 67.7489 250.889 49.5067 250.519C47.651 250.457 45.8699 250.381 44.2364 250.275C43.4105 250.215 42.583 250.36 41.8263 250.695C41.0695 251.031 40.4066 251.548 39.8956 252.201C39.3769 252.865 39.0277 253.645 38.8785 254.475C38.7293 255.306 38.7845 256.16 39.0394 256.965L41.8746 265.939C62.1299 313.452 90.5694 345.402 119.898 353.598C127.318 355.807 135.158 356.183 142.748 354.692C147.715 353.625 152.437 351.63 156.669 348.812C170.116 369.164 188.95 378.717 207.777 374.743C208.613 374.566 209.451 374.364 210.284 374.134C235.35 367.237 265.327 331.995 267.315 255.183L266.626 245.986C266.57 245.146 266.31 244.332 265.867 243.616C265.424 242.9 264.813 242.304 264.086 241.881L264.088 241.88ZM120.88 350.03C92.6401 342.137 65.0789 310.958 45.3275 264.66L42.5559 255.857C42.4804 255.628 42.4627 255.384 42.5045 255.146C42.5463 254.909 42.6462 254.685 42.7952 254.496C42.992 254.242 43.2716 254.066 43.585 253.998C43.7199 253.97 43.8579 253.961 43.9953 253.971C45.6695 254.08 47.4924 254.159 49.4112 254.223C68.1794 254.606 86.8075 250.978 104.059 243.58C121.311 236.182 136.792 225.183 149.474 211.312C150.77 209.907 151.96 208.564 153.063 207.21C153.204 207.04 153.384 206.908 153.588 206.826C153.793 206.745 154.014 206.715 154.233 206.741C154.473 206.763 154.705 206.843 154.908 206.976C155.11 207.109 155.277 207.289 155.394 207.502L159.765 215.444C164.51 226.45 168.467 237.78 171.605 249.349C170.915 249.165 170.22 248.989 169.531 248.794C168.672 248.552 167.812 248.306 166.958 248.043C165.687 247.653 164.424 247.231 163.165 246.799C162.361 246.522 161.552 246.257 160.753 245.965C159.375 245.461 158.012 244.915 156.653 244.363C155.994 244.095 155.328 243.847 154.674 243.568C152.669 242.713 150.686 241.808 148.724 240.854C147.227 240.153 145.811 239.405 144.466 238.694L144.056 238.478C143.333 238.083 142.525 237.87 141.702 237.857C140.879 237.844 140.065 238.033 139.332 238.405C138.583 238.79 137.938 239.351 137.454 240.042C136.97 240.732 136.661 241.531 136.553 242.369L136.027 246.627C131.911 248.24 128.484 251.24 126.332 255.113C124.18 258.986 123.437 263.492 124.231 267.859C124.308 268.176 124.467 268.468 124.692 268.704C124.917 268.941 125.2 269.113 125.513 269.204C125.826 269.296 126.157 269.302 126.472 269.224C126.788 269.146 127.077 268.985 127.311 268.758C129.805 266.477 132.505 264.437 135.379 262.662C135.439 276.576 136.803 290.455 139.453 304.117C136.892 305.554 134.259 306.859 131.565 308.027C122.024 312.036 111.892 314.455 101.57 315.191C101.244 315.202 100.928 315.301 100.653 315.475C100.378 315.65 100.154 315.894 100.004 316.184C99.8537 316.474 99.7827 316.798 99.798 317.125C99.8134 317.451 99.9146 317.768 100.091 318.043C103.63 322.954 108.524 326.717 114.169 328.865C119.813 331.013 125.959 331.452 131.843 330.128C134.601 329.533 137.293 328.668 139.882 327.545C141.671 326.766 143.406 325.868 145.076 324.857C145.594 326.33 146.11 327.807 146.666 329.225C146.937 329.919 147.235 330.572 147.516 331.253C148.092 332.65 148.666 334.048 149.277 335.387C149.639 336.177 150.023 336.923 150.397 337.693C150.964 338.863 151.529 340.033 152.124 341.156C152.545 341.947 152.986 342.697 153.418 343.461C153.846 344.218 154.256 345.012 154.698 345.744C149.721 348.899 144.113 350.918 138.27 351.659C132.426 352.399 126.49 351.843 120.88 350.03ZM135.481 251.024L135.395 251.734C135.346 253.982 135.318 256.197 135.31 258.379C132.602 259.936 130.016 261.696 127.575 263.647C127.678 261.031 128.462 258.489 129.849 256.274C131.236 254.059 133.178 252.249 135.481 251.024ZM143.853 321.32C142.118 322.396 140.304 323.338 138.426 324.137C120.519 331.795 109.554 323.255 105.258 318.612C114.812 317.581 124.164 315.162 133.021 311.432C135.481 310.374 137.899 309.206 140.235 307.943C140.639 309.724 141.092 311.479 141.548 313.231C141.651 313.625 141.737 314.027 141.843 314.419C142.469 316.754 143.136 319.06 143.853 321.32ZM262.944 246.248L263.629 255.264C261.689 329.865 233.151 363.998 209.3 370.56C190.816 375.666 171.919 366.196 158.745 345.282C154.161 337.829 150.484 329.851 147.792 321.522C145.999 316.01 144.502 310.405 143.309 304.733C140.315 289.833 138.87 274.665 138.997 259.471C138.997 256.965 139.027 254.415 139.07 252.006L140.211 242.854C140.239 242.612 140.326 242.381 140.464 242.182C140.603 241.982 140.788 241.82 141.004 241.71C141.15 241.645 141.304 241.602 141.462 241.582C141.507 241.578 141.553 241.576 141.598 241.577C141.85 241.564 142.1 241.621 142.32 241.744L142.751 241.972C144.146 242.708 145.615 243.484 147.138 244.197C149.258 245.235 151.406 246.214 153.581 247.135C157.935 248.976 162.386 250.575 166.914 251.924C168.367 252.356 169.838 252.719 171.304 253.1C172.122 253.312 172.93 253.559 173.751 253.756L173.76 253.758C201.174 260.397 229.967 258.114 255.974 247.239C257.725 246.518 259.396 245.776 260.943 245.02C261.146 244.923 261.37 244.877 261.594 244.887C261.819 244.898 262.038 244.963 262.231 245.079C262.435 245.196 262.607 245.362 262.731 245.562C262.855 245.762 262.928 245.99 262.943 246.225L262.944 246.248ZM171.469 289.064C173.46 289.132 175.451 288.964 177.402 288.565C180.854 287.851 184.033 286.177 186.578 283.733C189.122 281.288 190.929 278.173 191.791 274.744C191.853 274.424 191.83 274.093 191.724 273.785C191.619 273.476 191.433 273.201 191.188 272.987C190.942 272.773 190.645 272.628 190.326 272.566C190.007 272.505 189.677 272.528 189.371 272.635C183.69 274.412 177.761 275.264 171.809 275.159C165.87 274.935 160.004 273.754 154.435 271.662C154.134 271.537 153.806 271.494 153.484 271.538C153.162 271.582 152.857 271.71 152.6 271.91C152.344 272.11 152.145 272.375 152.023 272.678C151.901 272.98 151.862 273.31 151.908 273.633C152.8 278.123 155.262 282.147 158.85 284.977C162.438 287.807 166.914 289.257 171.469 289.064ZM171.714 278.861C176.861 278.959 181.997 278.387 186.994 277.159C185.538 279.921 183.289 282.18 180.538 283.642C177.787 285.105 174.66 285.704 171.563 285.362C168.451 285.537 165.357 284.767 162.684 283.154C160.01 281.54 157.881 279.157 156.573 276.315C161.49 277.819 166.58 278.675 171.714 278.861ZM229.934 323.12C210.113 329.579 188.669 328.988 169.207 321.447C168.907 321.321 168.578 321.277 168.255 321.32C167.932 321.362 167.626 321.49 167.369 321.69C167.111 321.889 166.911 322.154 166.788 322.457C166.666 322.76 166.625 323.09 166.671 323.414C166.707 323.66 170.471 347.951 198.889 348.736C202.186 348.849 205.485 348.572 208.717 347.912C214.388 346.749 219.615 344.003 223.797 339.99C227.979 335.977 230.946 330.859 232.359 325.225C232.422 324.905 232.399 324.573 232.293 324.264C232.187 323.955 232.001 323.679 231.754 323.465C231.508 323.251 231.209 323.107 230.889 323.046C230.569 322.985 230.239 323.011 229.932 323.12L229.934 323.12ZM198.986 345.033C179.511 344.495 173.103 332.124 171.133 326.102C189.426 332.416 209.197 332.959 227.788 327.657C225.541 333.558 218.549 345.572 198.986 345.033ZM247.247 274.236C235.855 277.923 223.542 277.576 212.36 273.253C212.059 273.127 211.731 273.083 211.408 273.126C211.085 273.169 210.779 273.297 210.521 273.497C210.264 273.697 210.064 273.962 209.941 274.265C209.819 274.568 209.779 274.898 209.825 275.222C210.714 279.711 213.17 283.736 216.751 286.573C220.331 289.411 224.8 290.874 229.355 290.699L229.358 290.698C231.345 290.765 233.332 290.598 235.279 290.2C238.735 289.483 241.919 287.802 244.464 285.351C247.01 282.899 248.815 279.776 249.672 276.34C249.735 276.019 249.712 275.688 249.606 275.379C249.499 275.07 249.313 274.794 249.067 274.58C248.82 274.367 248.522 274.222 248.202 274.161C247.882 274.101 247.552 274.126 247.245 274.235L247.247 274.236ZM229.456 286.998C226.346 287.159 223.257 286.38 220.59 284.761C217.923 283.142 215.8 280.758 214.495 277.917C224.365 281.012 234.892 281.305 244.908 278.764C243.463 281.542 241.215 283.815 238.457 285.285C235.699 286.754 232.562 287.351 229.457 286.996L229.456 286.998Z" fill="white"/>
</g>
<g opacity="0.12">
<path d="M400.475 518.41C400.824 518.04 401.092 517.587 401.151 517.041C401.963 509.688 391.792 499.16 381.049 507.288C378.524 509.201 381.438 513.047 383.963 511.13C387.746 508.273 391.638 508.428 394.748 512.246C392.291 511.056 386.978 509.788 382.007 513.925C380.849 514.895 380.847 516.677 382.018 517.636C388.813 523.222 392.731 522.972 398.183 521.61C398.185 521.613 401.261 521.141 400.475 518.41ZM388.15 516.09C390.227 515.607 392.502 516.161 394.118 517.555C392.245 517.802 390.447 517.435 388.15 516.09ZM505.92 670.939C486.609 642.83 485.174 595.011 489.029 559.766C490.128 547.872 491.582 536.98 492.781 528.005C497.748 490.787 477.501 458.342 444.644 450.851C418.706 444.938 392.309 457.017 381.265 478.039C363.307 487.518 357.74 503.072 360.453 512.118C347.193 533.236 340.747 561.531 348.418 590.7C342.52 605.128 335.899 617.316 328.465 625.107C323.001 626.727 317.7 628.935 312.71 631.764C309.636 633.5 312.624 637.36 315.093 635.955C323.087 631.426 331.901 628.527 340.946 627.368C333.277 633.494 326.292 640.558 320.441 648.358C318.418 651.05 322.485 653.665 324.302 651.25C326.265 648.637 328.365 646.107 330.573 643.669C331.451 663.524 368.26 681.74 402.206 688.258L402.208 688.259C402.208 688.259 402.21 688.259 402.213 688.26C402.913 688.357 403.487 688.283 403.998 687.97C440.207 666.006 484.619 658.333 502.28 674.139C504.411 676.673 508.047 673.205 505.92 670.939ZM431.735 454.238C467.09 454.258 495.55 487.998 487.09 534.216C476.943 490.076 433.309 472.127 419.825 468.166C421.629 463.274 425.868 456.905 431.735 454.238ZM425.261 475.131C422.343 474.393 412.448 471.553 405.496 471.831C409.544 471.47 415.731 471.063 425.261 475.131ZM422.63 454.993C418.876 458.846 416.297 463.562 415.038 467.252C407.059 466.205 399.041 467.298 393.095 470.12C400.734 462.314 411.24 456.906 422.63 454.993ZM365.135 513.709C365.63 512.951 365.5 511.845 365.285 511.364C363.606 507.845 365.312 495.046 379.186 485.056C377.403 490.147 362.489 553.242 351.573 582.616C347.024 557.946 352.434 533.407 365.135 513.709ZM336.394 623.211C350.846 604.294 361.767 570.997 370.462 537.637C369.644 562.227 377.692 581.264 389.094 589.079C387.903 595.225 387.91 600.892 388.194 604.909C374.488 607.475 360.642 613.476 348.165 622.005C344.215 622.091 340.278 622.502 336.394 623.211ZM418.578 674.83C413.02 677.365 407.578 680.225 402.338 683.357C381.811 678.678 370.335 674.261 359.939 668.72C360.713 668.085 361.805 667.453 363.33 667.161C366.479 666.568 365.572 661.812 362.425 662.428C359.02 663.073 356.858 664.819 355.57 666.271C341.8 658.068 333.804 648.72 335.589 640.89C337.811 631.145 370.544 612.238 388.732 609.708C389.348 612.672 394.145 612.036 393.454 608.722C392.973 606.448 392.191 599.935 393.561 591.494C399.718 593.961 423.552 597.349 448.445 581.717C451.137 580.026 448.567 575.944 445.879 577.641C433.601 585.351 413.94 591.475 397.707 587.775C365.914 580.527 372.578 507.104 388.82 479.996C405.536 471.393 445.791 483.763 450.541 491.995C450.55 492.009 450.568 492.018 450.58 492.033C473.083 534.159 425.863 670.516 418.6 674.81C418.596 674.814 418.588 674.827 418.578 674.83ZM426.543 671.467C444.194 638.311 471.717 532.357 456.637 493.809C472.099 507.139 485.953 527.835 484.273 558.846C481.146 592.36 480.745 634.048 496.536 664.6C482.909 658.346 455.936 659.814 426.543 671.467ZM442.307 522.067C441.713 521.764 440.792 520.655 440.218 520.06C426.393 505.73 413.667 516.781 412.761 517.578C410.143 519.875 413.722 523.15 415.944 521.195C419.253 518.287 427.301 513.62 437.175 523.84C438.545 525.259 439.627 526.377 441.048 526.701C444.138 527.405 445.401 523.276 442.307 522.067ZM416.397 521.715C415.17 522.684 415.171 524.542 416.396 525.505C424.615 532.8 432.068 529.865 433.956 529.508C435.328 529.202 436.34 527.622 435.599 526.095C432.035 518.799 422.737 516.739 416.397 521.715ZM422.704 523.965C424.924 523.519 427.381 524.117 429.137 525.536C427.132 525.75 425.17 525.356 422.704 523.965ZM411.125 561.429C404.913 561.875 402.646 558.12 395.666 559.143C393.543 558.659 392.363 556.128 386.981 556.029C383.936 555.49 383.1 560.166 386.141 560.777C387.001 560.973 387.884 560.869 388.749 561.066C390.11 561.377 392.365 563.354 394.942 563.942C396.101 564.206 397.948 563.471 399.596 563.847C400.399 564.03 402.97 564.995 402.732 565.011C398.226 565.322 392.791 563.92 390.944 562.461C388.482 560.516 385.486 564.295 387.954 566.241C390.95 568.609 397.788 570.188 403.062 569.82C405.414 569.662 406.323 566.291 403.828 565.223C406.39 565.987 409.448 566.644 412.01 566.172C415.138 565.589 414.252 560.853 411.125 561.429ZM391.919 537.328L388.43 544.04C387.856 545.308 388 547.383 389.943 547.956C393.593 557.824 404.496 551.541 405.228 551.857C407.129 554.381 411.082 551.631 409.19 549.1C406.823 545.946 403.665 547.119 401.566 547.896C394.213 550.358 395.427 546.734 393.678 544.902L396.282 539.389C397.673 536.443 393.312 534.387 391.919 537.328Z" fill="white"/>
</g>
</svg>
