<svg width="414" height="1589" viewBox="0 0 414 1589" fill="none" xmlns="http://www.w3.org/2000/svg">
<rect width="414" height="1600" fill="black"/>
<g opacity="0.12">
<path d="M409.916 1437.67L410.694 1433.95C410.831 1435.38 410.558 1436.69 409.916 1437.67Z" fill="white"/>
<path d="M238.976 1365.02C235.715 1364.34 232.577 1363.06 229.681 1361.26C223.587 1357.43 219.387 1351.64 217.825 1344.93C216.263 1338.21 217.56 1331.39 221.417 1325.68C225.316 1319.98 231.317 1316.13 238.36 1314.8C245.404 1313.47 252.62 1314.86 258.722 1318.65C264.816 1322.48 269.017 1328.27 270.579 1334.98C272.14 1341.7 270.843 1348.52 266.986 1354.23C263.088 1359.93 257.086 1363.78 250.043 1365.11C246.317 1365.82 242.572 1365.77 238.976 1365.02ZM247.733 1323.19C245.308 1322.68 242.783 1322.65 240.327 1323.13C235.606 1323.99 231.567 1326.61 228.984 1330.4C223.627 1338.27 226.101 1348.97 234.513 1354.23C238.606 1356.78 243.431 1357.71 248.16 1356.8C252.881 1355.93 256.921 1353.32 259.503 1349.53C264.86 1341.66 262.386 1330.96 253.974 1325.69C251.999 1324.5 249.907 1323.65 247.733 1323.19Z" fill="white"/>
<path d="M470.991 1308.33C470.957 1308.07 470.931 1307.78 470.897 1307.53C470.88 1307.19 470.787 1306.8 470.56 1306.42C470.51 1306.25 470.359 1306.13 470.292 1306.04C470.074 1305.83 469.94 1305.63 469.689 1305.38C469.002 1304.7 468.173 1304.28 467.421 1304.12L151.147 1237.91C150.018 1237.67 148.698 1237.93 147.63 1238.66L147.53 1238.72C147.213 1238.98 146.846 1239.28 146.596 1239.64C146.579 1239.72 146.579 1239.72 146.579 1239.72C146.221 1240.18 146.038 1240.63 145.93 1241.15L105.852 1432.6C105.769 1433 105.778 1433.37 105.879 1433.72C105.846 1433.88 105.913 1433.98 105.897 1434.06C105.956 1434.6 106.125 1435.05 106.418 1435.53C107.106 1436.62 108.22 1437.35 109.349 1437.58L425.58 1503.78C426.458 1503.96 427.386 1503.91 428.162 1503.54C428.446 1503.43 428.647 1503.31 428.981 1503.17C429.081 1503.11 429.281 1502.99 429.381 1502.93C429.698 1502.66 429.94 1502.34 430.132 1502.05C430.265 1501.83 430.406 1501.58 430.54 1501.36C430.673 1501.14 430.747 1500.78 430.797 1500.54L470.859 1309.17C470.959 1308.9 471.025 1308.58 470.991 1308.33ZM453.19 1309.76L428.133 1321.46L176.586 1268.8L160.876 1248.56L453.19 1309.76ZM303.554 1438.08C284.484 1429.1 271.806 1418.77 264.023 1411.12C274.418 1409.84 283.915 1406.59 293.252 1403.47C303.634 1399.96 313.44 1396.69 324.246 1395.94C324.906 1395.92 325.608 1395.9 326.277 1395.83C321.642 1397.95 318.03 1400.83 316.951 1404.31C316.37 1406.25 316.078 1410.15 320.743 1414.13C328.298 1420.79 336.856 1423.9 345.146 1426.83C350.382 1428.71 355.435 1430.43 360.164 1433.06C360.314 1433.18 360.549 1433.31 360.674 1433.34C359.155 1434.13 355.789 1435.41 348.537 1436.9C339.188 1438.82 329.555 1440.84 321.573 1448.12L312.081 1446.13C312.298 1445.93 311.225 1444.38 311.299 1444.03C308.935 1440.94 305.738 1439.11 303.554 1438.08ZM291.635 1441.85L149.429 1412.08L154.175 1389.41C161.464 1385.86 190.941 1373.07 216.232 1383.39C245.113 1395.13 251.75 1410.12 251.734 1410.2C251.919 1410.57 252.204 1411.08 252.489 1411.39C253.276 1412.21 268.898 1430.37 291.635 1441.85ZM350.93 1445.07C362.066 1442.74 369.658 1440.04 370.481 1434.44C370.984 1431.21 368.938 1428.26 364.443 1425.76C359.053 1422.73 353.44 1420.77 348.036 1418.86C340.248 1416.03 332.845 1413.45 326.614 1407.98C325.776 1407.19 325.524 1406.72 325.524 1406.72C326.255 1404.49 336.61 1400.26 349.252 1398.25C363.428 1401.84 376.008 1409.29 384.089 1419.48C392.228 1429.8 397.206 1435.21 400.756 1437.85L395.389 1463.49L333.13 1450.45C338.397 1447.6 344.463 1446.35 350.93 1445.07ZM391.14 1414.56C376.655 1396.19 350.075 1385.56 323.357 1387.47C311.44 1388.31 300.54 1392.01 290.025 1395.54C280.829 1398.6 272.084 1401.6 262.641 1402.71C260.929 1402.97 258.256 1404.06 258.005 1404.01C255.37 1399.09 246.757 1386.65 219.558 1375.64C195.547 1365.87 169.469 1373.68 156.35 1379.02L177.575 1277.62L423.52 1329.11L402.765 1428.25C400.427 1425.87 396.765 1421.68 391.14 1414.56ZM152.734 1252.22L169.283 1273.66L140.227 1412.46L116.534 1425.15L152.734 1252.22V1252.22ZM122.609 1431.78L144.983 1419.77L396.446 1472.41L414.756 1492.94L122.609 1431.78ZM423.869 1490.27L403.665 1467.53L432.688 1328.88L460.368 1315.92L423.869 1490.27Z" fill="white"/>
</g>
<g opacity="0.12">
<path d="M168.225 818.522L148.697 822.648C114.746 818.341 80.3658 825.606 51.059 843.28L49.6838 843.571C15.7319 839.263 -18.6478 846.528 -47.9546 864.203L-67.2073 868.271C-70.5077 868.968 -72.6775 872.297 -71.9807 875.595L-41.3237 1020.68C-40.627 1023.97 -37.4121 1025.59 -34.1117 1024.89L71.7779 1002.52C75.1089 1004.68 79.5828 1005.46 84.5335 1004.42C89.4842 1003.37 93.2614 1000.85 95.4312 997.52L201.321 975.145C204.621 974.447 206.907 971.668 206.21 968.371L175.553 823.289C174.857 819.991 171.526 817.825 168.225 818.522ZM176.79 965.115C141.58 961.647 111.325 968.04 83.2776 984.875L54.5947 849.135C82.4683 831.476 112.722 825.083 148.108 829.375L176.79 965.115ZM77.7768 986.037C60.1714 984.303 44.7387 984.694 29.3366 987.949C13.9345 991.203 -0.336942 997.089 -15.736 1005.8L-44.4189 870.058C-13.7949 851.818 16.4592 845.425 49.094 850.298L77.7768 986.037ZM77.187 992.764L-12.4753 1011.71C14.3562 994.559 45.7105 987.933 77.187 992.764ZM176.201 971.841L86.5383 990.788C113.095 973.694 144.724 967.011 176.201 971.841ZM-63.2651 876.049L-49.5132 873.143L-19.9013 1013.28L-33.6532 1016.19L-63.2651 876.049ZM197.379 967.366L183.627 970.272L154.015 830.136L167.767 827.23L197.379 967.366Z" fill="white"/>
<path d="M38.2483 872.395C15.8786 868.511 -6.94956 873.335 -25.8355 885.937C-27.0946 886.777 -27.3543 888.267 -26.514 889.525C-25.6736 890.782 -24.1823 891.041 -22.9232 890.201C-5.02126 878.381 16.4317 873.848 37.3101 877.473C37.5851 877.415 37.9182 877.632 38.1933 877.574C39.2934 877.341 40.0024 876.617 40.0452 875.46C40.638 874.187 39.7396 872.654 38.2483 872.395Z" fill="white"/>
<path d="M42.661 893.279C20.2913 889.394 -2.53684 894.218 -21.4228 906.82C-22.6819 907.66 -22.9416 909.15 -22.1012 910.408C-21.2608 911.666 -19.7695 911.925 -18.5105 911.084C-0.608539 899.264 20.8444 894.731 41.7228 898.357C41.9978 898.298 42.3309 898.515 42.606 898.457C43.7061 898.225 44.4151 897.501 44.4579 896.343C45.0508 895.07 44.1523 893.538 42.661 893.279Z" fill="white"/>
<path d="M47.0737 914.162C24.704 910.277 1.87588 915.101 -17.0101 927.703C-18.2691 928.543 -18.5289 930.033 -17.6885 931.291C-16.8481 932.548 -15.3568 932.807 -14.0978 931.967C3.80418 920.147 25.2571 915.614 46.1355 919.24C46.4106 919.181 46.7437 919.398 47.0187 919.34C48.1188 919.107 48.8278 918.384 48.8706 917.226C49.4635 915.953 48.565 914.42 47.0737 914.162Z" fill="white"/>
<path d="M55.8993 955.927C33.5296 952.043 10.7014 956.867 -8.18452 969.469C-9.44358 970.309 -9.70335 971.799 -8.86296 973.057C-8.02257 974.314 -6.53125 974.573 -5.27219 973.733C12.6297 961.913 34.0827 957.38 54.9611 961.006C55.2361 960.947 55.5692 961.164 55.8443 961.106C56.9444 960.873 57.6534 960.15 57.6962 958.992C58.231 957.444 57.3906 956.186 55.8993 955.927Z" fill="white"/>
<path d="M51.4866 935.045C29.1169 931.16 6.28872 935.984 -12.5972 948.586C-13.8563 949.426 -14.1161 950.916 -13.2757 952.174C-12.4353 953.432 -10.944 953.691 -9.68491 952.85C8.21702 941.03 29.67 936.497 50.5484 940.123C50.8234 940.064 51.1565 940.281 51.4315 940.223C52.5317 939.991 53.2407 939.267 53.2835 938.109C53.8763 936.836 52.9779 935.304 51.4866 935.045Z" fill="white"/>
<path d="M137.262 851.473C114.892 847.589 92.064 852.412 73.178 865.014C71.919 865.855 71.6592 867.345 72.4996 868.602C73.34 869.86 74.8313 870.119 76.0904 869.279C93.9923 857.459 115.445 852.926 136.324 856.551C136.599 856.493 136.932 856.71 137.207 856.651C138.307 856.419 139.016 855.695 139.059 854.538C139.652 853.264 138.753 851.732 137.262 851.473Z" fill="white"/>
<path d="M141.675 872.356C119.305 868.472 96.4768 873.296 77.5909 885.898C76.3318 886.738 76.072 888.228 76.9124 889.486C77.7528 890.743 79.2441 891.002 80.5032 890.162C98.4051 878.342 119.858 873.809 140.736 877.434C141.012 877.376 141.345 877.593 141.62 877.535C142.72 877.302 143.429 876.578 143.472 875.421C144.064 874.148 143.166 872.615 141.675 872.356Z" fill="white"/>
<path d="M146.087 893.239C123.718 889.355 100.89 894.178 82.0036 906.781C80.7445 907.621 80.4848 909.111 81.3252 910.368C82.1655 911.626 83.6569 911.885 84.9159 911.045C102.818 899.225 124.271 894.692 145.149 898.317C145.424 898.259 145.757 898.476 146.032 898.418C147.133 898.185 147.842 897.461 147.884 896.304C148.477 895.031 147.579 893.498 146.087 893.239Z" fill="white"/>
<path d="M154.913 935.005C132.543 931.121 109.715 935.944 90.829 948.547C89.57 949.387 89.3102 950.877 90.1506 952.134C90.991 953.392 92.4823 953.651 93.7414 952.811C111.643 940.991 133.096 936.458 153.975 940.083C154.25 940.025 154.583 940.242 154.858 940.184C155.958 939.951 156.667 939.227 156.71 938.07C157.245 936.522 156.404 935.264 154.913 935.005Z" fill="white"/>
<path d="M150.5 914.122C128.13 910.238 105.302 915.062 86.4163 927.664C85.1572 928.504 84.8975 929.994 85.7379 931.252C86.5783 932.509 88.0696 932.768 89.3286 931.928C107.231 920.108 128.684 915.575 149.562 919.2C149.837 919.142 150.17 919.359 150.445 919.301C151.545 919.068 152.254 918.344 152.297 917.187C152.89 915.914 151.991 914.381 150.5 914.122Z" fill="white"/>
</g>
<g opacity="0.16">
<path d="M369.577 81.2246C365.126 76.9127 360.518 72.4534 357.201 63.8591C356.57 62.2228 354.834 61.272 353.128 61.5889C351.391 61.9059 350.137 63.4095 350.137 65.1564V140.19C345.975 137.847 340.558 137.117 334.815 138.245C322.921 140.588 313.61 149.905 313.61 159.458C313.61 163.615 315.405 167.374 318.655 170.027C321.853 172.636 326.171 174 330.957 174C332.664 174 334.43 173.823 336.225 173.469C348.119 171.125 357.431 161.809 357.431 152.256C357.431 152.249 357.431 152.234 357.431 152.227V78.9323C359.761 81.8732 362.187 84.2171 364.465 86.4283C370.742 92.5018 375.691 97.3001 375.691 112.329H383C383.015 94.2339 376.181 87.6224 369.577 81.2246ZM334.823 166.364C330.2 167.27 325.904 166.548 323.3 164.425C321.719 163.143 320.918 161.47 320.918 159.465C320.918 153.458 327.937 147.008 336.24 145.365C337.553 145.107 338.837 144.981 340.069 144.981C343.163 144.981 345.901 145.785 347.763 147.303C349.343 148.586 350.145 150.259 350.145 152.264C350.145 158.271 343.126 164.728 334.823 166.364Z" fill="white"/>
<path d="M324.576 105.099C324.576 105.091 324.576 105.077 324.576 105.069V21.6251C324.576 20.4605 324.012 19.3623 323.063 18.6842C322.105 17.9987 320.881 17.8218 319.768 18.183L254.021 39.9487C252.53 40.4426 251.528 41.8283 251.528 43.3909V114.799C247.365 112.455 241.949 111.725 236.206 112.853C224.312 115.197 215 124.513 215 134.066C215 138.223 216.796 141.982 220.045 144.635C223.243 147.244 227.562 148.608 232.348 148.608C234.054 148.608 235.82 148.431 237.616 148.077C249.51 145.733 258.822 136.417 258.822 126.864C258.822 126.857 258.822 126.842 258.822 126.835V67.7806L317.26 48.4324V93.0327C313.098 90.6889 307.681 89.9592 301.938 91.0869C290.044 93.4308 280.732 102.747 280.732 112.3C280.732 116.457 282.528 120.216 285.778 122.869C288.976 125.479 293.294 126.842 298.08 126.842C299.786 126.842 301.552 126.665 303.348 126.312C315.264 123.975 324.576 114.651 324.576 105.099ZM236.206 140.965C231.583 141.871 227.287 141.149 224.683 139.026C223.102 137.744 222.301 136.07 222.301 134.066C222.301 128.058 229.32 121.609 237.623 119.965C238.936 119.707 240.22 119.582 241.452 119.582C244.546 119.582 247.284 120.386 249.146 121.904C250.727 123.186 251.528 124.86 251.528 126.864C251.528 132.872 244.509 139.328 236.206 140.965ZM301.953 119.199C297.331 120.105 293.034 119.383 290.43 117.26C288.85 115.978 288.048 114.305 288.048 112.3C288.048 106.293 295.067 99.8433 303.37 98.1996C304.684 97.9417 305.967 97.8164 307.199 97.8164C310.293 97.8164 313.031 98.6198 314.893 100.138C316.474 101.421 317.275 103.094 317.275 105.099C317.268 111.106 310.256 117.563 301.953 119.199ZM317.268 40.7742L258.829 60.1298V46.0075L317.268 26.6593V40.7742Z" fill="white"/>
</g>
<g opacity="0.14">
<path d="M31.1431 277.813C31.4683 277.8 31.7843 277.702 32.0592 277.528C32.3341 277.354 32.558 277.109 32.7083 276.82C32.8586 276.531 32.9299 276.206 32.915 275.88C32.9002 275.554 32.7996 275.237 32.6235 274.962C29.9493 271.252 26.0427 268.622 21.6098 267.549C17.1769 266.475 12.5103 267.029 8.45361 269.109C4.1481 270.608 0.522494 273.606 -1.76647 277.561C-4.05544 281.516 -4.85639 286.165 -4.02425 290.666C-3.94757 290.984 -3.7885 291.276 -3.56321 291.512C-3.33792 291.748 -3.05443 291.921 -2.74154 292.012C-2.42864 292.103 -2.09749 292.109 -1.78172 292.03C-1.46595 291.951 -1.17681 291.789 -0.943662 291.561C3.4506 287.553 8.47081 284.296 13.9174 281.919C19.3979 279.621 25.2158 278.234 31.1431 277.813ZM12.4652 278.51C7.75479 280.565 3.33541 283.233 -0.678941 286.447C-0.512885 283.325 0.585389 280.326 2.47305 277.842C4.36072 275.357 6.95043 273.501 9.90541 272.516C11.2407 271.935 12.6297 271.487 14.0526 271.179C16.3553 270.62 18.7592 270.628 21.0603 271.201C23.3614 271.774 25.4918 272.895 27.271 274.47C22.1791 275.157 17.201 276.516 12.4652 278.51V278.51ZM189.088 241.88C188.37 241.456 187.56 241.217 186.729 241.183C185.898 241.149 185.072 241.322 184.325 241.686C182.843 242.41 181.246 243.12 179.555 243.816C154.603 254.239 127.006 256.53 100.66 250.365C97.402 237.881 93.1948 225.666 88.0753 213.826L83.6239 205.716C83.216 204.975 82.634 204.345 81.9287 203.881C81.2234 203.417 80.4161 203.133 79.577 203.053C78.7579 202.971 77.9317 203.093 77.1708 203.407C76.41 203.72 75.7377 204.217 75.2128 204.852C74.1473 206.16 73.0082 207.446 71.7596 208.798C59.4344 222.281 44.389 232.974 27.6217 240.167C10.8545 247.36 -7.25108 250.889 -25.4933 250.519C-27.349 250.457 -29.1301 250.381 -30.7636 250.275C-31.5895 250.215 -32.417 250.36 -33.1737 250.695C-33.9305 251.031 -34.5934 251.548 -35.1044 252.201C-35.6231 252.865 -35.9723 253.645 -36.1215 254.475C-36.2707 255.306 -36.2155 256.16 -35.9606 256.965L-33.1254 265.939C-12.8701 313.452 15.5694 345.402 44.8976 353.598C52.318 355.807 60.1577 356.183 67.7477 354.692C72.7153 353.625 77.4375 351.63 81.6688 348.812C95.1164 369.164 113.95 378.717 132.777 374.743C133.613 374.566 134.451 374.364 135.284 374.134C160.35 367.237 190.327 331.995 192.315 255.183L191.626 245.986C191.57 245.146 191.31 244.332 190.867 243.616C190.424 242.9 189.813 242.304 189.086 241.881L189.088 241.88ZM45.8803 350.03C17.6401 342.137 -9.92111 310.958 -29.6725 264.66L-32.4441 255.857C-32.5196 255.628 -32.5373 255.384 -32.4955 255.146C-32.4537 254.909 -32.3538 254.685 -32.2048 254.496C-32.008 254.242 -31.7284 254.066 -31.415 253.998C-31.2801 253.97 -31.1421 253.961 -31.0047 253.971C-29.3305 254.08 -27.5076 254.159 -25.5888 254.223C-6.82058 254.606 11.8075 250.978 29.0592 243.58C46.3109 236.182 61.7917 225.183 74.474 211.312C75.7697 209.907 76.9604 208.564 78.0632 207.21C78.2037 207.04 78.3842 206.908 78.5883 206.826C78.7925 206.745 79.0139 206.715 79.2325 206.741C79.4733 206.763 79.7051 206.843 79.9077 206.976C80.1103 207.109 80.2774 207.289 80.3944 207.502L84.7649 215.444C89.5105 226.45 93.4672 237.78 96.6049 249.349C95.9146 249.165 95.2196 248.989 94.531 248.794C93.6719 248.552 92.8119 248.306 91.9578 248.043C90.687 247.653 89.4244 247.231 88.1652 246.799C87.3605 246.522 86.5525 246.257 85.7525 245.965C84.3747 245.461 83.0122 244.915 81.6534 244.363C80.9939 244.095 80.3275 243.847 79.6741 243.568C77.6691 242.713 75.6856 241.808 73.7237 240.854C72.2266 240.153 70.8114 239.405 69.4663 238.694L69.056 238.478C68.3326 238.083 67.5246 237.87 66.7017 237.857C65.8787 237.844 65.0654 238.033 64.3315 238.405C63.5826 238.79 62.9383 239.351 62.4543 240.042C61.9702 240.732 61.6608 241.531 61.5528 242.369L61.0271 246.627C56.911 248.24 53.4836 251.24 51.3318 255.113C49.18 258.986 48.4374 263.492 49.2313 267.859C49.3081 268.176 49.4672 268.468 49.6922 268.704C49.9173 268.941 50.2005 269.113 50.5131 269.204C50.8257 269.296 51.1566 269.302 51.4723 269.224C51.7881 269.146 52.0775 268.985 52.3112 268.758C54.8045 266.477 57.5054 264.437 60.3785 262.662C60.4386 276.576 61.8028 290.455 64.4533 304.117C61.8921 305.554 59.2593 306.859 56.565 308.027C47.0236 312.036 36.8923 314.455 26.5697 315.191C26.2444 315.202 25.9281 315.301 25.6531 315.475C25.378 315.65 25.1541 315.894 25.0039 316.184C24.8537 316.474 24.7827 316.798 24.798 317.125C24.8134 317.451 24.9146 317.768 25.0913 318.043C28.6296 322.954 33.5244 326.717 39.1687 328.865C44.813 331.013 50.9585 331.452 56.8432 330.128C59.6009 329.533 62.2934 328.668 64.8822 327.545C66.6712 326.766 68.4063 325.868 70.0761 324.857C70.5941 326.33 71.1101 327.807 71.6659 329.225C71.9374 329.919 72.2347 330.572 72.5156 331.253C73.0916 332.65 73.6664 334.048 74.2772 335.387C74.6387 336.177 75.0231 336.923 75.3969 337.693C75.9643 338.863 76.5287 340.033 77.1244 341.156C77.5448 341.947 77.9864 342.697 78.4184 343.461C78.8464 344.218 79.2555 345.012 79.6975 345.744C74.7206 348.899 69.1127 350.918 63.2695 351.659C57.4264 352.399 51.4903 351.843 45.8803 350.03V350.03ZM60.4806 251.024L60.3949 251.734C60.3465 253.982 60.3183 256.197 60.3104 258.379C57.6022 259.936 55.0161 261.696 52.5746 263.647C52.6777 261.031 53.4619 258.489 54.849 256.274C56.2362 254.059 58.1778 252.249 60.4806 251.024ZM68.8526 321.32C67.1181 322.396 65.3039 323.338 63.4259 324.137C45.5194 331.795 34.5544 323.255 30.2584 318.612C39.8124 317.581 49.1642 315.162 58.0214 311.432C60.4812 310.374 62.8989 309.206 65.2354 307.943C65.6392 309.724 66.0918 311.479 66.5478 313.231C66.6506 313.625 66.7373 314.027 66.8431 314.419C67.4694 316.754 68.1363 319.06 68.8526 321.32ZM187.944 246.248L188.629 255.264C186.689 329.865 158.151 363.998 134.3 370.56C115.816 375.666 96.9188 366.196 83.7447 345.282C79.1612 337.829 75.484 329.851 72.7919 321.522C70.9985 316.01 69.5021 310.405 68.309 304.733C65.3152 289.833 63.8703 274.665 63.9975 259.471C63.9967 256.965 64.0272 254.415 64.0698 252.006L65.2108 242.854C65.2387 242.612 65.3258 242.381 65.4642 242.182C65.6027 241.982 65.7882 241.82 66.0043 241.71C66.1497 241.645 66.304 241.602 66.4621 241.582C66.5074 241.578 66.5528 241.576 66.5982 241.577C66.8496 241.564 67.0997 241.621 67.32 241.744L67.7514 241.972C69.1456 242.708 70.6151 243.484 72.1384 244.197C74.258 245.235 76.4056 246.214 78.5811 247.135C82.9349 248.976 87.3861 250.575 91.9145 251.924C93.3669 252.356 94.838 252.719 96.3043 253.1C97.1215 253.312 97.9304 253.559 98.7514 253.756L98.7604 253.758C126.174 260.397 154.967 258.114 180.974 247.239C182.725 246.518 184.396 245.776 185.943 245.02C186.146 244.923 186.37 244.877 186.594 244.887C186.819 244.898 187.038 244.963 187.231 245.079C187.435 245.196 187.607 245.362 187.731 245.562C187.855 245.762 187.928 245.99 187.943 246.225L187.944 246.248ZM96.4691 289.064C98.4599 289.132 100.451 288.964 102.402 288.565C105.854 287.851 109.033 286.177 111.578 283.733C114.122 281.288 115.929 278.173 116.791 274.744C116.853 274.424 116.83 274.093 116.724 273.785C116.619 273.476 116.433 273.201 116.188 272.987C115.942 272.773 115.645 272.628 115.326 272.566C115.007 272.505 114.677 272.528 114.371 272.635C108.69 274.412 102.761 275.264 96.8087 275.159C90.8697 274.935 85.0036 273.754 79.435 271.662C79.1342 271.537 78.8061 271.494 78.4839 271.538C78.1617 271.582 77.8569 271.71 77.6003 271.91C77.3438 272.11 77.1446 272.375 77.023 272.678C76.9013 272.98 76.8616 273.31 76.9078 273.633C77.7996 278.123 80.2621 282.147 83.85 284.977C87.4378 287.807 91.914 289.257 96.4691 289.064V289.064ZM96.7143 278.861C101.861 278.959 106.997 278.387 111.994 277.159C110.538 279.921 108.289 282.18 105.538 283.642C102.787 285.105 99.66 285.704 96.5628 285.362C93.4508 285.537 90.3569 284.767 87.6835 283.154C85.0101 281.54 82.881 279.157 81.5729 276.315C86.4898 277.819 91.5796 278.675 96.7143 278.861V278.861ZM154.934 323.12C135.113 329.579 113.669 328.988 94.2074 321.447C93.9066 321.321 93.578 321.277 93.255 321.32C92.9321 321.362 92.6263 321.49 92.3687 321.69C92.1111 321.889 91.9109 322.154 91.7883 322.457C91.6658 322.76 91.6254 323.09 91.6711 323.414C91.7066 323.66 95.4711 347.951 123.889 348.736C127.186 348.849 130.485 348.572 133.717 347.912C139.388 346.749 144.615 344.003 148.797 339.99C152.979 335.977 155.946 330.859 157.359 325.225C157.422 324.905 157.399 324.573 157.293 324.264C157.187 323.955 157.001 323.679 156.754 323.465C156.508 323.251 156.209 323.107 155.889 323.046C155.569 322.986 155.239 323.011 154.932 323.12L154.934 323.12ZM123.986 345.033C104.511 344.495 98.1033 332.124 96.1325 326.102C114.426 332.416 134.197 332.959 152.788 327.657C150.541 333.558 143.549 345.572 123.986 345.033V345.033ZM172.247 274.236C160.855 277.923 148.542 277.576 137.36 273.253C137.059 273.127 136.731 273.083 136.408 273.126C136.085 273.169 135.779 273.297 135.521 273.497C135.264 273.697 135.064 273.962 134.941 274.265C134.819 274.568 134.779 274.898 134.825 275.222C135.714 279.711 138.17 283.736 141.751 286.573C145.331 289.411 149.8 290.874 154.355 290.699L154.358 290.698C156.345 290.765 158.332 290.598 160.279 290.2C163.735 289.483 166.919 287.802 169.464 285.351C172.01 282.899 173.815 279.776 174.672 276.34C174.735 276.019 174.712 275.688 174.606 275.379C174.499 275.07 174.313 274.794 174.067 274.58C173.82 274.367 173.522 274.222 173.202 274.161C172.882 274.101 172.552 274.126 172.245 274.235L172.247 274.236ZM154.456 286.998C151.346 287.159 148.257 286.38 145.59 284.761C142.923 283.142 140.8 280.758 139.495 277.917C149.365 281.012 159.892 281.305 169.908 278.764C168.463 281.542 166.215 283.815 163.457 285.285C160.699 286.754 157.562 287.351 154.457 286.996L154.456 286.998Z" fill="white"/>
</g>
<g opacity="0.12">
<path d="M325.475 518.41C325.824 518.04 326.092 517.587 326.151 517.041C326.963 509.688 316.792 499.16 306.049 507.288C303.524 509.201 306.438 513.047 308.963 511.13C312.746 508.273 316.638 508.428 319.748 512.246C317.291 511.056 311.978 509.788 307.007 513.925C305.849 514.895 305.847 516.677 307.018 517.636C313.813 523.222 317.731 522.972 323.183 521.61C323.185 521.613 326.261 521.141 325.475 518.41ZM313.15 516.09C315.227 515.607 317.502 516.161 319.118 517.555C317.245 517.802 315.447 517.435 313.15 516.09ZM430.92 670.939C411.609 642.83 410.174 595.011 414.029 559.766C415.128 547.872 416.582 536.98 417.781 528.005C422.748 490.787 402.501 458.342 369.644 450.851C343.706 444.938 317.309 457.017 306.265 478.039C288.307 487.518 282.74 503.072 285.453 512.118C272.193 533.236 265.747 561.531 273.418 590.7C267.52 605.128 260.899 617.316 253.465 625.107C248.001 626.727 242.7 628.935 237.71 631.764C234.636 633.5 237.624 637.36 240.093 635.955C248.087 631.426 256.901 628.527 265.946 627.368C258.277 633.494 251.292 640.558 245.441 648.358C243.418 651.05 247.485 653.665 249.302 651.25C251.265 648.637 253.365 646.107 255.573 643.669C256.451 663.524 293.26 681.74 327.206 688.258L327.208 688.259C327.208 688.259 327.21 688.259 327.213 688.26C327.913 688.357 328.487 688.283 328.998 687.97C365.207 666.006 409.619 658.333 427.28 674.139C429.411 676.673 433.047 673.205 430.92 670.939ZM356.735 454.238C392.09 454.258 420.55 487.998 412.09 534.216C401.943 490.076 358.309 472.127 344.825 468.166C346.629 463.274 350.868 456.905 356.735 454.238ZM350.261 475.131C347.343 474.393 337.448 471.553 330.496 471.831C334.544 471.47 340.731 471.063 350.261 475.131ZM347.63 454.993C343.876 458.846 341.297 463.562 340.038 467.252C332.059 466.205 324.041 467.298 318.095 470.12C325.734 462.314 336.24 456.906 347.63 454.993ZM290.135 513.709C290.63 512.951 290.5 511.845 290.285 511.364C288.606 507.845 290.312 495.046 304.186 485.056C302.403 490.147 287.489 553.242 276.573 582.616C272.024 557.946 277.434 533.407 290.135 513.709ZM261.394 623.211C275.846 604.294 286.767 570.997 295.462 537.637C294.644 562.227 302.692 581.264 314.094 589.079C312.903 595.225 312.91 600.892 313.194 604.909C299.488 607.475 285.642 613.476 273.165 622.005C269.215 622.091 265.278 622.502 261.394 623.211ZM343.578 674.83C338.02 677.365 332.578 680.225 327.338 683.357C306.811 678.678 295.335 674.261 284.939 668.72C285.713 668.085 286.805 667.453 288.33 667.161C291.479 666.568 290.572 661.812 287.425 662.428C284.02 663.073 281.858 664.819 280.57 666.271C266.8 658.068 258.804 648.72 260.589 640.89C262.811 631.145 295.544 612.238 313.732 609.708C314.348 612.672 319.145 612.036 318.454 608.722C317.973 606.448 317.191 599.935 318.561 591.494C324.718 593.961 348.552 597.349 373.445 581.717C376.137 580.026 373.567 575.944 370.879 577.641C358.601 585.351 338.94 591.475 322.707 587.775C290.914 580.527 297.578 507.104 313.82 479.996C330.536 471.393 370.791 483.763 375.541 491.995C375.55 492.009 375.568 492.018 375.58 492.033C398.083 534.159 350.863 670.516 343.6 674.81C343.596 674.814 343.588 674.827 343.578 674.83ZM351.543 671.467C369.194 638.311 396.717 532.357 381.637 493.809C397.099 507.139 410.953 527.835 409.273 558.846C406.146 592.36 405.745 634.048 421.536 664.6C407.909 658.346 380.936 659.814 351.543 671.467ZM367.307 522.067C366.713 521.764 365.792 520.655 365.218 520.06C351.393 505.73 338.667 516.781 337.761 517.578C335.143 519.875 338.722 523.15 340.944 521.195C344.253 518.287 352.301 513.62 362.175 523.84C363.545 525.259 364.627 526.377 366.048 526.701C369.138 527.405 370.401 523.276 367.307 522.067ZM341.397 521.715C340.17 522.684 340.171 524.542 341.396 525.505C349.615 532.8 357.068 529.865 358.956 529.508C360.328 529.202 361.34 527.622 360.599 526.095C357.035 518.799 347.737 516.739 341.397 521.715ZM347.704 523.965C349.924 523.519 352.381 524.117 354.137 525.536C352.132 525.75 350.17 525.356 347.704 523.965ZM336.125 561.429C329.913 561.875 327.646 558.12 320.666 559.143C318.543 558.659 317.363 556.128 311.981 556.029C308.936 555.49 308.1 560.166 311.141 560.777C312.001 560.973 312.884 560.869 313.749 561.066C315.11 561.377 317.365 563.354 319.942 563.942C321.101 564.206 322.948 563.471 324.596 563.847C325.399 564.03 327.97 564.995 327.732 565.011C323.226 565.322 317.791 563.92 315.944 562.461C313.482 560.516 310.486 564.295 312.954 566.241C315.95 568.609 322.788 570.188 328.062 569.82C330.414 569.662 331.323 566.291 328.828 565.223C331.39 565.987 334.448 566.644 337.01 566.172C340.138 565.589 339.252 560.853 336.125 561.429ZM316.919 537.328L313.43 544.04C312.856 545.308 313 547.383 314.943 547.956C318.593 557.824 329.496 551.541 330.228 551.857C332.129 554.381 336.082 551.631 334.19 549.1C331.823 545.946 328.665 547.119 326.566 547.896C319.213 550.358 320.427 546.734 318.678 544.902L321.282 539.389C322.673 536.443 318.312 534.387 316.919 537.328Z" fill="white"/>
</g>
<path d="M52.0032 519C52.0032 583 50.0032 629.5 145.503 611.5C241.003 593.5 360.003 611.5 360.003 699.5" stroke="white"/>
<path d="M48.0032 962C48.0032 901.368 133.551 877.947 227.5 895C321.449 912.053 351 874.368 351 791" stroke="white"/>
<path d="M56.4877 417C56.4877 367.5 32.9877 272 107.988 291C182.988 310 261.988 317.5 297.988 298C333.988 278.5 354.988 252.5 354.988 226" stroke="white"/>
<path d="M359 1287.5C357.456 1229.66 337.707 1144.36 258.138 1168.7C178.568 1193.04 149.254 1182.77 110.168 1161.02C71.0824 1139.26 47.8264 1109.48 47 1078.51" stroke="white"/>
</svg>
