<svg width="173" height="98" viewBox="0 0 173 98" fill="none" xmlns="http://www.w3.org/2000/svg">
<path d="M77.6251 11.455C77.4397 11.4679 77.2788 11.4827 77.1422 11.4994C75.7311 11.6717 74.1963 12.3691 73.4196 13.1972C73.1261 13.5099 72.5035 14.1686 72.6662 16.5186C70.0261 16.841 67.6689 17.158 66.8594 17.286C65.1315 17.5699 63.4154 18.5613 63.0098 19.4995C62.9064 19.7452 62.7109 20.2013 63.1702 21.641C62.4015 21.8174 61.612 22.1372 60.9708 22.5409C60 23.1547 59.5125 23.8602 59.6961 24.3816C59.6994 24.391 59.6994 24.391 59.7026 24.4003C60.6217 26.8084 61.8516 28.7513 63.0771 30.277C60.5164 29.8807 58.3642 29.6336 56.8194 29.696C55.7885 29.7345 54.5682 30.1118 53.6299 30.6828C52.6915 31.2539 52.1453 31.9276 52.2168 32.4677C52.3447 33.4379 52.5094 34.1754 52.7192 34.7713C53.8928 38.1051 57.0665 38.4217 64.72 39.1916C65.8766 39.3078 67.134 39.4407 68.5135 39.5831C69.7221 39.7123 70.9453 39.8154 72.162 39.9C63.6883 41.8574 53.4579 44.2868 50.977 45.1288C50.0656 45.4392 49.2375 45.9191 48.7299 46.4327C48.2937 46.8794 48.1161 47.3187 48.2374 47.6632C48.257 47.7191 48.2767 47.775 48.3142 47.8141C48.453 48.006 48.7502 48.4456 50.7921 49.3909C50.5485 49.5081 50.326 49.6178 50.149 49.722C48.9995 50.3674 48.4016 51.164 48.5983 51.7227C48.6212 51.7879 48.6442 51.8531 48.6883 51.9108C49.1861 52.5833 52.8566 54.3787 55.8381 55.7677C58.8229 57.1661 62.6492 58.8647 63.9719 59.048C64.6226 59.1433 65.4875 59.0377 66.3421 58.7682C68.0389 60.149 71.6184 62.5625 77.0171 63.6029C77.7054 63.7374 78.6857 63.6226 79.6394 63.2973C80.2763 63.0835 80.8626 62.7934 81.3203 62.4753C82.8644 63.3551 84.6168 64.2872 85.5429 64.5577C86.3094 64.7798 87.4995 64.6539 88.6724 64.2096C89.215 63.9976 89.7167 63.7372 90.1144 63.4507C93.5995 64.652 98.4618 65.787 102.048 64.577C103.237 64.1793 104.247 63.5412 104.708 62.8972C104.773 62.8116 104.817 62.7334 104.86 62.6552C105.08 62.201 105.147 61.581 105.281 55.4215L105.292 55.3861C105.406 50.7199 105.575 43.0409 106.139 41.2723C106.235 41.2072 106.328 41.1328 106.42 41.0584C106.537 40.9858 106.675 40.9058 106.792 40.8333C108.271 39.8417 111.749 37.5181 111.629 34.0752C111.627 34.0025 111.604 33.9373 111.585 33.8815C110.791 31.6279 108.323 31.0213 107.017 30.6853C106.889 30.6573 106.785 30.6312 106.702 30.5976C106.539 29.3257 107.15 24.118 107.652 19.8803C108.451 13.0471 108.758 9.87247 108.489 9.10888C108.44 8.96919 108.352 8.8537 108.246 8.75495C108.215 8.73445 108.181 8.70464 108.15 8.68414C107.61 8.29837 106.74 8.18612 102.938 8.31044C100.943 8.3744 98.1887 8.50681 94.979 8.69479C89.2833 9.03583 83.061 9.49943 81.3979 9.69767C80.3965 9.81996 79.3015 10.2159 78.4721 10.7591C78.1035 10.9935 77.8294 11.2261 77.6251 11.455Z" fill="white"/>
<path d="M171.35 56.5325C171.495 56.284 171.612 56.0666 171.699 55.8802C172.6 53.9544 172.164 51.6247 170.624 50.2269C170.043 49.6989 168.822 48.5807 162.139 47.7109C163.824 44.1078 165.248 40.8773 165.684 39.7591C166.585 37.3674 165.51 34.665 163.301 33.7021C162.72 33.4536 161.645 32.9876 157.199 32.9255C157.461 31.8384 157.345 30.658 156.851 29.633C156.095 28.0799 154.613 27.117 152.986 27.117C152.957 27.117 152.957 27.117 152.928 27.117C145.344 27.2101 138.749 27.9246 133.315 28.8254C136.918 25.657 139.707 22.9547 141.044 20.9046C141.945 19.5379 142.09 17.7673 141.422 16.2764C140.753 14.7854 139.417 13.7604 137.848 13.6051C135.029 13.3255 132.821 13.2013 130.961 13.2013C120.559 13.2013 116.578 17.2082 106.961 26.8685C105.508 28.3284 103.91 29.9125 102.166 31.652C100.626 33.174 99.1443 34.7271 97.7205 36.2802C100.568 24.2903 103.822 9.78447 103.91 6.15023C103.939 4.81458 103.416 3.50997 102.486 2.60918C101.672 1.83264 100.626 1.39778 99.5511 1.39778C99.3768 1.39778 99.2024 1.39777 99.0571 1.42884C98.3888 1.52202 96.8779 1.70838 92.2579 3.94483C92.1707 3.57209 92.0835 3.23043 91.9673 2.95087C91.299 1.14929 89.6719 0 87.9285 0C87.7251 0 87.5217 -7.58391e-06 87.3183 0.0310542C84.9647 0.372734 76.393 4.34865 69.6228 7.61014C62.8235 10.8716 54.368 15.096 52.5665 16.7423C51.6657 17.5499 51.1137 18.7303 51.0265 19.9727C45.5348 21.5569 35.3359 25.129 27.171 31.7141C26.1249 32.5528 25.4857 33.8884 25.4566 35.2862C25.4276 36.2181 25.66 37.1188 26.0959 37.8643C22.1442 39.4795 17.8438 41.3433 16.1876 42.4304C14.8219 43.3312 14.0083 44.9464 14.0955 46.6859C14.1536 47.4935 14.3861 48.2701 14.7929 48.9223C8.05171 52.9293 0.148301 58.7689 0.00301788 64.0184C-0.0550954 65.7578 0.729434 67.373 2.06604 68.2738C2.24038 68.3981 2.41472 68.4913 2.58906 68.5844C3.6351 69.0814 5.29133 69.4542 22.2604 72.4672L22.3476 72.4983C35.1906 74.7968 56.3439 78.5553 60.7024 80.1084C60.7895 80.2637 60.9058 80.419 61.022 80.5743C61.1092 80.7607 61.1963 80.9781 61.2835 81.1645C62.591 83.5562 65.642 89.1784 75.3179 90.6073C75.5213 90.6383 75.7246 90.6383 75.899 90.6383C82.9307 90.6383 87.0277 87.6875 89.236 86.1344C89.4394 85.9791 89.6137 85.8548 89.7881 85.7616C93.4783 86.1344 107.338 89.3338 118.612 91.9429C136.802 96.1363 145.315 98 147.698 98C148.134 98 148.541 97.9379 148.918 97.8447C149.006 97.8136 149.122 97.7826 149.209 97.7515C150.807 97.2234 151.969 96.1363 155.34 91.1043C157.112 88.464 159.437 84.7987 162.052 80.5122C166.672 72.902 171.466 64.5464 172.541 62.2789C173.181 60.9122 173.152 59.297 172.454 57.9613C172.164 57.3712 171.786 56.9052 171.35 56.5325Z" fill="white"/>
<path d="M164.512 54.8796C164.643 54.6691 164.748 54.485 164.827 54.3271C165.639 52.696 165.246 50.723 163.857 49.5391C163.333 49.0919 162.233 48.1448 156.206 47.4082C157.726 44.3566 159.01 41.6206 159.403 40.6735C160.215 38.6479 159.246 36.3591 157.254 35.5436C156.73 35.3331 155.761 34.9385 151.752 34.8859C151.988 33.9651 151.883 32.9654 151.438 32.0973C150.757 30.7819 149.42 29.9664 147.953 29.9664C147.927 29.9664 147.927 29.9664 147.901 29.9664C141.062 30.0453 135.114 30.6504 130.215 31.4133C133.464 28.7299 135.979 26.4412 137.184 24.7049C137.996 23.5474 138.127 22.0479 137.525 20.7851C136.922 19.5223 135.717 18.6542 134.302 18.5227C131.761 18.2859 129.769 18.1807 128.092 18.1807C118.712 18.1807 115.123 21.5743 106.45 29.7559C105.14 30.9924 103.699 32.3341 102.127 33.8073C100.738 35.0963 99.4018 36.4117 98.1179 37.7271C100.686 27.5724 103.62 15.2868 103.699 12.2089C103.725 11.0777 103.253 9.97273 102.415 9.20982C101.681 8.55213 100.738 8.18384 99.7686 8.18384C99.6114 8.18384 99.4542 8.18383 99.3232 8.21014C98.7206 8.28906 97.3581 8.4469 93.1921 10.341C93.1135 10.0253 93.0349 9.73597 92.9301 9.49921C92.3274 7.97338 90.8602 7 89.2881 7C89.1047 7 88.9213 6.99999 88.7379 7.0263C86.6155 7.31568 78.8861 10.683 72.7812 13.4453C66.6501 16.2076 59.0255 19.7854 57.401 21.1797C56.5888 21.8637 56.0909 22.8634 56.0123 23.9157C51.0603 25.2574 41.8636 28.2827 34.501 33.8599C33.5578 34.5702 32.9813 35.7014 32.9551 36.8853C32.9289 37.6745 33.1385 38.4374 33.5316 39.0688C29.9682 40.4368 26.0904 42.0152 24.5969 42.936C23.3654 43.6989 22.6318 45.0669 22.7104 46.5401C22.7628 47.2241 22.9724 47.8818 23.3392 48.4342C17.2605 51.8279 10.1337 56.7737 10.0027 61.2196C9.95032 62.6929 10.6578 64.0608 11.863 64.8238C12.0202 64.929 12.1774 65.0079 12.3346 65.0868C13.2779 65.5077 14.7714 65.8234 30.073 68.3753L30.1516 68.4016C41.7326 70.3483 60.8072 73.5315 64.7374 74.8469C64.816 74.9785 64.9208 75.11 65.0256 75.2415C65.1042 75.3994 65.1828 75.5835 65.2614 75.7413C66.4405 77.767 69.1916 82.5287 77.9167 83.7388C78.1001 83.7651 78.2835 83.7651 78.4407 83.7651C84.7814 83.7651 88.4758 81.2659 90.4671 79.9505C90.6506 79.819 90.8078 79.7138 90.965 79.6349C94.2925 79.9505 106.791 82.6602 116.957 84.87C133.359 88.4216 141.036 90 143.184 90C143.577 90 143.944 89.9474 144.285 89.8685C144.363 89.8422 144.468 89.8158 144.547 89.7895C145.988 89.3423 147.036 88.4215 150.075 84.1597C151.674 81.9236 153.77 78.8193 156.128 75.1889C160.294 68.7436 164.617 61.6669 165.586 59.7464C166.163 58.5889 166.137 57.2209 165.508 56.0897C165.246 55.5899 164.905 55.1952 164.512 54.8796Z" fill="#4C6270"/>
<path d="M28.135 59.5759C22.3385 58.7855 21.1791 58.601 20.863 58.1531C20.7839 58.0477 20.7312 57.8633 20.7576 57.7316C20.9157 56.8094 26.7385 52.6991 31.9291 49.1949C31.4548 49.0368 31.0069 48.8787 30.5853 48.7206C17.7539 54.8069 13.5119 59.734 13.4592 61.1831C13.4592 61.2885 13.4856 61.3149 13.4856 61.3149C14.1443 61.6047 22.0486 62.9221 30.4272 64.3449C50.2408 67.6647 65.4962 70.2731 66.998 71.4851C67.3406 71.7486 67.6304 72.1438 67.8939 72.6181C67.9202 72.5654 67.9729 72.5127 67.9993 72.46C66.7082 70.5102 65.2064 68.6923 63.5201 67.006C51.6109 62.7376 36.9352 60.7616 28.135 59.5759Z" fill="#88FF5F"/>
<path d="M89.0775 74.3833C88.7877 73.5402 88.3398 72.4599 87.6811 71.3533C87.6548 71.327 87.6021 71.3006 87.5757 71.2479C87.5494 71.2216 87.5494 71.1952 87.5494 71.1689C87.3386 70.8527 87.1278 70.5365 86.8643 70.2203C86.8116 70.1676 86.7853 70.1413 86.7589 70.0886C86.4955 69.7461 86.1793 69.4299 85.8631 69.1137C85.8104 69.061 85.7577 69.0083 85.7314 68.9557C84.3349 67.6646 82.4379 66.637 79.8821 66.4526C72.5311 65.873 69.0795 72.3545 68.4999 73.5665C69.7646 75.727 71.7934 78.757 78.354 79.6529C83.5445 79.6529 86.3637 77.7558 88.2344 76.4911C88.6823 76.175 89.0775 75.9378 89.4728 75.727C89.4201 75.4372 89.2883 75.0157 89.1302 74.4624C89.1039 74.4624 89.1039 74.436 89.0775 74.3833Z" fill="#88FF5F"/>
<path d="M159.057 58.1532C159.031 58.1532 159.005 58.1532 158.978 58.1532C157.951 59.6023 156.739 61.2886 155.316 63.2646C151.048 69.1929 146.173 75.938 145.067 78.0458C145.04 78.1248 143.855 80.865 142.274 81.7608C142.195 81.8135 142.116 81.8135 142.037 81.8135C142.01 81.8135 141.958 81.8135 141.931 81.8135C123.33 77.9667 95.0321 75.3056 90.2368 74.884C90.3159 75.1475 90.3686 75.3583 90.4213 75.5427C92.7926 75.5427 101.514 77.3607 117.928 80.8913C129.469 83.368 142.564 86.1873 143.697 85.9238C145.646 85.3178 160.823 61.1831 162.456 57.837C161.85 57.7316 160.322 57.8897 159.057 58.1532Z" fill="#88FF5F"/>
<path d="M143.17 79.4423C138.506 78.441 132.604 76.2805 126.333 73.9883C118.587 71.1427 110.551 68.2181 105.334 67.7702C97.219 67.1115 90.3949 70.3259 88.7086 71.1954C89.2619 72.1439 89.6571 73.0398 89.9206 73.8038C93.1087 74.0937 122.645 76.8075 141.958 80.7596C142.379 80.4962 142.801 79.9692 143.17 79.4423Z" fill="#D1D3D4"/>
<path d="M28.2667 58.6011C36.619 59.734 50.2672 61.552 61.9129 65.3725C53.1654 57.4154 40.9137 52.4357 33.0884 49.6165C28.9781 52.383 23.3397 56.3352 21.9696 57.6525C22.9708 57.8897 25.4475 58.2322 28.2667 58.6011Z" fill="#E6E7E8"/>
<path d="M72.1886 67.6911C72.2149 67.6647 72.2149 67.6647 72.2413 67.6647C74.2437 57.0992 74.0329 46.5601 73.8748 38.0761C73.7431 31.2784 73.6377 26.3777 74.7707 24.1908C75.4557 22.9524 82.8331 18.526 89.5518 15.1271C89.6045 13.5726 89.5518 11.4648 89.2356 10.7007C86.5482 11.0696 61.8075 22.1883 59.6997 23.9536C59.8314 24.5333 60.6746 26.4567 61.5441 28.4855C65.2591 36.9695 72.8473 54.4118 72.1886 67.6911Z" fill="#D1D3D4"/>
<path d="M69.7118 70.0096C70.1334 69.509 70.6077 69.0084 71.161 68.5342C72.2149 55.3866 64.4159 37.4964 60.6745 28.8807C60.3057 28.0375 60.0158 27.3525 59.7524 26.7728C57.4601 27.2471 45.4718 30.0136 36.5399 36.785C36.9878 37.1539 38.3843 37.7072 39.6226 38.1814C46.1569 40.7108 61.3332 46.6128 69.7118 70.0096Z" fill="#E6E7E8"/>
<path d="M75.6138 24.6387C74.5862 26.6148 74.6916 31.6472 74.8234 38.0497C74.9814 45.9014 75.1922 56.5459 73.3215 66.927C75.0868 65.9257 77.2737 65.267 79.9348 65.4778C80.1983 65.5042 80.4354 65.5569 80.6726 65.5832C81.1468 64.7137 84.6511 58.4693 90.6057 50.7494C94.3735 36.6533 99.7221 15.4169 99.8011 11.86C98.2202 12.0444 94.3735 13.757 90.2105 15.8649C90.1842 15.8649 90.1841 15.8912 90.1578 15.8912C83.5708 19.2637 76.1671 23.6638 75.6138 24.6387Z" fill="#E6E7E8"/>
<path d="M64.0998 66.1365C64.1788 66.1892 64.2315 66.2419 64.2842 66.321C65.8914 67.9282 67.3405 69.6671 68.5789 71.5115C68.7106 71.3271 68.8424 71.1163 69.0005 70.9055C61.5967 49.6955 49.0025 43.0558 41.4933 39.9731C35.0117 42.2918 27.9505 45.0583 26.2379 46.0858C26.923 46.402 28.3984 46.929 29.953 47.4559C37.5675 50.1434 53.7714 55.8345 64.0998 66.1365Z" fill="#D1D3D4"/>
<path d="M145.119 60.9196C144.856 60.9196 144.434 60.8406 143.486 60.6298C139.297 59.734 128.178 57.31 111.104 59.6286C93.0824 62.0526 88.4979 68.5605 87.7601 69.8516C87.8919 70.036 88.0236 70.1941 88.129 70.3785C89.7889 69.4827 96.7974 66.0838 105.36 66.7952C110.709 67.2431 118.798 70.1941 126.623 73.066C133.026 75.4109 139.059 77.6242 143.67 78.5463C143.881 78.1511 144.065 77.8086 144.145 77.5715C145.304 75.3582 150.178 68.6132 154.473 62.6586C157.635 58.2848 161.192 53.3314 161.666 52.3829C160.902 51.7506 156.001 51.0392 151.443 50.6967C148.834 55.9135 146.042 60.9196 145.119 60.9196Z" fill="#E6E7E8"/>
<path d="M138.954 39.3145C138.322 39.5517 137.716 39.8151 137.162 40.0259C136.504 40.2894 135.292 40.711 133.632 41.2643C123.62 44.6632 97.1136 53.6478 86.7853 68.6661C86.8907 68.7714 87.0224 68.9032 87.1278 69.0086C88.4188 66.9798 93.6094 60.9725 110.999 58.6275C128.23 56.3089 139.481 58.7329 143.697 59.6551C144.276 59.7868 144.803 59.8922 145.04 59.9186C145.778 59.3652 148.123 55.0706 150.494 50.486C150.389 50.3806 150.336 50.2489 150.336 50.0908C150.363 49.8273 150.547 49.6165 150.863 49.6429C150.89 49.6429 150.916 49.6429 150.942 49.6429C153.366 44.9266 155.685 40.105 156.159 38.9457C154.71 38.3397 145.91 38.4451 139.323 39.3672C139.191 39.4199 139.059 39.3936 138.954 39.3145Z" fill="#D1D3D4"/>
<path d="M106.862 46.0067C102.093 49.6164 96.7184 53.7267 94.4788 55.7554C90.9482 58.9435 86.1529 65.5041 84.9409 67.1904C85.3361 67.4539 85.705 67.7174 86.0475 68.0335C96.6394 52.8308 123.224 43.7935 133.316 40.3683C134.949 39.815 136.161 39.4198 136.793 39.1299C137.61 38.7874 138.532 38.4185 139.481 38.0497C142.168 36.9958 147.464 34.8879 148.307 33.7286C128.995 33.9658 117.033 38.4185 116.242 38.7084C114.688 40.0785 110.894 42.9504 106.862 46.0067Z" fill="#E6E7E8"/>
<path d="M84.0978 66.6634C85.2308 65.0826 90.1315 58.3902 93.8202 55.0177C96.0861 52.9626 101.25 49.0367 106.256 45.2163C110.314 42.1336 114.161 39.209 115.636 37.8916C116.611 37.0221 118.508 35.5466 120.721 33.834C125.438 30.198 132.341 24.8494 134.185 22.2146C121.301 21.0553 119.562 22.7153 109.207 32.4113C107.89 33.6496 106.441 34.9933 104.834 36.4952C91.5016 48.7996 83.123 63.2119 81.6738 65.7676C82.596 65.9784 83.3864 66.2946 84.0978 66.6634Z" fill="#D1D3D4"/>
</svg>
