<svg width="42" height="29" viewBox="0 0 42 29" fill="none" xmlns="http://www.w3.org/2000/svg">
  <path d="M40.1358 1.39028H36.8902C31.6332 -0.463428 25.9192 -0.463428 20.6622 1.39028H20.4336C15.1766 -0.463428 9.46255 -0.463428 4.20558 1.39028H1.00568C0.457128 1.39028 0 1.85371 0 2.40983V26.8788C0 27.4349 0.457128 27.8057 1.00568 27.8057H18.6051C19.0622 28.2691 19.7479 28.5472 20.5708 28.5472C21.3936 28.5472 22.0793 28.2691 22.5364 27.8057H40.1358C40.6844 27.8057 41.1415 27.4349 41.1415 26.8788V2.40983C41.1415 1.85371 40.6844 1.39028 40.1358 1.39028ZM36.5702 25.3495C31.0847 23.5885 26.0563 23.5885 21.0279 25.3495V2.45617C26.0563 0.556113 31.0847 0.556113 36.5702 2.45617V25.3495ZM20.1136 25.3495C17.3709 24.469 14.9024 24.0056 12.3425 24.0056C9.78254 24.0056 7.31405 24.469 4.57128 25.3495V2.45617C10.0568 0.556113 15.0852 0.556113 20.1136 2.45617V25.3495ZM19.7936 26.4154H4.89127C9.73682 24.5617 14.9481 24.5617 19.7936 26.4154ZM36.2502 26.4154H21.3479C26.1477 24.5617 31.4047 24.5617 36.2502 26.4154ZM1.37138 2.78057H3.65702V26.4154H1.37138V2.78057ZM39.7701 26.4154H37.4845V2.78057H39.7701V26.4154Z" fill="#88FF5F"/>
  <path d="M17.6451 5.65385C14.2167 4.26357 10.4225 4.26357 6.99407 5.65385C6.7655 5.74654 6.67408 5.97825 6.7655 6.20996C6.85693 6.44168 7.08549 6.53436 7.31406 6.44168C10.5597 5.14408 14.1253 5.14408 17.3252 6.44168C17.3709 6.44168 17.4166 6.48802 17.4623 6.48802C17.6451 6.48802 17.7823 6.39534 17.828 6.20996C17.9651 6.02459 17.8737 5.74654 17.6451 5.65385Z" fill="#88FF5F"/>
  <path d="M17.6451 9.17585C14.2167 7.78557 10.4225 7.78557 6.99407 9.17585C6.7655 9.26854 6.67408 9.50025 6.7655 9.73196C6.85693 9.96368 7.08549 10.0564 7.31406 9.96368C10.5597 8.66608 14.1253 8.66608 17.3252 9.96368C17.3709 9.96368 17.4166 10.01 17.4623 10.01C17.6451 10.01 17.7823 9.91733 17.828 9.73196C17.9651 9.54659 17.8737 9.26854 17.6451 9.17585Z" fill="#88FF5F"/>
  <path d="M17.6451 12.6979C14.2167 11.3076 10.4225 11.3076 6.99407 12.6979C6.7655 12.7906 6.67408 13.0223 6.7655 13.254C6.85693 13.4857 7.08549 13.5784 7.31406 13.4857C10.5597 12.1881 14.1253 12.1881 17.3252 13.4857C17.3709 13.4857 17.4166 13.5321 17.4623 13.5321C17.6451 13.5321 17.7823 13.4394 17.828 13.254C17.9651 13.0687 17.8737 12.7906 17.6451 12.6979Z" fill="#88FF5F"/>
  <path d="M17.6451 19.742C14.2167 18.3518 10.4225 18.3518 6.99407 19.742C6.7655 19.8347 6.67408 20.0664 6.7655 20.2982C6.85693 20.5299 7.08549 20.6226 7.31406 20.5299C10.5597 19.2323 14.1253 19.2323 17.3252 20.5299C17.3709 20.5299 17.4166 20.5762 17.4623 20.5762C17.6451 20.5762 17.7823 20.4835 17.828 20.2982C17.9651 20.0664 17.8737 19.8347 17.6451 19.742Z" fill="#88FF5F"/>
  <path d="M17.6451 16.22C14.2167 14.8297 10.4225 14.8297 6.99407 16.22C6.7655 16.3127 6.67408 16.5444 6.7655 16.7761C6.85693 17.0078 7.08549 17.1005 7.31406 17.0078C10.5597 15.7102 14.1253 15.7102 17.3252 17.0078C17.3709 17.0078 17.4166 17.0542 17.4623 17.0542C17.6451 17.0542 17.7823 16.9615 17.828 16.7761C17.9651 16.5907 17.8737 16.3127 17.6451 16.22Z" fill="#88FF5F"/>
  <path d="M34.1017 5.65385C30.6732 4.26357 26.8791 4.26357 23.4506 5.65385C23.222 5.74654 23.1306 5.97825 23.222 6.20996C23.3135 6.44168 23.542 6.53436 23.7706 6.44168C27.0162 5.14408 30.5818 5.14408 33.7817 6.44168C33.8274 6.44168 33.8731 6.48802 33.9188 6.48802C34.1017 6.48802 34.2388 6.39534 34.2845 6.20996C34.4217 6.02459 34.3303 5.74654 34.1017 5.65385Z" fill="#88FF5F"/>
  <path d="M34.1017 9.17585C30.6732 7.78557 26.8791 7.78557 23.4506 9.17585C23.222 9.26854 23.1306 9.50025 23.222 9.73196C23.3135 9.96368 23.542 10.0564 23.7706 9.96368C27.0162 8.66608 30.5818 8.66608 33.7817 9.96368C33.8274 9.96368 33.8731 10.01 33.9188 10.01C34.1017 10.01 34.2388 9.91733 34.2845 9.73196C34.4217 9.54659 34.3303 9.26854 34.1017 9.17585Z" fill="#88FF5F"/>
  <path d="M34.1017 12.6979C30.6732 11.3076 26.8791 11.3076 23.4506 12.6979C23.222 12.7906 23.1306 13.0223 23.222 13.254C23.3135 13.4857 23.542 13.5784 23.7706 13.4857C27.0162 12.1881 30.5818 12.1881 33.7817 13.4857C33.8274 13.4857 33.8731 13.5321 33.9188 13.5321C34.1017 13.5321 34.2388 13.4394 34.2845 13.254C34.4217 13.0687 34.3303 12.7906 34.1017 12.6979Z" fill="#88FF5F"/>
  <path d="M34.1017 19.742C30.6732 18.3518 26.8791 18.3518 23.4506 19.742C23.222 19.8347 23.1306 20.0664 23.222 20.2982C23.3135 20.5299 23.542 20.6226 23.7706 20.5299C27.0162 19.2323 30.5818 19.2323 33.7817 20.5299C33.8274 20.5299 33.8731 20.5762 33.9188 20.5762C34.1017 20.5762 34.2388 20.4835 34.2845 20.2982C34.4217 20.0664 34.3303 19.8347 34.1017 19.742Z" fill="#88FF5F"/>
  <path d="M34.1017 16.22C30.6732 14.8297 26.8791 14.8297 23.4506 16.22C23.222 16.3127 23.1306 16.5444 23.222 16.7761C23.3135 17.0078 23.542 17.1005 23.7706 17.0078C27.0162 15.7102 30.5818 15.7102 33.7817 17.0078C33.8274 17.0078 33.8731 17.0542 33.9188 17.0542C34.1017 17.0542 34.2388 16.9615 34.2845 16.7761C34.4217 16.5907 34.3303 16.3127 34.1017 16.22Z" fill="#88FF5F"/>
</svg>
