<svg width="117" height="125" viewBox="0 0 117 125" fill="none" xmlns="http://www.w3.org/2000/svg">
<path d="M69.2838 44.1883L94.7475 26.6728L77.9638 3.25413L7.47858 51.7421L18.7601 67.461L24.2292 86.7782L28.5144 85.5649L38.5712 121.086L112.595 100.128L102.539 64.6071L106.824 63.3938L99.004 35.7739L69.2838 44.1883Z" fill="white"/>
<path d="M92.1018 58.9914L34.4238 75.3213L44.49 110.876L102.168 94.5458L92.1018 58.9914Z" fill="#E7E041"/>
<path d="M80.974 62.1419L34.4238 75.3213L44.49 110.876L91.0402 97.6963L80.974 62.1419Z" fill="#FFF96A"/>
<path d="M103.788 95.3892L43.5871 112.433L32.8384 74.4685L93.0392 57.4243L103.788 95.3892ZM45.3929 109.318L100.583 93.693L91.2084 60.5825L36.0186 76.208L45.3929 109.318Z" fill="black"/>
<path d="M98.0164 58.655L29.2451 78.1257L25.2167 63.8972L93.988 44.4266L98.0164 58.655ZM31.0414 74.9773L94.8017 56.9253L92.1477 47.5513L28.3874 65.6032L31.0414 74.9773Z" fill="black"/>
<path d="M89.422 47.0214L85.5702 60.841L76.2395 63.4828L80.0912 49.6631L89.422 47.0214Z" fill="#295D8B"/>
<path d="M67.6501 53.1854L63.7984 67.0051L54.4331 69.6566L58.2848 55.8369L67.6501 53.1854Z" fill="#295D8B"/>
<path d="M45.8438 59.359L41.9921 73.1786L32.6267 75.8302L36.513 62.0008L45.8438 59.359Z" fill="#295D8B"/>
<path d="M45.8438 59.359L41.9921 73.1786L32.6267 75.8302L36.513 62.0008L45.8438 59.359Z" fill="black"/>
<path d="M67.6501 53.1854L63.7984 67.0051L54.4331 69.6566L58.2848 55.8369L67.6501 53.1854Z" fill="black"/>
<path d="M89.4219 47.0214L85.5702 60.841L76.2394 63.4828L80.0912 49.6631L89.4219 47.0214Z" fill="black"/>
<path d="M26.0959 65.4203L17.4568 53.3652L76.1301 12.9948L84.7692 25.05L26.0959 65.4203ZM21.0533 53.9381L26.735 61.8763L81.1287 24.4534L75.447 16.5152L21.0533 53.9381Z" fill="black"/>
<path d="M72.7163 16.8907L73.718 31.1082L65.7492 36.5828L64.713 22.3751L72.7163 16.8907Z" fill="#295D8B"/>
<path d="M54.0911 29.6857L55.1273 43.8934L47.1679 49.4014L46.1222 35.1602L54.0911 29.6857Z" fill="#295D8B"/>
<path d="M35.5004 42.4708L36.5366 56.6785L28.5772 62.1866L27.5315 47.9454L35.5004 42.4708Z" fill="#295D8B"/>
<path d="M35.5003 42.4708L36.5365 56.6785L28.5772 62.1866L27.5315 47.9454L35.5003 42.4708Z" fill="black"/>
<path d="M54.091 29.6854L55.1272 43.8931L47.1679 49.4012L46.1222 35.16L54.091 29.6854Z" fill="black"/>
<path d="M72.7163 16.8905L73.718 31.108L65.7492 36.5825L64.713 22.3748L72.7163 16.8905Z" fill="black"/>
</svg>
