<svg width="56" height="56" viewBox="0 0 56 56" fill="none" xmlns="http://www.w3.org/2000/svg">
<path d="M28 0C22.4621 0 17.0486 1.64217 12.444 4.71885C7.83947 7.79553 4.25064 12.1685 2.13139 17.2849C0.0121319 22.4012 -0.542361 28.0311 0.538025 33.4625C1.61841 38.894 4.28515 43.8831 8.20102 47.799C12.1169 51.7149 17.106 54.3816 22.5375 55.462C27.969 56.5424 33.5988 55.9879 38.7151 53.8686C43.8315 51.7494 48.2045 48.1605 51.2812 43.556C54.3578 38.9514 56 33.5379 56 28C55.9917 20.5765 53.039 13.4594 47.7898 8.21019C42.5406 2.96097 35.4235 0.00831096 28 0V0ZM28 54C22.8577 54 17.8309 52.4751 13.5552 49.6182C9.27951 46.7613 5.94702 42.7006 3.97914 37.9498C2.01127 33.1989 1.49638 27.9712 2.4996 22.9277C3.50281 17.8841 5.97907 13.2514 9.61524 9.61522C13.2514 5.97906 17.8842 3.5028 22.9277 2.49958C27.9712 1.49637 33.1989 2.01125 37.9498 3.97913C42.7007 5.94701 46.7613 9.2795 49.6182 13.5552C52.4751 17.8309 54 22.8577 54 28C53.9923 34.8933 51.2505 41.502 46.3763 46.3762C41.502 51.2505 34.8933 53.9923 28 54V54ZM28 4C23.2533 4 18.6131 5.40758 14.6663 8.04473C10.7195 10.6819 7.64341 14.4302 5.8269 18.8156C4.0104 23.201 3.53512 28.0266 4.46117 32.6822C5.38721 37.3377 7.67299 41.6141 11.0294 44.9706C14.3859 48.327 18.6623 50.6128 23.3178 51.5388C27.9734 52.4649 32.799 51.9896 37.1844 50.1731C41.5698 48.3566 45.3181 45.2805 47.9553 41.3337C50.5924 37.3869 52 32.7468 52 28C51.9927 21.637 49.4618 15.5368 44.9625 11.0375C40.4632 6.53818 34.363 4.00728 28 4V4ZM29 49.9746V47C29 46.7348 28.8947 46.4804 28.7071 46.2929C28.5196 46.1054 28.2652 46 28 46C27.7348 46 27.4804 46.1054 27.2929 46.2929C27.1054 46.4804 27 46.7348 27 47V49.9746C21.5197 49.7186 16.3322 47.4266 12.4528 43.5472C8.57338 39.6678 6.28139 34.4803 6.02541 29H9.00001C9.26523 29 9.51958 28.8946 9.70712 28.7071C9.89466 28.5196 10 28.2652 10 28C10 27.7348 9.89466 27.4804 9.70712 27.2929C9.51958 27.1054 9.26523 27 9.00001 27H6.02541C6.28139 21.5197 8.57338 16.3322 12.4528 12.4528C16.3322 8.57337 21.5197 6.28138 27 6.0254V9C27 9.26522 27.1054 9.51957 27.2929 9.70711C27.4804 9.89464 27.7348 10 28 10C28.2652 10 28.5196 9.89464 28.7071 9.70711C28.8947 9.51957 29 9.26522 29 9V6.0254C34.4803 6.28138 39.6679 8.57337 43.5472 12.4528C47.4266 16.3322 49.7186 21.5197 49.9746 27H47C46.7348 27 46.4804 27.1054 46.2929 27.2929C46.1054 27.4804 46 27.7348 46 28C46 28.2652 46.1054 28.5196 46.2929 28.7071C46.4804 28.8946 46.7348 29 47 29H49.9746C49.7186 34.4803 47.4266 39.6678 43.5472 43.5472C39.6679 47.4266 34.4803 49.7186 29 49.9746V49.9746ZM19.366 11.0455C19.465 11.2167 19.511 11.4135 19.4981 11.6109C19.4853 11.8082 19.4142 11.9974 19.2938 12.1543C19.1735 12.3113 19.0093 12.4291 18.822 12.4927C18.6348 12.5564 18.4328 12.563 18.2417 12.5119C18.0507 12.4608 17.8791 12.3542 17.7486 12.2055C17.6181 12.0568 17.5347 11.8728 17.5088 11.6767C17.4829 11.4806 17.5158 11.2813 17.6032 11.1039C17.6907 10.9264 17.8287 10.7789 18 10.68C18.2296 10.5474 18.5025 10.5113 18.7587 10.5799C19.0149 10.6484 19.2333 10.8159 19.366 11.0455V11.0455ZM12.4116 19C12.3127 19.1713 12.1653 19.3094 11.9879 19.3969C11.8105 19.4844 11.6112 19.5173 11.4151 19.4915C11.219 19.4657 11.035 19.3823 10.8863 19.2519C10.7375 19.1215 10.6308 18.95 10.5796 18.7589C10.5284 18.5679 10.535 18.366 10.5986 18.1787C10.6622 17.9914 10.7798 17.8271 10.9368 17.7067C11.0937 17.5863 11.2827 17.5151 11.4801 17.5022C11.6775 17.4892 11.8742 17.5351 12.0455 17.634C12.2752 17.7666 12.4428 17.985 12.5115 18.2412C12.5801 18.4974 12.5442 18.7703 12.4116 19ZM12.4116 37C12.5105 37.1713 12.5564 37.368 12.5434 37.5654C12.5305 37.7627 12.4593 37.9518 12.3389 38.1087C12.2185 38.2657 12.0543 38.3833 11.867 38.4469C11.6798 38.5105 11.4778 38.5171 11.2868 38.4659C11.0958 38.4147 10.9242 38.3081 10.7938 38.1594C10.6634 38.0107 10.58 37.8266 10.5541 37.6306C10.5283 37.4345 10.5612 37.2351 10.6487 37.0578C10.7361 36.8804 10.8742 36.7329 11.0455 36.634C11.1592 36.5683 11.2848 36.5257 11.415 36.5085C11.5452 36.4914 11.6775 36.5001 11.8044 36.5341C11.9312 36.568 12.0501 36.6267 12.1543 36.7066C12.2585 36.7866 12.3459 36.8863 12.4116 37ZM19.366 44.9545C19.2671 45.1258 19.1196 45.2639 18.9423 45.3513C18.7649 45.4388 18.5655 45.4717 18.3694 45.4459C18.1734 45.42 17.9893 45.3367 17.8406 45.2062C17.692 45.0758 17.5853 44.9043 17.5341 44.7132C17.4829 44.5222 17.4895 44.3203 17.5531 44.133C17.6167 43.9457 17.7344 43.7815 17.8913 43.6611C18.0482 43.5407 18.2373 43.4695 18.4346 43.4566C18.632 43.4436 18.8287 43.4895 19 43.5884C19.1137 43.6541 19.2134 43.7415 19.2934 43.8457C19.3733 43.9499 19.432 44.0688 19.466 44.1956C19.4999 44.3225 19.5086 44.4548 19.4915 44.585C19.4743 44.7152 19.4317 44.8408 19.366 44.9545V44.9545ZM38.366 43.9545C38.4649 44.1258 38.5108 44.3226 38.4978 44.5199C38.4849 44.7173 38.4137 44.9064 38.2933 45.0633C38.1729 45.2202 38.0086 45.3378 37.8213 45.4014C37.6341 45.465 37.4321 45.4716 37.2411 45.4204C37.05 45.3692 36.8785 45.2625 36.7481 45.1138C36.6177 44.9651 36.5343 44.781 36.5085 44.5849C36.4827 44.3888 36.5156 44.1895 36.6031 44.0121C36.6906 43.8347 36.8287 43.6873 37 43.5884C37.2297 43.4558 37.5027 43.4199 37.7588 43.4885C38.015 43.5572 38.2334 43.7248 38.366 43.9545ZM45.3205 38C45.2216 38.1713 45.0742 38.3094 44.8968 38.3969C44.7194 38.4844 44.52 38.5173 44.324 38.4915C44.1279 38.4656 43.9438 38.3823 43.7951 38.2518C43.6464 38.1214 43.5397 37.9499 43.4886 37.7588C43.4374 37.5678 43.444 37.3658 43.5076 37.1786C43.5711 36.9913 43.6888 36.827 43.8457 36.7066C44.0027 36.5862 44.1917 36.5151 44.3891 36.5021C44.5865 36.4892 44.7832 36.5351 44.9545 36.634C45.1842 36.7666 45.3518 36.985 45.4204 37.2412C45.489 37.4974 45.4531 37.7703 45.3205 38ZM45.3205 18C45.4194 18.1713 45.4653 18.368 45.4524 18.5654C45.4394 18.7628 45.3683 18.9519 45.2479 19.1088C45.1275 19.2657 44.9632 19.3834 44.776 19.447C44.5887 19.5105 44.3867 19.5171 44.1957 19.466C44.0047 19.4148 43.8331 19.3081 43.7027 19.1594C43.5723 19.0107 43.4889 18.8266 43.4631 18.6306C43.4372 18.4345 43.4702 18.2351 43.5576 18.0577C43.6451 17.8804 43.7832 17.7329 43.9545 17.634C44.1842 17.5014 44.4571 17.4655 44.7133 17.5341C44.9695 17.6027 45.1879 17.7703 45.3205 18ZM38.366 12.0455C38.2672 12.2169 38.1197 12.355 37.9424 12.4426C37.765 12.5302 37.5656 12.5631 37.3695 12.5374C37.1734 12.5116 36.9893 12.4282 36.8405 12.2978C36.6918 12.1674 36.5851 11.9958 36.5339 11.8048C36.4826 11.6137 36.4893 11.4117 36.5528 11.2244C36.6164 11.0371 36.7341 10.8729 36.8911 10.7525C37.048 10.6321 37.2372 10.5609 37.4346 10.548C37.6319 10.5351 37.8287 10.581 38 10.68C38.2295 10.8126 38.397 11.0309 38.4657 11.287C38.5343 11.543 38.4985 11.8159 38.366 12.0455V12.0455ZM36.366 15.5098L29.7267 27.0098C29.9054 27.3094 29.9998 27.6517 29.9998 28.0005C29.9998 28.3493 29.9054 28.6916 29.7267 28.9912L34.366 37.0269C34.4986 37.2566 34.5345 37.5296 34.4659 37.7858C34.3972 38.0421 34.2295 38.2605 33.9998 38.3931C33.7701 38.5257 33.4971 38.5616 33.2409 38.493C32.9847 38.4243 32.7662 38.2566 32.6336 38.0269L28 30C27.4696 30 26.9609 29.7893 26.5858 29.4142C26.2107 29.0391 26 28.5304 26 28C26 27.4696 26.2107 26.9609 26.5858 26.5858C26.9609 26.2107 27.4696 26 28 26L34.634 14.51C34.7666 14.2803 34.9851 14.1126 35.2413 14.044C35.4975 13.9753 35.7705 14.0112 36.0002 14.1438C36.2299 14.2764 36.3976 14.4948 36.4663 14.7511C36.5349 15.0073 36.499 15.2803 36.3664 15.51L36.366 15.5098Z" fill="#FFFFFF"/>
</svg>
