<svg width="30" height="39" viewBox="0 0 30 39" fill="none" xmlns="http://www.w3.org/2000/svg">
          <path d="M15.6979 23.3159C13.2069 23.3159 11.1824 25.3378 11.1824 27.8258C11.1824 30.3137 13.2069 32.3357 15.6979 32.3357C18.189 32.3357 20.2134 30.3137 20.2134 27.8258C20.2134 25.3378 18.189 23.3159 15.6979 23.3159ZM15.6979 31.3879C13.7288 31.3879 12.1313 29.7924 12.1313 27.8258C12.1313 25.8591 13.7288 24.2637 15.6979 24.2637C17.667 24.2637 19.2645 25.8591 19.2645 27.8258C19.2645 29.7845 17.667 31.3879 15.6979 31.3879Z" fill="#FFF96A"/>
          <path d="M17.7462 27.4151L15.0891 25.8828C14.9388 25.7959 14.7648 25.7959 14.6146 25.8828C14.4643 25.9697 14.3773 26.1277 14.3773 26.2935V29.3659C14.3773 29.5318 14.4643 29.6898 14.6146 29.7766C14.6857 29.8161 14.7727 29.8398 14.8518 29.8398C14.9309 29.8398 15.0179 29.8161 15.0891 29.7766L17.7541 28.2444C17.9043 28.1575 17.9913 27.9995 17.9913 27.8337C17.9834 27.652 17.8964 27.502 17.7462 27.4151ZM15.3263 28.5366V27.107L16.5679 27.8179L15.3263 28.5366Z" fill="#FFF96A"/>
          <path d="M18.9007 36.5691C18.9007 36.3085 18.6872 36.0953 18.4262 36.0953H8.1615C7.90053 36.0953 7.68701 36.3085 7.68701 36.5691C7.68701 36.8298 7.90053 37.043 8.1615 37.043H18.4262C18.6951 37.043 18.9007 36.8298 18.9007 36.5691Z" fill="#FFF96A"/>
          <path d="M23.2343 37.6749H12.9696C12.7086 37.6749 12.4951 37.8881 12.4951 38.1488C12.4951 38.4094 12.7086 38.6227 12.9696 38.6227H23.2343C23.4953 38.6227 23.7088 38.4094 23.7088 38.1488C23.7088 37.8881 23.4953 37.6749 23.2343 37.6749Z" fill="#FFF96A"/>
          <path d="M28.9123 14.6672H5.4173V14.5251L15.1364 10.8129C15.1522 10.805 15.168 10.7971 15.1917 10.7892L19.2011 9.25696C19.2091 9.25696 19.217 9.24907 19.2249 9.24907L23.258 7.70891C23.2659 7.70891 23.2738 7.70101 23.2896 7.70101L27.3544 6.15296C27.5996 6.05818 27.7182 5.78175 27.6312 5.5448L25.6067 0.300378C25.5593 0.181905 25.4723 0.0871262 25.3537 0.0397368C25.235 -0.00765252 25.1085 -0.0155508 24.9899 0.0318386L4.38925 7.89847C4.37343 7.90637 4.35762 7.90637 4.34971 7.91427L0.300754 9.46232C0.182133 9.50971 0.0872352 9.59659 0.0397865 9.71506C-0.00766219 9.83353 -0.0155702 9.95991 0.0318785 10.0784L2.00891 15.2438V17.6844V20.7726V34.9025C2.00891 35.1631 2.22243 35.3764 2.48339 35.3764H28.9123C29.1733 35.3764 29.3868 35.1631 29.3868 34.9025V20.7647V15.149C29.3868 14.8805 29.1733 14.6672 28.9123 14.6672ZM21.1307 20.2908L24.4442 15.6229H27.6233L24.3098 20.2908H21.1307ZM16.7971 20.2908L20.1106 15.6229H23.2896L19.9761 20.2908H16.7971ZM12.4476 20.2908L15.7611 15.6229H18.9402L15.6267 20.2908H12.4476ZM8.11397 20.2908L11.4275 15.6229H14.6065L11.293 20.2908H8.11397ZM3.77242 20.2908L7.08592 15.6229H10.265L6.95148 20.2908H3.77242ZM3.96221 11.0578C3.97012 11.0578 3.97012 11.0578 3.96221 11.0578H4.46833V14.2013V15.1411V17.1947H2.95788V15.1411V11.0578H3.96221ZM2.95788 18.1425H4.12828L2.95788 19.7932V18.1425ZM28.4378 16.1126V20.2908H25.4723L28.4378 16.1126ZM5.92342 15.615L5.4173 16.3259V15.615H5.92342ZM5.4173 10.5839C5.4173 10.3232 5.20378 10.11 4.94282 10.11H4.57904L4.94282 8.69619L7.91627 7.55885L6.4849 13.1034L5.4173 13.5141V10.5839ZM11.9652 6.01869L10.5418 11.5632L7.57622 12.7006L8.99968 7.14814L11.9652 6.01869ZM16.0221 4.47064L14.5986 10.0152L11.6252 11.1525L13.0486 5.60798L16.0221 4.47064ZM20.0789 2.92259L18.6555 8.46714L15.682 9.59659L17.1055 4.05203L20.0789 2.92259ZM24.1358 1.37454L22.7123 6.91909L19.7389 8.05643L21.1624 2.51188L24.1358 1.37454ZM26.5557 5.44212L23.7879 6.50048L25.0611 1.5483L26.5557 5.44212ZM1.08366 10.1732L3.8515 9.1148L3.59053 10.1179H2.47549C2.21452 10.1179 2.001 10.3311 2.001 10.5918V12.5821L1.08366 10.1732ZM2.95788 34.4128V21.2386H28.4378V34.4207H2.95788V34.4128Z" fill="#FFF96A"/>
</svg>
