<svg width="193" height="193" viewBox="0 0 193 193" fill="none" xmlns="http://www.w3.org/2000/svg">
<path d="M183.226 65.1792L117.233 20.7162C116.653 20.3261 115.961 20.1407 115.263 20.1884L35.8806 25.6982C34.5451 25.7905 33.416 26.7211 33.0697 28.0136L29.8236 40.1282C29.3751 41.8022 30.3682 43.5202 32.0407 43.9684L37.1516 45.3378L34.2098 56.3167L30.9637 68.4313C30.5152 70.1053 31.5083 71.8233 33.1808 72.2715L35.7052 72.9479L18.5617 136.928L16.0374 136.252C14.3648 135.804 12.6457 136.795 12.1972 138.469L9.76261 147.555L4.65176 146.185C2.97919 145.737 1.26014 146.729 0.811578 148.403C0.36302 150.077 1.35614 151.795 3.02871 152.243L11.1682 154.424L38.1747 161.66L62.2132 168.101L89.2196 175.338L113.258 181.779L140.265 189.015L148.404 191.196C150.077 191.644 151.796 190.653 152.244 188.979C152.693 187.305 151.7 185.587 150.027 185.139L144.916 183.769L147.351 174.683C147.799 173.009 146.806 171.291 145.134 170.843L142.609 170.167L159.753 106.186L162.277 106.863C163.95 107.311 165.669 106.32 166.117 104.646L169.364 92.531L172.305 81.5521L177.416 82.9216C179.089 83.3698 180.808 82.3785 181.256 80.7045L184.502 68.5898C184.849 67.2973 184.336 65.9269 183.226 65.1792ZM84.4432 73.0228L82.0087 82.1088C81.5601 83.7828 82.5532 85.5008 84.2258 85.9489L86.7502 86.6253L69.6067 150.606L67.0823 149.929C65.4098 149.481 63.6907 150.472 63.2421 152.146L60.8076 161.232L42.8264 156.414L45.261 147.328C45.7095 145.654 44.7164 143.936 43.0439 143.488L40.5195 142.812L57.663 78.8314L60.1873 79.5079C61.8599 79.956 63.5789 78.9648 64.0275 77.2907L66.4621 68.2048L84.4432 73.0228V73.0228ZM135.488 86.7002L133.054 95.7862C132.605 97.4603 133.598 99.1782 135.271 99.6264L137.795 100.303L120.652 164.283L118.127 163.607C116.455 163.159 114.736 164.15 114.287 165.824L111.853 174.91L93.8714 170.092L96.3059 161.006C96.7545 159.332 95.7614 157.614 94.0888 157.166L91.5644 156.489L108.708 92.5089L111.232 93.1853C112.905 93.6335 114.624 92.6422 115.072 90.9682L117.507 81.8822L135.488 86.7002V86.7002ZM160.872 99.9939L158.347 99.3175L142.447 95.057L139.922 94.3806L141.545 88.3233L162.495 93.9366L160.872 99.9939ZM92.8075 88.2484L102.651 90.8858L85.5071 154.866L75.664 152.229L92.8075 88.2484ZM109.827 86.3165L107.302 85.6401L91.4019 81.3796L88.8775 80.7032L90.5005 74.6458L111.45 80.2592L109.827 86.3165ZM58.7817 72.639L56.2574 71.9626L40.3569 67.7021L37.8325 67.0257L39.4556 60.9684L60.4048 66.5817L58.7817 72.639ZM41.7625 74.5709L51.6056 77.2084L34.4622 141.189L24.619 138.551L41.7625 74.5709ZM15.8199 149.178L17.443 143.121L19.9673 143.797L35.8678 148.058L38.3921 148.734L36.7691 154.791L15.8199 149.178ZM66.8649 162.855L68.4879 156.798L71.0123 157.474L86.9127 161.735L89.4371 162.411L87.814 168.469L66.8649 162.855ZM117.91 176.533L119.533 170.476L122.057 171.152L137.958 175.412L140.482 176.089L138.859 182.146L117.91 176.533ZM136.552 168.544L126.709 165.906L143.852 101.926L153.696 104.563L136.552 168.544ZM164.118 87.8793L140.14 81.4545L116.101 75.0134L89.0949 67.777L65.0565 61.3359L41.0786 54.9111L43.2089 46.9609L166.248 79.9291L164.118 87.8793ZM176.011 76.0528L170.9 74.6833L41.8033 40.092L36.6924 38.7226L38.5477 31.7987L114.623 26.5185L177.866 69.1288L176.011 76.0528Z" fill="black" fill-opacity="0.21"/>
</svg>
