<svg width="202" height="192" viewBox="0 0 202 192" fill="none" xmlns="http://www.w3.org/2000/svg">
<path d="M173.068 98.3845C169.766 93.1398 166.347 87.715 165.163 78.5793C164.939 76.8401 163.477 75.5046 161.744 75.4078C159.983 75.3039 158.408 76.4673 157.993 78.1643L140.198 151.058C136.71 147.793 131.621 145.8 125.775 145.533C113.664 144.99 102.408 151.832 100.143 161.112C99.1571 165.15 100.01 169.228 102.538 172.577C105.026 175.87 108.897 178.219 113.547 179.354C115.205 179.758 116.962 180.005 118.79 180.088C130.901 180.631 142.157 173.789 144.422 164.509C144.424 164.502 144.427 164.488 144.429 164.48L161.812 93.2769C163.378 96.6865 165.179 99.539 166.867 102.227C171.525 109.616 175.195 115.451 171.631 130.052L178.731 131.785C183.037 114.21 177.966 106.166 173.068 98.3845ZM119.113 172.852C114.407 172.637 110.405 170.916 108.379 168.236C107.147 166.616 106.766 164.8 107.241 162.852C108.666 157.017 117.014 152.416 125.47 152.788C126.807 152.849 128.084 153.032 129.28 153.324C132.286 154.058 134.756 155.488 136.205 157.404C137.436 159.025 137.818 160.841 137.342 162.788C135.917 168.624 127.567 173.232 119.113 172.852Z" fill="white"/>
<path d="M123.689 110.905C123.69 110.898 123.694 110.883 123.696 110.876L143.485 29.8128C143.762 28.6814 143.474 27.4808 142.712 26.5968C141.945 25.7038 140.798 25.2416 139.631 25.3285L70.5975 30.8805C69.0315 31.0066 67.7298 32.1152 67.3592 33.6332L50.424 103.004C46.9361 99.7394 41.8472 97.7459 36.0006 97.4795C23.8901 96.9357 12.6343 103.778 10.3688 113.058C9.38291 117.096 10.2358 121.174 12.7636 124.523C15.2515 127.816 19.1233 130.165 23.7725 131.3C25.4304 131.704 27.1879 131.951 29.0162 132.034C41.1267 132.577 52.3825 125.735 54.648 116.455C54.6498 116.448 54.6533 116.434 54.655 116.426L68.6605 59.0569L130.021 54.1202L119.443 97.4481C115.955 94.1839 110.866 92.1904 105.02 91.9239C92.9091 91.3801 81.6533 98.2225 79.3878 107.502C78.4019 111.541 79.2548 115.619 81.7827 118.967C84.2706 122.26 88.1423 124.609 92.7916 125.744C94.4494 126.149 96.2069 126.396 98.0352 126.478C110.166 127.034 121.423 120.185 123.689 110.905ZM29.3335 124.789C24.6278 124.574 20.6256 122.853 18.599 120.173C17.3678 118.553 16.9862 116.737 17.4616 114.79C18.8863 108.954 27.2348 104.353 35.6905 104.725C37.0275 104.786 38.3043 104.969 39.5008 105.261C42.5066 105.995 44.9759 107.425 46.425 109.341C47.6562 110.962 48.0379 112.778 47.5624 114.725C46.1377 120.561 37.7875 125.169 29.3335 124.789ZM98.367 119.237C93.6613 119.022 89.6591 117.301 87.6324 114.621C86.4013 113.001 86.0196 111.185 86.4951 109.238C87.9197 103.402 96.2682 98.801 104.724 99.1734C106.061 99.2342 107.338 99.4169 108.534 99.709C111.54 100.443 114.009 101.873 115.458 103.789C116.69 105.41 117.071 107.226 116.596 109.173C115.164 115.007 106.821 119.617 98.367 119.237ZM131.844 46.6823L70.4822 51.6261L73.8315 37.9067L135.192 32.97L131.844 46.6823Z" fill="white"/>
</svg>
