<svg width="141" height="172" viewBox="0 0 141 172" fill="none" xmlns="http://www.w3.org/2000/svg">
<path d="M64.2934 49.7827C64.5442 49.5171 64.7368 49.1916 64.7795 48.7996C65.3625 43.5184 58.0572 35.9565 50.3408 41.794C48.5271 43.1685 50.62 45.9304 52.4342 44.5542C55.1509 42.5014 57.9467 42.6133 60.1806 45.3553C58.4155 44.501 54.5995 43.5898 51.0289 46.5616C50.1972 47.2579 50.1961 48.5381 51.037 49.2265C55.9174 53.239 58.7312 53.0591 62.6476 52.0814C62.6489 52.0835 64.8584 51.7444 64.2934 49.7827ZM55.4413 48.1162C56.9328 47.7694 58.5668 48.167 59.7276 49.1687C58.3824 49.3462 57.0911 49.0823 55.4413 48.1162ZM140.03 159.338C126.16 139.148 125.129 104.802 127.898 79.4867C128.688 70.944 129.732 63.1209 130.593 56.6746C134.16 29.9421 119.618 6.6382 96.0181 1.25813C77.3881 -2.98899 58.4286 5.68697 50.496 20.7863C37.5978 27.5945 33.599 38.7664 35.5476 45.2632C26.0234 60.4318 21.3939 80.7549 26.9033 101.705C22.6672 112.068 17.9113 120.822 12.5723 126.418C8.64755 127.582 4.84028 129.168 1.25592 131.2C-0.952269 132.447 1.19397 135.219 2.96741 134.21C8.70915 130.957 15.04 128.875 21.5364 128.042C16.0285 132.443 11.0114 137.516 6.80891 143.118C5.35586 145.052 8.27663 146.93 9.58192 145.196C10.9916 143.319 12.5006 141.502 14.0861 139.751C14.717 154.012 41.155 167.096 65.5368 171.777L65.5385 171.777C65.5385 171.777 65.5402 171.778 65.5419 171.778C66.0447 171.848 66.457 171.795 66.8241 171.57C92.8312 155.794 124.73 150.283 137.415 161.636C138.946 163.456 141.558 160.965 140.03 159.338ZM86.7467 3.69063C112.14 3.70509 132.582 27.9395 126.505 61.1354C119.217 29.4317 87.8771 16.5394 78.1917 13.6948C79.488 10.1813 82.5321 5.60635 86.7467 3.69063ZM82.0962 18.6971C80.0005 18.1673 72.8937 16.1275 67.9002 16.327C70.8074 16.0679 75.2514 15.7755 82.0962 18.6971ZM80.2068 4.23339C77.5102 7.00089 75.6577 10.3876 74.7537 13.0384C69.0224 12.2859 63.2636 13.0713 58.9932 15.098C64.48 9.49112 72.0256 5.6071 80.2068 4.23339ZM38.9105 46.4064C39.2662 45.8617 39.1727 45.0674 39.0181 44.7219C37.8121 42.1945 39.0375 33.0014 49.0026 25.8258C47.722 29.4828 37.0102 74.8013 29.1693 95.8987C25.9024 78.1799 29.7876 60.5547 38.9105 46.4064ZM18.2668 125.057C28.6473 111.47 36.4917 87.5539 42.7367 63.5928C42.1491 81.2542 47.93 94.9282 56.1192 100.541C55.2637 104.955 55.2691 109.026 55.4728 111.911C45.6286 113.754 35.6831 118.065 26.7219 124.19C23.8847 124.252 21.0572 124.547 18.2668 125.057ZM77.296 162.132C73.3039 163.953 69.3953 166.007 65.6321 168.257C50.8885 164.896 42.6453 161.724 35.1784 157.744C35.7346 157.288 36.5184 156.833 37.6142 156.624C39.8758 156.198 39.2241 152.782 36.9642 153.225C34.5184 153.687 32.9653 154.942 32.0402 155.985C22.1502 150.093 16.4069 143.379 17.6891 137.755C19.2848 130.755 42.7955 117.175 55.8589 115.358C56.3014 117.487 59.7474 117.03 59.2508 114.65C58.9053 113.016 58.3439 108.339 59.3277 102.275C63.7497 104.047 80.8692 106.481 98.7486 95.253C100.682 94.0385 98.836 91.107 96.9052 92.3257C88.087 97.8636 73.9648 102.262 62.3057 99.6043C39.4702 94.3985 44.2563 41.6622 55.9223 22.1919C67.9288 16.0125 96.8423 24.8976 100.254 30.8098C100.261 30.8202 100.274 30.8267 100.282 30.8376C116.444 61.0942 82.5286 159.034 77.3118 162.118C77.3093 162.121 77.3036 162.13 77.296 162.132ZM83.0171 159.717C95.695 135.902 115.463 59.8 104.632 32.1127C115.738 41.6869 125.689 56.552 124.482 78.8264C122.236 102.898 121.948 132.84 133.29 154.785C123.503 150.292 104.129 151.347 83.0171 159.717ZM94.3394 52.409C93.9133 52.1918 93.2514 51.3953 92.8392 50.9677C82.9097 40.6753 73.7688 48.6126 73.1178 49.1851C71.2377 50.835 73.8081 53.1874 75.4043 51.7831C77.7811 49.6941 83.5615 46.342 90.6533 53.6831C91.6379 54.702 92.415 55.505 93.4352 55.7376C95.6548 56.2436 96.5623 53.2781 94.3394 52.409ZM75.7301 52.1568C74.8482 52.8525 74.8491 54.1869 75.7287 54.8788C81.6324 60.1181 86.9856 58.01 88.3415 57.7542C89.3268 57.5341 90.0538 56.3996 89.5214 55.3027C86.9616 50.0618 80.2833 48.5824 75.7301 52.1568ZM80.2596 53.7723C81.8544 53.4526 83.6194 53.8819 84.8803 54.901C83.4399 55.055 82.0311 54.7715 80.2596 53.7723ZM71.9428 80.681C67.4816 81.0018 65.853 78.3046 60.8398 79.0394C59.3146 78.6917 58.4674 76.8738 54.6015 76.803C52.4141 76.4156 51.8136 79.7739 53.9983 80.2128C54.6159 80.3536 55.2502 80.2794 55.8712 80.4209C56.8487 80.6438 58.4686 82.064 60.3197 82.486C61.1523 82.6758 62.4787 82.1478 63.6627 82.4178C64.2393 82.5492 66.0859 83.2428 65.9146 83.2539C62.6781 83.4773 58.7743 82.4708 57.4483 81.4225C55.6795 80.0257 53.528 82.74 55.3003 84.1375C57.452 85.8386 62.364 86.9727 66.1519 86.7082C67.8415 86.5949 68.4939 84.1737 66.7018 83.4065C68.542 83.9551 70.7388 84.4272 72.5785 84.0881C74.8258 83.6696 74.1889 80.2677 71.9428 80.681ZM58.1483 63.3706L55.6421 68.1919C55.23 69.1022 55.3335 70.5928 56.7293 71.0042C59.3508 78.092 67.1816 73.579 67.7077 73.8065C69.0731 75.6188 71.912 73.6441 70.5533 71.8261C68.8532 69.5609 66.5847 70.4031 65.0773 70.9615C59.7963 72.7292 60.6677 70.1267 59.4117 68.8109L61.2818 64.8508C62.2811 62.7347 59.1485 61.2583 58.1483 63.3706Z" fill="white"/>
</svg>
