<svg width="141" height="108" viewBox="0 0 141 108" fill="none" xmlns="http://www.w3.org/2000/svg">
<path d="M104.912 13.7244L79.0342 15.4576L77.036 4.71419L66.0346 9.77283C54.4979 15.1171 42.1826 18.3691 29.4425 19.4586C23.886 19.9338 18.2923 19.9724 12.7439 19.6073L0.634683 18.7238L8.02239 58.8307C8.07905 59.0258 8.09941 59.2639 8.15607 59.459C11.3167 75.3802 23.0119 88.2528 38.6594 93.1115L38.9078 93.2102L54.4965 96.9144L67.5704 88.0405L67.871 87.8149L67.9833 87.7253C70.0802 86.0668 72.0446 84.2596 73.7969 82.3107L74.281 82.829L87.0799 82.8939L87.4405 82.9031L87.5595 82.8929C87.8374 82.8691 88.1549 82.842 88.4327 82.8182C101.014 81.7423 112.145 73.994 117.414 62.6691C117.479 62.5036 117.545 62.338 117.651 62.1691L126.947 41.3845L104.912 13.7244Z" fill="white"/>
<path d="M76.3755 25.0399L69.3896 40.5895C69.3204 40.7153 69.2909 40.8378 69.2183 40.9239C65.4825 49.599 66.9036 59.6722 72.7385 67.129L78.4354 73.4383L86.957 73.5092C96.4233 72.9395 104.856 67.3009 108.841 58.7245C108.91 58.5987 108.939 58.4762 109.012 58.39L115.998 42.8405L100.55 23.4923L76.3755 25.0399Z" fill="#CE85FB"/>
<path d="M110.524 35.8726L103.674 51.1308C103.608 51.2963 103.539 51.4222 103.473 51.5877C98.4381 62.3728 87.8117 69.4783 75.9209 70.2153L75.5207 70.2096L78.4785 73.4748L87.0001 73.5456C96.4664 72.976 104.9 67.3374 108.884 58.761C108.953 58.6351 108.982 58.5127 109.055 58.4265L116.041 42.8769L110.524 35.8726Z" fill="#BA4AFF"/>
<path d="M87.797 74.9166C87.5588 74.9369 87.3604 74.9539 87.1223 74.9743L87.0429 74.9811L77.8829 74.9248L71.6985 68.0576C65.4657 60.155 64.0401 49.5625 67.9733 40.3908C68.0425 40.2649 68.072 40.1425 68.1412 40.0166L75.4595 23.679L101.298 21.9492L117.734 42.5721L110.419 58.9494C110.35 59.0752 110.32 59.1977 110.251 59.3236C106.129 68.1517 97.5604 74.0817 87.797 74.9166ZM86.9936 72.0668C95.9802 71.4982 103.878 66.1453 107.628 58.1086C107.698 57.9827 107.731 57.9 107.76 57.7775L114.374 43.0193L99.9548 24.9425L77.3742 26.4337L70.7604 41.1919C70.7309 41.3144 70.6583 41.4005 70.6288 41.523C67.1301 49.6981 68.3778 59.1464 73.9407 66.2267L79.1932 72.0143L86.9936 72.0668Z" fill="black"/>
<path d="M99.9966 48.8063C97.086 47.4961 95.5841 44.4262 96.0905 41.4644C95.7672 41.8918 95.4473 42.359 95.2136 42.8987C93.6663 46.3093 95.2099 50.3351 98.6171 51.8428C102.028 53.3902 106.054 51.8465 107.561 48.4393C107.795 47.8996 107.949 47.3667 108.064 46.8371C106.187 49.1965 102.864 50.0803 99.9966 48.8063Z" fill="black"/>
<path d="M82.1192 40.7805C79.2086 39.4702 77.7067 36.4003 78.2131 33.4385C77.8898 33.866 77.5699 34.3331 77.3362 34.8728C75.7889 38.2834 77.3325 42.3092 80.7397 43.8169C84.1469 45.3246 88.1762 43.8206 89.6838 40.4134C89.9175 39.8737 90.0719 39.3408 90.1865 38.8113C88.3093 41.1706 84.9901 42.0941 82.1192 40.7805Z" fill="black"/>
<path d="M83.5358 62.4876C78.7543 60.3378 76.0746 55.6495 76.6935 51.1989C76.1854 51.8021 75.7271 52.5209 75.3913 53.2692C73.1428 58.299 75.9017 64.3798 81.5142 66.8982C87.1268 69.4167 93.5498 67.3882 95.8017 62.3981C96.1341 61.6101 96.3871 60.8289 96.478 60.0215C93.6175 63.5044 88.3172 64.6373 83.5358 62.4876Z" fill="black"/>
<path d="M69.9632 18.3123C51.8864 26.6546 31.9702 30.3167 12.106 28.977L17.3143 57.1566C17.3279 57.3154 17.3845 57.5104 17.3981 57.6692C19.913 70.2474 29.2139 80.3663 41.4519 84.1573L52.6717 86.7959L62.1914 80.3048C72.2703 72.4066 77.3733 59.6167 75.2123 46.9682C75.1987 46.8094 75.142 46.6144 75.1285 46.4556L69.9632 18.3123Z" fill="#CE85FB"/>
<path d="M75.2553 47.0042C75.2417 46.8455 75.1851 46.6504 75.1715 46.4917L69.9632 18.312C66.4238 19.934 62.7915 21.404 59.1422 22.6756L63.7581 47.6676C63.8148 47.8626 63.8351 48.1008 63.8521 48.2992C66.2612 62.4457 61.2044 76.7109 50.8779 86.3894L52.6751 86.8353L62.1948 80.3442C72.3134 72.4426 77.3767 59.6561 75.2553 47.0042Z" fill="#BA4AFF"/>
<path d="M52.9663 88.3697L41.0513 85.5506C28.1976 81.5725 18.5782 71.0011 15.9829 57.9499C15.9296 57.7946 15.9126 57.5961 15.8991 57.4374L10.3724 27.406L12.2219 27.5277C31.8049 28.8514 51.5624 25.2029 69.3715 17.0034L71.0635 16.219L76.5901 46.2505C76.6037 46.4092 76.6604 46.6043 76.674 46.763C78.8758 59.8878 73.6944 73.1641 63.0904 81.4671L63.0144 81.5136L52.9663 88.3697ZM41.8127 82.7669L52.3806 85.2614L61.3355 79.1784C71.0776 71.5489 75.8278 59.3089 73.797 47.2489C73.7835 47.0902 73.7302 46.9348 73.7166 46.7761L68.8628 20.4051C51.6049 28.0378 32.6741 31.5357 13.8394 30.5477L18.6932 56.9186C18.7068 57.0773 18.7601 57.2327 18.7736 57.3915C21.1979 69.3778 30.0249 79.0974 41.8127 82.7669Z" fill="black"/>
<path d="M31.1655 45.2177C35.3783 44.4576 39.4453 46.6685 41.1637 50.3995C41.2216 49.675 41.1537 48.8812 41.0496 48.1305C40.1423 43.1307 35.3452 39.8629 30.3454 40.7702C25.3457 41.6775 22.0778 46.4746 22.9851 51.4743C23.129 52.2216 23.3522 52.9622 23.6515 53.6562C23.9403 49.5536 26.9165 46.0208 31.1655 45.2177Z" fill="black"/>
<path d="M57.262 40.4274C61.4748 39.6674 65.5418 41.8782 67.2602 45.6093C67.3181 44.8847 67.2502 44.0909 67.1461 43.3402C66.2388 38.3404 61.4417 35.0726 56.4419 35.9799C51.4422 36.8872 48.1743 41.6843 49.0816 46.6841C49.2255 47.4314 49.4487 48.1719 49.748 48.8659C50.0368 44.7633 53.0096 41.1909 57.262 40.4274Z" fill="black"/>
<path d="M49.8582 70.725C42.8909 72.0005 36.2648 68.849 33.5999 63.3999C33.4931 64.4885 33.5485 65.6031 33.766 66.7439C35.1117 74.065 42.8692 78.7588 51.0963 77.2556C59.3234 75.7525 64.9083 68.5984 63.5626 61.2774C63.3452 60.1366 63.0154 59.0853 62.4906 58.0908C61.885 64.0994 56.822 69.4099 49.8582 70.725Z" fill="black"/>
</svg>
