<svg width="98" height="105" viewBox="0 0 98 105" fill="none" xmlns="http://www.w3.org/2000/svg">
<path d="M81.1018 48.9914L23.4238 65.3213L33.49 100.876L91.168 84.5458L81.1018 48.9914Z" fill="#E7E041"/>
<path d="M69.974 52.1419L23.4238 65.3213L33.49 100.876L80.0402 87.6963L69.974 52.1419Z" fill="#FFF96A"/>
<path d="M92.7879 85.3893L32.5871 102.433L21.8384 64.4686L82.0392 47.4244L92.7879 85.3893ZM34.3929 99.3185L89.5827 83.693L80.2084 50.5826L25.0186 66.208L34.3929 99.3185Z" fill="black"/>
<path d="M87.0164 48.655L18.2451 68.1256L14.2167 53.8972L82.988 34.4265L87.0164 48.655ZM20.0414 64.9772L83.8017 46.9253L81.1477 37.5512L17.3874 55.6032L20.0414 64.9772Z" fill="black"/>
<path d="M78.422 37.0213L74.5702 50.8409L65.2395 53.4827L69.0912 39.6631L78.422 37.0213Z" fill="#295D8B"/>
<path d="M56.6502 43.1853L52.7985 57.0049L43.4331 59.6565L47.2848 45.8368L56.6502 43.1853Z" fill="#295D8B"/>
<path d="M34.8438 49.359L30.9921 63.1786L21.6267 65.8302L25.513 52.0008L34.8438 49.359Z" fill="#295D8B"/>
<path d="M34.8438 49.359L30.9921 63.1786L21.6267 65.8302L25.513 52.0008L34.8438 49.359Z" fill="black"/>
<path d="M56.6501 43.1852L52.7984 57.0049L43.4331 59.6564L47.2848 45.8368L56.6501 43.1852Z" fill="black"/>
<path d="M78.422 37.0212L74.5702 50.8409L65.2395 53.4826L69.0912 39.663L78.422 37.0212Z" fill="black"/>
<path d="M15.0959 55.4203L6.45684 43.3651L65.1301 2.99476L73.7692 15.0499L15.0959 55.4203ZM10.0533 43.938L15.735 51.8762L70.1288 14.4533L64.447 6.51509L10.0533 43.938Z" fill="black"/>
<path d="M61.7164 6.89054L62.718 21.108L54.7492 26.5826L53.713 12.3749L61.7164 6.89054Z" fill="#295D8B"/>
<path d="M43.0911 19.6855L44.1273 33.8932L36.168 39.4012L35.1223 25.1601L43.0911 19.6855Z" fill="#295D8B"/>
<path d="M24.5004 32.4706L25.5366 46.6783L17.5773 52.1864L16.5316 37.9452L24.5004 32.4706Z" fill="#295D8B"/>
<path d="M24.5004 32.4707L25.5366 46.6784L17.5772 52.1865L16.5315 37.9453L24.5004 32.4707Z" fill="black"/>
<path d="M43.0911 19.6853L44.1273 33.893L36.1679 39.4011L35.1222 25.1599L43.0911 19.6853Z" fill="black"/>
<path d="M61.7164 6.89035L62.718 21.1078L54.7492 26.5824L53.713 12.3747L61.7164 6.89035Z" fill="black"/>
</svg>
