<svg width="77" height="87" viewBox="0 0 77 87" fill="none" xmlns="http://www.w3.org/2000/svg">
<rect x="14.9662" y="10.7827" width="60" height="60" rx="30" transform="rotate(11.8007 14.9662 10.7827)" stroke="#85D8FB" stroke-width="2"/>
<path d="M33.8994 63.596C31.4946 63.0936 29.5768 62.412 28.146 61.5512C26.751 60.6978 25.3927 59.7585 24.0711 58.7333L26.1256 51.8581L26.664 51.9706L28.1217 56.8263C29.1086 59.9917 31.0018 61.8669 33.8013 62.4518C35.4523 62.7967 36.9228 62.3922 38.2127 61.2383C39.546 60.056 40.5539 57.8317 41.2362 54.5656C41.8286 51.7301 41.8216 49.6123 41.2152 48.212C40.6162 46.7758 39.2759 45.8403 37.1942 45.4053L33.9639 44.7305L34.1889 43.6537L37.0423 44.2499C38.9445 44.6473 40.4284 44.358 41.4938 43.3819C42.5952 42.4133 43.4421 40.5113 44.0345 37.6759C44.6119 34.9122 44.6078 32.8699 44.0222 31.5489C43.4442 30.192 42.4732 29.3711 41.1093 29.0861C39.7454 28.8012 38.5144 28.956 37.4163 29.5507C36.354 30.1528 35.4233 30.9323 34.624 31.8891L31.2565 35.9053L30.7294 35.7389L32.9212 27.9373C34.1747 27.6748 35.5351 27.5282 37.0024 27.4976C38.513 27.4387 40.1477 27.5929 41.9064 27.9603C45.675 28.7477 48.356 30.1693 49.9492 32.2253C51.5858 34.2528 52.1491 36.4869 51.6392 38.9276C51.2718 40.6863 50.1656 42.2157 48.3207 43.5159C46.4833 44.7802 43.8858 45.38 40.528 45.3152C44.1215 46.4031 46.5713 47.9451 47.8774 49.941C49.1835 51.937 49.5928 54.1014 49.1054 56.4344C48.7155 58.3008 47.8246 59.8752 46.4329 61.1577C45.0771 62.4477 43.3222 63.3172 41.1682 63.7661C39.0501 64.2226 36.6272 64.1659 33.8994 63.596Z" fill="#85D8FB"/>
</svg>
