<svg width="77" height="87" viewBox="0 0 77 87" fill="none" xmlns="http://www.w3.org/2000/svg">
<rect x="14.9662" y="10.7827" width="60" height="60" rx="30" transform="rotate(11.8007 14.9662 10.7827)" stroke="#CE85FB" stroke-width="2"/>
<path d="M29.3497 35.6193L31.3238 28.0531C32.528 27.6679 33.9647 27.4249 35.6339 27.3241C37.3391 27.2309 39.1966 27.3942 41.2065 27.8141C44.0779 28.414 46.3066 29.3104 47.8929 30.5034C49.4866 31.6604 50.55 33.0251 51.083 34.5973C51.6161 36.1695 51.6989 37.835 51.3315 39.5937C50.8141 42.0702 49.1055 44.2417 46.2059 46.1082C43.3137 47.9387 39.4897 49.8368 34.7339 51.8024C33.8243 52.2117 32.7449 52.7166 31.4957 53.3172C30.2465 53.9177 29.0728 54.5153 27.9746 55.11L48.1637 59.328L46.8815 65.4654L23.1929 60.5164L24.1377 55.994C25.6923 55.0077 27.2072 54.0319 28.6825 53.0666C30.2011 52.0728 31.633 51.1358 32.9781 50.2556C36.1172 48.1396 38.5286 46.1898 40.2122 44.4065C41.9393 42.5947 43.0502 40.5044 43.5451 38.1355C44.0625 35.659 44.0301 33.5733 43.4477 31.8784C42.8729 30.1475 41.6881 29.0947 39.8936 28.7197C38.7809 28.4873 37.6801 28.557 36.591 28.9288C35.5453 29.2722 34.5211 30.0508 33.5183 31.2647L29.8881 35.7317L29.3497 35.6193Z" fill="#CE85FB"/>
</svg>
