<svg width="77" height="87" viewBox="0 0 77 87" fill="none" xmlns="http://www.w3.org/2000/svg">
<rect x="14.9662" y="10.7827" width="60" height="60" rx="30" transform="rotate(11.8007 14.9662 10.7827)" stroke="#88FF5F" stroke-width="2"/>
<path d="M33.361 63.4835C31.2793 63.0486 29.4542 62.4613 27.8856 61.7215C26.3455 61.0252 25.0373 60.1151 23.9611 58.9912L25.7552 52.2864L26.2935 52.3989L27.8477 57.331C28.2956 58.7731 28.9763 59.9079 29.8896 60.7355C30.8105 61.5272 31.8991 62.0543 33.1553 62.3168C37.2828 63.1791 40.0027 60.4698 41.315 54.1887C41.9074 51.3533 41.801 49.0835 40.9958 47.3795C40.2265 45.683 38.7651 44.6098 36.6116 44.1599C35.6066 43.9499 34.5716 43.8835 33.5067 43.9607C32.4851 44.0095 31.5166 44.163 30.6011 44.4212L29.7557 43.6265L34.4158 27.2382L53.2589 31.175L51.9767 37.3124L34.2103 33.6006L31.5106 42.757C32.4636 42.3194 33.6962 41.9775 35.2085 41.7316C36.7208 41.4857 38.2486 41.5239 39.7919 41.8464C42.1249 42.3338 44.1024 43.1777 45.7245 44.3782C47.3825 45.5861 48.5453 47.1026 49.2128 48.9277C49.9237 50.7244 50.0355 52.7892 49.5481 55.1222C49.0457 57.5269 48.0081 59.4453 46.4353 60.8772C44.8985 62.3167 42.9992 63.2497 40.7375 63.6761C38.4758 64.1026 36.017 64.0384 33.361 63.4835Z" fill="#88FF5F"/>
</svg>
