<svg width="159" height="143" viewBox="0 0 169 153" fill="none" xmlns="http://www.w3.org/2000/svg">
<path d="M117.137 39.9697C105.137 38.6435 96.8329 40.8196 90.548 42.9959C81.9941 45.9383 72.7784 41.071 70.7918 32.568C69.1712 25.6313 63.9305 18.6554 48.298 23.7825C20.8878 32.7232 2.63077 66.9578 20.1227 101.748C37.6147 136.539 89.2437 150.317 124.495 119.663C159.745 89.0095 145.537 43.1275 117.137 39.9697ZM50.9694 67.6993C48.1026 75.8613 40.3093 80.7498 33.5215 78.678C26.7207 76.5502 23.4893 68.22 26.298 60.0715C29.1648 51.9094 36.9581 47.021 43.7459 49.0928C50.6047 51.207 53.8361 59.5372 50.9694 67.6993Z" fill="white"/>
<path d="M95.3857 136.788C86.1583 138.944 76.4286 139.211 66.8479 137.497C45.5043 133.634 27.3406 120.592 18.2992 102.588C9.72526 85.5355 8.88438 67.2667 15.9543 51.1613C22.1526 37.0884 33.7228 26.362 47.7116 21.7959C55.1571 19.3484 61.2031 19.2928 65.6172 21.6832C69.2623 23.6633 71.6599 27.1148 72.81 32.0376C73.6334 35.5619 75.9845 38.5523 79.2029 40.2781C82.4214 42.004 86.3389 42.2686 89.8455 41.0364C96.5235 38.7093 105.073 36.5348 117.389 37.9051C130.079 39.3059 140.78 48.9587 145.228 63.022C150.172 78.6805 147.698 102.148 125.873 121.111C116.985 128.91 106.47 134.198 95.3857 136.788ZM52.3145 24.7321C51.2699 24.9762 50.1222 25.3033 48.9877 25.6863C36.1335 29.8694 25.5352 39.7788 19.8111 52.738C13.2154 67.7297 14.0271 84.8255 22.0495 100.827C30.5262 117.724 47.5841 129.963 67.7075 133.579C87.8889 137.183 107.611 131.749 123.174 118.202C143.525 100.527 145.9 78.7345 141.302 64.2932C137.336 51.7691 127.993 43.2149 116.93 41.965C105.434 40.6981 97.5226 42.7234 91.2377 44.8997C86.5966 46.515 81.4849 46.1164 77.2261 43.8667C72.9672 41.617 69.9035 37.6722 68.8188 33.0291C67.9431 29.281 66.1739 26.6857 63.5823 25.2853C60.7905 23.8138 57.0732 23.6203 52.3145 24.7321Z" fill="white"/>
<path d="M81.5712 128.217C86.5071 127.064 89.6073 122.272 88.4957 117.514C87.3841 112.756 82.4817 109.834 77.5458 110.987C72.6099 112.14 69.5098 116.932 70.6213 121.69C71.7329 126.448 76.6354 129.37 81.5712 128.217Z" fill="white"/>
<path d="M56.0989 120.303C61.0348 119.15 64.135 114.358 63.0234 109.6C61.9118 104.843 57.0094 101.92 52.0735 103.074C47.1377 104.227 44.0375 109.019 45.1491 113.776C46.2606 118.534 51.1631 121.457 56.0989 120.303Z" fill="white"/>
<path d="M106.478 117.206C111.414 116.053 114.514 111.261 113.403 106.503C112.291 101.745 107.389 98.8229 102.453 99.9761C97.5171 101.129 94.4169 105.921 95.5285 110.679C96.64 115.437 101.542 118.359 106.478 117.206Z" fill="white"/>
<path d="M126.086 96.8739C131.022 95.7207 134.122 90.9289 133.011 86.171C131.899 81.4131 126.997 78.4909 122.061 79.6441C117.125 80.7972 114.025 85.5891 115.136 90.347C116.248 95.1048 121.151 98.0271 126.086 96.8739Z" fill="white"/>
<path d="M119.24 68.6203C124.176 67.4671 127.276 62.6752 126.165 57.9173C125.053 53.1594 120.151 50.2372 115.215 51.3904C110.279 52.5436 107.179 57.3354 108.291 62.0933C109.402 66.8512 114.305 69.7734 119.24 68.6203Z" fill="white"/>
<path d="M82.0418 130.23C80.0687 130.691 77.9779 130.649 75.9886 129.993C73.1534 129.121 70.8054 127.192 69.4686 124.614C68.1318 122.035 67.9295 119.074 68.8764 116.316C69.8232 113.558 71.8555 111.254 74.5423 109.918C77.2291 108.583 80.2934 108.339 83.1286 109.21C85.9639 110.082 88.3119 112.011 89.6487 114.589C90.9855 117.168 91.1878 120.129 90.2409 122.887C89.294 125.645 87.2617 127.949 84.5749 129.285C83.7567 129.712 82.9123 130.027 82.0418 130.23ZM78.0033 112.945C77.481 113.067 76.9138 113.258 76.4176 113.492C74.7231 114.36 73.4626 115.775 72.8289 117.516C72.1952 119.257 72.3233 121.115 73.1927 122.741C74.0621 124.366 75.5045 125.563 77.2936 126.148C79.0827 126.733 81.0051 126.579 82.6996 125.711C84.3941 124.843 85.6547 123.428 86.2884 121.687C86.9221 119.946 86.794 118.088 85.9246 116.462C85.0551 114.837 83.6127 113.64 81.8236 113.055C80.5772 112.697 79.2801 112.646 78.0033 112.945Z" fill="white"/>
<path d="M56.4985 122.275C54.5253 122.736 52.4346 122.694 50.4452 122.038C44.5745 120.224 41.3624 114.072 43.3911 108.347C44.3379 105.589 46.3702 103.286 49.057 101.95C51.7438 100.614 54.8081 100.37 57.6433 101.242C60.4786 102.113 62.8265 104.042 64.1633 106.621C65.5001 109.199 65.7024 112.161 64.7555 114.919C63.8087 117.677 61.7764 119.98 59.0896 121.316C58.2264 121.813 57.369 122.072 56.4985 122.275ZM52.518 104.976C51.9957 105.098 51.4285 105.29 50.9323 105.523C49.2378 106.391 47.9773 107.807 47.3436 109.548C46.1023 113.141 48.1141 117.037 51.8083 118.18C53.5974 118.765 55.5198 118.61 57.2143 117.742C58.9088 116.875 60.1693 115.459 60.803 113.718C61.4367 111.977 61.3087 110.12 60.4392 108.494C59.5698 106.868 58.1274 105.671 56.3383 105.086C55.0919 104.729 53.7367 104.691 52.518 104.976Z" fill="white"/>
<path d="M106.878 119.178C104.904 119.639 102.814 119.596 100.824 118.94C97.9891 118.069 95.6411 116.139 94.3043 113.561C92.9675 110.983 92.7652 108.021 93.7121 105.263C95.6827 99.5523 102.094 96.3436 107.977 98.2137C110.813 99.0851 113.161 101.014 114.497 103.593C115.834 106.171 116.037 109.133 115.09 111.891C114.143 114.649 112.111 116.952 109.424 118.288C108.605 118.715 107.748 118.974 106.878 119.178ZM102.897 101.878C100.576 102.421 98.5158 104.082 97.7227 106.45C97.089 108.191 97.217 110.049 98.0864 111.674C98.9559 113.3 100.398 114.497 102.187 115.082C103.976 115.667 105.899 115.513 107.593 114.645C109.288 113.777 110.548 112.362 111.182 110.621C111.816 108.88 111.688 107.022 110.818 105.396C109.949 103.771 108.506 102.574 106.717 101.989C105.471 101.631 104.116 101.594 102.897 101.878Z" fill="white"/>
<path d="M126.556 98.8871C124.583 99.3481 122.493 99.3057 120.503 98.6495C117.668 97.7781 115.32 95.8489 113.983 93.2704C112.646 90.692 112.444 87.7306 113.391 84.9726C114.338 82.2146 116.37 79.911 119.057 78.5753C121.744 77.2397 124.808 76.9957 127.643 77.8672C130.479 78.7387 132.826 80.6678 134.163 83.2463C135.5 85.8247 135.702 88.7861 134.756 91.5441C133.451 95.3887 130.213 98.033 126.556 98.8871ZM122.518 81.6014C121.996 81.7234 121.428 81.9149 120.932 82.1488C119.238 83.0167 117.977 84.4321 117.344 86.173C116.71 87.9139 116.838 89.7718 117.707 91.3975C118.577 93.0232 120.019 94.22 121.808 94.805C125.503 95.9477 129.562 93.9374 130.803 90.3437C131.437 88.6028 131.309 86.7449 130.439 85.1192C129.57 83.4935 128.127 82.2967 126.338 81.7118C125.092 81.354 123.795 81.3031 122.518 81.6014Z" fill="white"/>
<path d="M119.698 70.5792C117.725 71.0402 115.634 70.9977 113.645 70.3415C110.809 69.4701 108.462 67.5409 107.125 64.9625C105.788 62.3841 105.586 59.4226 106.532 56.6646C107.479 53.9066 109.512 51.603 112.198 50.2674C114.885 48.9317 117.95 48.6878 120.785 49.5592C126.655 51.3733 129.868 57.5252 127.839 63.2497C126.892 66.0077 124.86 68.3113 122.173 69.647C121.413 70.0605 120.568 70.3758 119.698 70.5792ZM115.659 53.2934C115.137 53.4154 114.57 53.6069 114.074 53.8409C112.379 54.7087 111.119 56.1241 110.485 57.865C109.851 59.6059 109.979 61.4638 110.849 63.0895C111.718 64.7152 113.161 65.9121 114.95 66.497C116.739 67.0819 118.661 66.9278 120.356 66.0599C122.05 65.1921 123.311 63.7767 123.944 62.0358C125.186 58.4421 123.174 54.5465 119.48 53.4038C118.233 53.046 116.936 52.9951 115.659 53.2934Z" fill="white"/>
<path d="M39.948 80.7756C37.5687 81.3315 35.1616 81.2449 32.856 80.5447C28.9615 79.3308 25.9459 76.3776 24.3273 72.3312C22.7929 68.3831 22.8181 63.7756 24.3087 59.4158C25.8574 55.0423 28.7178 51.3063 32.4085 49.0282C36.2471 46.5975 40.5039 45.957 44.3984 47.1709C52.3165 49.6276 56.1256 59.1207 52.8876 68.3134C51.3389 72.6868 48.4785 76.4228 44.7878 78.701C43.3067 79.6959 41.631 80.3824 39.948 80.7756ZM38.2792 50.8423C37.0605 51.127 35.836 51.6491 34.7219 52.3814C31.8364 54.1764 29.5286 57.1343 28.3323 60.6585C27.136 64.1827 27.1208 67.7849 28.272 70.8787C29.384 73.8046 31.526 75.8999 34.2321 76.7425C36.9382 77.5851 39.9371 77.0615 42.6616 75.3631C45.5471 73.568 47.8549 70.6101 49.0512 67.0859C51.4887 59.968 48.893 52.7872 43.1514 51.0019C41.5625 50.4882 39.9041 50.4627 38.2792 50.8423Z" fill="white"/>
<path d="M53.6857 76.4447C53.6857 76.4447 48.0932 72.6778 42.1836 79.6039C37.1806 85.4333 39.7794 93.6754 33.1813 96.8687C33.1813 96.8687 49.0124 97.8307 55.0892 92.9303C61.623 87.6281 59.9595 83.6512 59.9595 83.6512L53.6857 76.4447Z" fill="white"/>
<path d="M59.902 83.6662C57.3899 80.7724 56.1984 79.3399 53.6863 76.4462C77.2854 48.5738 140.54 11.2596 140.709 11.4562C140.709 11.4562 92.2551 66.0194 59.902 83.6662Z" fill="white"/>
<path d="M60.3589 85.6237C59.6045 85.8 58.8166 85.5711 58.3115 84.9811L52.0958 77.7611C51.4355 77.0304 51.4904 75.9557 52.1011 75.1641C64.4729 60.5338 87.549 43.5206 104.711 31.8417C114.641 25.0972 123.49 19.49 129.158 15.983C139.747 9.43848 140.167 9.39953 140.715 9.38938C141.321 9.36568 141.935 9.63523 142.343 10.0709C143.003 10.8016 142.961 11.9322 142.28 12.6815C140.292 14.9156 93.2662 67.7295 60.9 85.3203C60.694 85.4864 60.533 85.583 60.3589 85.6237ZM56.3699 76.4086L60.3841 81.0162C83.4392 67.8425 114.391 36.6005 129.687 20.343C110.571 32.3014 73.6506 56.8557 56.3699 76.4086Z" fill="white"/>
<path d="M48.7542 97.773C41.9642 99.3593 34.1553 98.9419 32.9743 98.8639C32.0384 98.7875 31.2751 98.14 31.066 97.2449C30.9149 96.3363 31.3834 95.4599 32.2016 95.0328C34.8304 93.7107 35.5655 91.3561 36.4643 87.6065C37.1718 84.6094 38.0329 81.2225 40.5279 78.2799C46.2127 71.7012 52.3532 73.0983 54.823 74.7631L52.4195 78.0974C51.9929 77.8431 48.1664 75.6104 43.6972 80.8431C41.826 83.0501 41.1562 85.6844 40.4676 88.5C39.9254 90.6325 39.4224 92.9328 38.1764 94.9348C43.4026 94.7757 50.4466 94.0149 53.6264 91.3841C58.7183 87.2448 57.8907 84.4884 57.8515 84.3206C57.8646 84.3765 57.8646 84.3765 57.8646 84.3765L61.7251 82.8257C61.9719 83.358 63.7546 88.369 56.2358 94.4322C54.408 96.0391 51.6558 97.0951 48.7542 97.773Z" fill="white"/>
<path d="M70.4716 48.7485C70.0074 48.857 69.5039 48.7976 69.0192 48.5569C59.3 43.6302 56.3609 31.5741 56.2433 31.0706C55.995 30.0077 56.7144 28.8957 57.8171 28.6381C58.9197 28.3805 60.0574 29.0586 60.3057 30.1215C60.3318 30.2334 62.9442 40.891 70.9961 44.9683C72.0365 45.4922 72.382 46.7093 71.8106 47.6687C71.522 48.2671 70.9939 48.6265 70.4716 48.7485Z" fill="white"/>
<path d="M44.2368 35.9998C43.3663 36.2031 42.365 35.8471 41.9238 35.0063C41.3853 34.0112 41.7754 32.7992 42.8126 32.2618C42.9737 32.1652 47.0648 30.0295 49.8504 29.3787C50.9531 29.1211 52.0907 29.7992 52.339 30.8621C52.5873 31.925 51.8679 33.037 50.7653 33.2946C48.9082 33.7285 45.8282 35.215 44.746 35.8218C44.585 35.9184 44.4109 35.9591 44.2368 35.9998Z" fill="white"/>
<path d="M111.116 44.2371C100.676 42.983 93.4682 44.8779 88.0167 46.7847C80.5969 49.3623 72.5564 44.9625 70.7797 37.3581C69.3304 31.1546 64.7335 24.895 51.1723 29.3823C27.3935 37.2064 11.7197 67.6701 27.1298 98.8382C42.5399 130.006 87.507 142.609 117.976 115.442C148.445 88.275 135.826 47.222 111.116 44.2371ZM53.7502 68.6133C51.3053 75.885 44.5581 80.2048 38.6447 78.3153C32.7196 76.3757 29.8617 68.9185 32.2563 61.6586C34.7012 54.387 41.4484 50.0672 47.3618 51.9567C53.3373 53.8845 56.1952 61.3417 53.7502 68.6133Z" fill="#85D8FB"/>
<path d="M92.7681 130.564C84.7583 132.436 76.3007 132.618 67.9611 131.031C49.3823 127.458 33.5147 115.707 25.5493 99.5769C17.9958 84.3004 17.1584 67.9823 23.2114 53.6421C28.5184 41.1118 38.5154 31.6009 50.6508 27.605C57.1098 25.4628 62.3659 25.4483 66.2175 27.6085C69.3981 29.3979 71.5027 32.4938 72.5313 36.8963C73.2676 40.0481 75.3291 42.7321 78.1373 44.2919C80.9455 45.8517 84.3529 46.1108 87.3944 45.0309C93.1869 42.9917 100.608 41.0997 111.323 42.395C122.364 43.7197 131.723 52.4014 135.673 64.9851C140.062 78.9961 138.048 99.9372 119.183 116.743C111.501 123.655 102.39 128.317 92.7681 130.564ZM54.6697 30.2537C53.7629 30.4655 52.767 30.7509 51.7829 31.0864C40.6316 34.7468 31.475 43.5338 26.5737 55.0725C20.9266 68.4209 21.7317 83.6913 28.7995 98.0261C36.2676 113.164 51.1691 124.192 68.6857 127.538C86.2526 130.873 103.368 126.136 116.82 114.13C134.41 98.4656 136.348 79.0195 132.267 66.0973C128.746 54.8909 120.573 47.198 110.947 46.0176C100.945 44.8195 94.0788 46.582 88.6273 48.4887C84.6016 49.9041 80.1552 49.5184 76.4394 47.4848C72.7236 45.4511 70.0371 41.9108 69.067 37.7584C68.2839 34.4065 66.7306 32.0787 64.4693 30.8132C62.0335 29.4829 58.8005 29.2886 54.6697 30.2537Z" fill="black"/>
<path d="M80.7078 122.83C84.9924 121.829 87.6598 117.568 86.6657 113.313C85.6716 109.058 81.3924 106.42 77.1078 107.421C72.8232 108.422 70.1557 112.683 71.1498 116.938C72.1439 121.193 76.4232 123.831 80.7078 122.83Z" fill="#67C2FF"/>
<path d="M58.5159 115.616C62.8005 114.615 65.4679 110.354 64.4738 106.099C63.4797 101.844 59.2005 99.2065 54.9159 100.208C50.6313 101.209 47.9638 105.469 48.9579 109.724C49.952 113.979 54.2313 116.617 58.5159 115.616Z" fill="#67C2FF"/>
<path d="M102.298 113.143C106.583 112.142 109.25 107.881 108.256 103.626C107.262 99.3714 102.983 96.7335 98.6983 97.7345C94.4137 98.7355 91.7462 102.996 92.7403 107.251C93.7344 111.506 98.0136 114.144 102.298 113.143Z" fill="#67C2FF"/>
<path d="M119.227 95.1015C123.512 94.1005 126.179 89.8397 125.185 85.5846C124.191 81.3296 119.912 78.6917 115.627 79.6928C111.343 80.6938 108.675 84.9546 109.669 89.2096C110.663 93.4647 114.943 96.1026 119.227 95.1015Z" fill="#67C2FF"/>
<path d="M113.111 69.8338C117.396 68.8328 120.063 64.5719 119.069 60.3169C118.075 56.0618 113.796 53.4239 109.511 54.4249C105.227 55.4259 102.559 59.6868 103.553 63.9418C104.548 68.1969 108.827 70.8348 113.111 69.8338Z" fill="#67C2FF"/>
<path d="M81.1286 124.631C79.4158 125.031 77.5978 124.981 75.8645 124.384C73.3944 123.589 71.3418 121.853 70.1646 119.543C68.9874 117.233 68.7943 114.587 69.6014 112.13C70.4086 109.672 72.1621 107.627 74.4903 106.45C76.8185 105.273 79.4812 105.073 81.9512 105.868C84.4213 106.662 86.4739 108.399 87.6511 110.709C88.8284 113.019 89.0214 115.665 88.2143 118.122C87.4071 120.579 85.6536 122.624 83.3254 123.801C82.6165 124.178 81.8843 124.455 81.1286 124.631ZM77.517 109.172C77.0636 109.278 76.5715 109.446 76.1415 109.652C74.6733 110.417 73.5856 111.674 73.0448 113.225C72.504 114.775 72.6261 116.435 73.3915 117.892C74.1568 119.349 75.4179 120.426 76.9767 120.958C78.5356 121.491 80.2061 121.365 81.6742 120.6C83.1424 119.835 84.2301 118.578 84.7709 117.027C85.3117 115.476 85.1896 113.816 84.4242 112.36C83.6589 110.903 82.3978 109.826 80.839 109.293C79.7533 108.967 78.6252 108.914 77.517 109.172Z" fill="black"/>
<path d="M58.8746 117.379C57.1619 117.779 55.3439 117.729 53.6105 117.132C48.4959 115.478 45.6674 109.966 47.3979 104.866C48.2051 102.409 49.9585 100.364 52.2867 99.1865C54.6149 98.0094 57.2776 97.8094 59.7477 98.6041C62.2177 99.3987 64.2703 101.135 65.4475 103.445C66.6248 105.755 66.8179 108.401 66.0107 110.858C65.2035 113.315 63.45 115.361 61.1218 116.538C60.3743 116.976 59.6303 117.203 58.8746 117.379ZM55.3134 101.909C54.86 102.015 54.3679 102.182 53.9379 102.388C52.4698 103.153 51.382 104.41 50.8412 105.961C49.783 109.163 51.5547 112.653 54.7731 113.695C56.332 114.227 58.0025 114.101 59.4706 113.336C60.9388 112.571 62.0265 111.314 62.5673 109.763C63.1081 108.213 62.986 106.553 62.2206 105.096C61.4553 103.639 60.1943 102.562 58.6354 102.029C57.5497 101.703 56.3713 101.662 55.3134 101.909Z" fill="black"/>
<path d="M102.657 114.906C100.944 115.306 99.1261 115.256 97.3927 114.659C94.9226 113.864 92.8701 112.128 91.6928 109.818C90.5156 107.507 90.3225 104.862 91.1297 102.405C92.8098 97.3165 98.3648 94.4887 103.491 96.1927C105.961 96.9874 108.014 98.7238 109.191 101.034C110.368 103.344 110.561 105.99 109.754 108.447C108.947 110.904 107.194 112.949 104.865 114.126C104.156 114.503 103.412 114.73 102.657 114.906ZM99.0956 99.4356C97.0805 99.9064 95.2992 101.378 94.6234 103.488C94.0826 105.039 94.2047 106.698 94.9701 108.155C95.7354 109.612 96.9965 110.689 98.5553 111.222C100.114 111.754 101.785 111.628 103.253 110.863C104.721 110.098 105.809 108.841 106.35 107.29C106.89 105.739 106.768 104.08 106.003 102.623C105.237 101.166 103.976 100.089 102.418 99.5564C101.332 99.2297 100.153 99.1884 99.0956 99.4356Z" fill="black"/>
<path d="M119.648 96.9022C117.935 97.3024 116.117 97.2523 114.384 96.6548C111.914 95.8602 109.861 94.1238 108.684 91.8137C107.507 89.5035 107.314 86.8579 108.121 84.4007C108.928 81.9434 110.682 79.8982 113.01 78.7212C115.338 77.5441 118.001 77.3441 120.471 78.1388C122.941 78.9335 124.993 80.6698 126.171 82.98C127.348 85.2901 127.541 87.9358 126.734 90.393C125.621 93.8184 122.822 96.1608 119.648 96.9022ZM116.036 81.4434C115.583 81.5494 115.091 81.7171 114.661 81.923C113.193 82.6881 112.105 83.9447 111.564 85.4955C111.023 87.0464 111.146 88.7062 111.911 90.1629C112.676 91.6196 113.937 92.6967 115.496 93.2294C118.715 94.2713 122.232 92.4999 123.29 89.2981C123.831 87.7473 123.709 86.0875 122.944 84.6308C122.178 83.174 120.917 82.0969 119.358 81.5642C118.273 81.2375 117.145 81.1845 116.036 81.4434Z" fill="black"/>
<path d="M113.521 71.5849C111.808 71.9851 109.99 71.9349 108.256 71.3375C105.786 70.5428 103.734 68.8065 102.557 66.4963C101.379 64.1862 101.186 61.5405 101.993 59.0833C102.801 56.6261 104.554 54.5809 106.882 53.4038C109.21 52.2268 111.873 52.0268 114.343 52.8214C119.458 54.4755 122.286 59.9875 120.556 65.0874C119.749 67.5446 117.995 69.5898 115.667 70.7668C115.008 71.1317 114.276 71.4084 113.521 71.5849ZM109.909 56.126C109.456 56.232 108.963 56.3997 108.533 56.6057C107.065 57.3708 105.978 58.6273 105.437 60.1782C104.896 61.729 105.018 63.3888 105.783 64.8455C106.549 66.3022 107.81 67.3793 109.369 67.9121C110.928 68.4448 112.598 68.3183 114.066 67.5532C115.534 66.7881 116.622 65.5316 117.163 63.9807C118.221 60.779 116.449 57.2887 113.231 56.2468C112.145 55.9201 111.017 55.8671 109.909 56.126Z" fill="black"/>
<path d="M44.2442 80.2254C42.1788 80.7079 40.0856 80.6166 38.0769 79.978C34.684 78.8713 32.045 76.2168 30.6142 72.5941C29.2572 69.0597 29.2523 64.9457 30.523 61.0612C31.844 57.1649 34.3091 53.8455 37.5046 51.8327C40.8278 49.6846 44.525 49.1373 47.918 50.244C54.8163 52.4837 58.1832 60.9827 55.4215 69.1725C54.1005 73.0688 51.6354 76.3882 48.4399 78.401C47.158 79.2809 45.7051 79.8841 44.2442 80.2254ZM42.6192 53.4868C41.5613 53.7339 40.4998 54.193 39.5354 54.8404C37.0371 56.4265 35.0479 59.0543 34.0284 62.1943C33.0088 65.3343 33.0165 68.5508 34.0354 71.32C35.0192 73.9392 36.8936 75.8226 39.2512 76.5908C41.6089 77.359 44.2131 76.9088 46.5719 75.4081C49.0702 73.822 51.0594 71.1941 52.079 68.0541C54.1568 61.7124 51.8583 55.2852 46.8561 53.6576C45.4717 53.1897 44.0297 53.1572 42.6192 53.4868Z" fill="black"/>
<path d="M56.1629 76.4385C56.1629 76.4385 51.2788 73.0423 46.1812 79.1926C41.8654 84.3689 44.1728 91.7437 38.4549 94.5569C38.4549 94.5569 52.2242 95.5079 57.479 91.1674C63.1288 86.4709 61.6593 82.91 61.6593 82.91L56.1629 76.4385Z" fill="#67C2FF"/>
<path d="M61.6088 82.9218C59.4079 80.3232 58.3637 79.0371 56.1628 76.4385C76.5181 51.6871 131.296 18.7353 131.443 18.9119C131.443 18.9119 89.6344 67.3523 61.6088 82.9218Z" fill="#7A8DAB"/>
<path d="M62.018 84.6726C61.3631 84.8256 60.6768 84.6166 60.2343 84.0869L54.7883 77.6036C54.2099 76.9473 54.2514 75.988 54.7777 75.2847C65.4489 62.2925 85.4125 47.2347 100.265 36.906C108.859 30.9412 116.521 25.9857 121.428 22.8871C130.596 17.1048 130.96 17.0724 131.437 17.0666C131.964 17.0489 132.5 17.2932 132.857 17.6846C133.435 18.3409 133.405 19.3503 132.817 20.0153C131.102 21.9987 90.5239 68.8853 62.4867 84.4048C62.3086 84.5519 62.1691 84.6373 62.018 84.6726ZM58.4963 76.4207L62.0131 80.5585C81.9809 68.9292 108.709 41.2116 121.913 26.7834C105.363 37.3505 73.4067 59.0615 58.4963 76.4207Z" fill="black"/>
<path d="M51.9992 95.4545C46.1052 96.8315 39.3136 96.4133 38.2863 96.3368C37.4722 96.2632 36.8048 95.6805 36.6178 94.88C36.4812 94.0678 36.8834 93.288 37.5923 92.9113C39.8701 91.746 40.4955 89.6478 41.2551 86.3048C41.8528 83.6327 42.5818 80.6134 44.7338 78.0002C49.6379 72.1589 54.9847 73.4422 57.1417 74.9431L55.0714 77.9065C54.6991 77.6769 51.3593 75.6609 47.5041 80.3075C45.8901 82.2674 45.3231 84.6158 44.7408 87.126C44.2818 89.027 43.8579 91.0782 42.7863 92.8585C47.329 92.7469 53.4488 92.1085 56.1981 89.7779C60.6009 86.1113 59.8654 83.6452 59.8303 83.4951C59.842 83.5451 59.842 83.5451 59.842 83.5451L63.1894 82.1827C63.407 82.6595 64.9861 87.1444 58.4844 92.5148C56.9046 93.9391 54.518 94.866 51.9992 95.4545Z" fill="black"/>
<path d="M70.5954 51.8047C70.1924 51.8988 69.7543 51.8429 69.3316 51.6251C60.8529 47.1693 58.2275 36.3867 58.1223 35.9364C57.9003 34.9859 58.5193 33.9971 59.4764 33.7735C60.4336 33.5499 61.4266 34.162 61.6487 35.1126C61.6721 35.2126 64.0053 44.7446 71.0294 48.4322C71.937 48.906 72.2445 49.9949 71.7533 50.8483C71.5058 51.3809 71.0488 51.6987 70.5954 51.8047Z" fill="white"/>
<path d="M47.7123 40.2679C46.9566 40.4445 46.0841 40.1207 45.6956 39.3673C45.2216 38.4756 45.5537 37.3956 46.4524 36.9219C46.5918 36.8365 50.1363 34.9533 52.5543 34.3883C53.5115 34.1647 54.5045 34.7769 54.7266 35.7274C54.9487 36.6779 54.3297 37.6667 53.3725 37.8903C51.7605 38.2669 49.0913 39.5764 48.1539 40.1119C48.0145 40.1973 47.8634 40.2326 47.7123 40.2679Z" fill="white"/>
</svg>
