<svg width="53" height="26" viewBox="0 0 78 51" fill="none" xmlns="http://www.w3.org/2000/svg">
<path d="M69.91 35.3099V34.3699C70.01 34.7099 70.01 35.0399 69.91 35.3099Z" fill="#67C2FF"/>
<path d="M27.26 26.37C26.48 26.37 25.7 26.22 24.95 25.93C23.37 25.31 22.13 24.12 21.45 22.57C20.77 21.02 20.74 19.3 21.35 17.72C21.97 16.14 23.16 14.9 24.71 14.22C26.26 13.54 27.98 13.51 29.56 14.12C31.14 14.74 32.38 15.93 33.06 17.48C33.74 19.03 33.77 20.75 33.16 22.33C32.54 23.91 31.35 25.15 29.8 25.83C28.98 26.19 28.12 26.37 27.26 26.37ZM27.26 15.78C26.68 15.78 26.1 15.9 25.56 16.14C24.52 16.59 23.72 17.43 23.31 18.48C22.46 20.66 23.54 23.13 25.72 23.98C26.78 24.39 27.93 24.37 28.97 23.91C30.01 23.46 30.81 22.62 31.22 21.57C32.07 19.39 30.99 16.92 28.81 16.07C28.3 15.88 27.78 15.78 27.26 15.78Z" fill="#67C2FF"/>
<path d="M77.7 0.84C77.68 0.78 77.66 0.71 77.64 0.65C77.62 0.57 77.58 0.48 77.51 0.4C77.49 0.36 77.45 0.34 77.43 0.32C77.37 0.28 77.33 0.240001 77.26 0.190001C77.07 0.0600005 76.86 0 76.68 0H1.04C0.77 0 0.48 0.130001 0.27 0.360001L0.25 0.380001C0.19 0.460001 0.12 0.55 0.0799999 0.65C0.0799999 0.67 0.0799999 0.67 0.0799999 0.67C0.0199999 0.8 0 0.920001 0 1.05V49.52C0 49.62 0.0200004 49.71 0.0600004 49.79C0.0600004 49.83 0.0799999 49.85 0.0799999 49.87C0.12 50 0.18 50.1 0.27 50.2C0.48 50.43 0.77 50.55 1.04 50.55H76.67C76.88 50.55 77.09 50.49 77.25 50.36C77.31 50.32 77.35 50.28 77.42 50.23C77.44 50.21 77.48 50.17 77.5 50.15C77.56 50.07 77.6 49.98 77.63 49.9C77.65 49.84 77.67 49.77 77.69 49.71C77.71 49.65 77.71 49.56 77.71 49.5V1.05C77.72 0.980001 77.72 0.9 77.7 0.84ZM73.69 2.09L68.51 6.2H8.35L3.78 2.09H73.69ZM45.56 40.81C40.76 39.6 37.36 37.74 35.21 36.28C37.53 35.44 39.55 34.17 41.54 32.94C43.75 31.56 45.84 30.27 48.28 29.54C48.43 29.5 48.59 29.46 48.74 29.41C47.78 30.16 47.09 31.04 47.01 31.94C46.97 32.44 47.09 33.4 48.35 34.13C50.4 35.36 52.51 35.68 54.55 35.97C55.84 36.16 57.08 36.32 58.29 36.72C58.33 36.74 58.39 36.76 58.42 36.76C58.11 37.03 57.4 37.51 55.81 38.24C53.76 39.18 51.65 40.16 50.17 42.33H47.9C47.94 42.27 47.62 41.95 47.62 41.86C46.93 41.23 46.11 40.95 45.56 40.81ZM43.01 42.33H9V36.59C10.5 35.36 16.64 30.76 22.93 31.98C30.11 33.36 32.35 36.66 32.35 36.68C32.41 36.76 32.5 36.87 32.58 36.93C32.8 37.09 37.25 40.7 43.01 42.33ZM56.75 40.1C59.19 38.97 60.8 37.93 60.72 36.53C60.68 35.72 60.07 35.11 58.92 34.73C57.54 34.27 56.16 34.08 54.83 33.89C52.91 33.6 51.09 33.35 49.4 32.34C49.17 32.19 49.09 32.09 49.09 32.09C49.15 31.51 51.32 29.96 54.12 28.83C57.54 28.98 60.78 30.15 63.12 32.21C65.48 34.3 66.88 35.36 67.82 35.82V42.31H52.93C54 41.35 55.33 40.74 56.75 40.1ZM64.5 30.66C60.3 26.94 53.7 25.71 47.67 27.53C44.98 28.34 42.66 29.79 40.42 31.18C38.46 32.39 36.6 33.56 34.49 34.31C34.11 34.46 33.55 34.86 33.49 34.86C32.65 33.8 30.08 31.22 23.32 29.93C17.35 28.78 11.75 32 9 33.96V8.29H67.82V33.39C67.17 32.93 66.13 32.1 64.5 30.66ZM2.09 3.39L6.91 7.75V42.89L2.09 47.17V3.39ZM3.8 48.47L8.35 44.42H68.49L73.67 48.47H3.8ZM75.63 47.36L69.91 42.87V7.77L75.63 3.22V47.36Z" fill="#67C2FF"/>
</svg>
