<svg width="115" height="132" viewBox="0 0 115 132" fill="none" xmlns="http://www.w3.org/2000/svg">
<path d="M98.5468 75.7679C90.123 71.8301 86.4408 61.8323 90.3412 53.4885C96.9977 39.2489 90.7334 22.1623 76.3225 15.4257L69.4303 12.2039C55.0542 5.48362 37.9082 11.5848 31.2356 25.8589L3.36608e-05 92.6783L83.2283 131.584L103.294 88.6585C105.586 83.8478 103.455 78.0623 98.5468 75.7679Z" fill="white"/>
<path d="M84.9458 50.9665C90.2323 39.6576 85.2603 26.158 73.843 20.8208L66.9508 17.599C55.5335 12.2618 41.9871 17.1048 36.7006 28.4137L7.96323 89.8889L80.3659 123.734L97.9338 86.1528C98.8203 84.2565 97.9979 82.0235 96.0834 81.1285C84.6312 75.7751 79.6593 62.2755 84.9458 50.9665Z" fill="#EE3434" fill-opacity="0.84"/>
<path d="M90.9524 100.997L18.5498 67.1511L7.92843 89.8725L80.3311 123.718L90.9524 100.997Z" fill="#D7423F"/>
<path d="M33.7204 79.1583L27.4548 76.2294L18.7191 94.9167L24.9848 97.8457L33.7204 79.1583Z" fill="white"/>
<path d="M46.2168 85.0001L39.9512 82.0712L31.2155 100.759L37.4812 103.687L46.2168 85.0001Z" fill="white"/>
<path d="M58.6784 90.8255L52.4128 87.8966L43.6771 106.584L49.9428 109.513L58.6784 90.8255Z" fill="white"/>
<path d="M71.1749 96.6667L64.9092 93.7378L56.1736 112.425L62.4392 115.354L71.1749 96.6667Z" fill="white"/>
<path d="M27.4896 76.2458L21.2239 73.3169L12.4883 92.0043L18.7539 94.9332L27.4896 76.2458Z" fill="white"/>
<path d="M39.9512 82.0713L33.6855 79.1423L24.9499 97.8297L31.2155 100.759L39.9512 82.0713Z" fill="white"/>
<path d="M52.4476 87.9126L46.182 84.9836L37.4464 103.671L43.712 106.6L52.4476 87.9126Z" fill="white"/>
<path d="M64.9092 93.738L58.6436 90.8091L49.908 109.496L56.1736 112.425L64.9092 93.738Z" fill="white"/>
<path d="M77.4404 99.5961L71.1748 96.6671L62.4392 115.354L68.7048 118.283L77.4404 99.5961Z" fill="white"/>
<path d="M83.6713 102.509L77.4056 99.5796L68.67 118.267L74.9356 121.196L83.6713 102.509Z" fill="white"/>
<path d="M80.6462 124.496L7.16452 90.1456L36.1436 28.1532C41.5591 16.5685 55.5129 11.5798 67.2087 17.0472L74.1009 20.269C85.7967 25.7364 90.9181 39.642 85.5027 51.2267C80.3612 62.2254 85.2211 75.4205 96.3251 80.6112C98.5181 81.6363 99.4713 84.2246 98.4559 86.3968L80.6462 124.496ZM8.69231 89.5994L80.0507 122.957L97.3769 85.8923C98.1183 84.3063 97.408 82.3778 95.8068 81.6293C84.111 76.1619 78.9895 62.2563 84.4049 50.6715C89.5464 39.6729 84.6866 26.4778 73.5825 21.2871L66.6903 18.0653C55.5863 12.8745 42.3454 17.6083 37.204 28.6069L8.69231 89.5994Z" fill="black"/>
<path d="M80.6463 124.496L7.16458 90.1457L18.2856 66.3555L91.7673 100.705L80.6463 124.496ZM8.69237 89.5995L80.0507 122.957L90.1886 101.27L18.8302 67.9125L8.69237 89.5995Z" fill="black"/>
<path d="M19.0343 95.6946L11.6897 92.2612L20.9249 72.505L28.2696 75.9384L19.0343 95.6946ZM13.2522 91.7313L18.4388 94.1558L26.6909 76.5028L21.5044 74.0783L13.2522 91.7313Z" fill="black"/>
<path d="M25.3 98.6234L17.9553 95.19L27.1906 75.4338L34.5352 78.8672L25.3 98.6234ZM19.4831 94.6438L24.6696 97.0683L32.9217 79.4153L27.7352 76.9908L19.4831 94.6438Z" fill="black"/>
<path d="M31.496 101.52L24.1513 98.0861L33.3866 78.33L40.7313 81.7633L31.496 101.52ZM25.7139 97.5562L30.9005 99.9807L39.1526 82.3277L33.966 79.9032L25.7139 97.5562Z" fill="black"/>
<path d="M29.5084 77.1899L25.4706 75.3024L20.2969 86.37L24.3347 88.2575L29.5084 77.1899Z" fill="black"/>
<path d="M35.7045 80.0862L31.6666 78.1986L26.4929 89.2662L30.5308 91.1537L35.7045 80.0862Z" fill="black"/>
<path d="M73.2634 97.6434L69.2255 95.7559L64.0518 106.823L68.0897 108.711L73.2634 97.6434Z" fill="black"/>
<path d="M79.4593 100.54L75.4215 98.6521L70.2478 109.72L74.2857 111.607L79.4593 100.54Z" fill="black"/>
<path d="M48.2357 85.9442L44.1978 84.0566L39.0241 95.1242L43.062 97.0118L48.2357 85.9442Z" fill="black"/>
<path d="M54.4317 88.8403L50.3939 86.9528L45.2202 98.0204L49.258 99.9079L54.4317 88.8403Z" fill="black"/>
<path d="M60.558 91.7044L56.5202 89.8169L51.3465 100.884L55.3844 102.772L60.558 91.7044Z" fill="black"/>
<path d="M37.7616 104.449L30.4169 101.015L39.6522 81.2592L46.9968 84.6925L37.7616 104.449ZM31.9795 100.485L37.166 102.91L45.4181 85.2569L40.2316 82.8324L31.9795 100.485Z" fill="black"/>
<path d="M43.9924 107.361L36.6477 103.928L45.883 84.1716L53.2277 87.605L43.9924 107.361ZM38.2103 103.398L43.3969 105.822L51.649 88.1694L46.4624 85.7449L38.2103 103.398Z" fill="black"/>
<path d="M50.2581 110.29L42.9134 106.857L52.1487 87.1005L59.4934 90.5338L50.2581 110.29ZM44.476 106.327L49.6625 108.751L57.9147 91.0982L52.7281 88.6737L44.476 106.327Z" fill="black"/>
<path d="M56.4888 113.203L49.1441 109.77L58.3794 90.0134L65.7241 93.4468L56.4888 113.203ZM50.6719 109.223L55.8585 111.648L64.1106 93.9949L58.924 91.5704L50.6719 109.223Z" fill="black"/>
<path d="M62.7196 116.115L55.375 112.682L64.6102 92.9259L71.9549 96.3593L62.7196 116.115ZM56.9376 112.152L62.1241 114.577L70.3762 96.9237L65.1897 94.4992L56.9376 112.152Z" fill="black"/>
<path d="M68.9853 119.044L61.6406 115.611L70.8759 95.8546L78.2205 99.288L68.9853 119.044ZM63.2032 115.081L68.3897 117.505L76.6418 99.8524L71.4553 97.4279L63.2032 115.081Z" fill="black"/>
<path d="M75.2508 121.973L67.9061 118.54L77.1414 98.7839L84.4861 102.217L75.2508 121.973ZM69.4687 118.01L74.6553 120.435L82.9074 102.782L77.7209 100.357L69.4687 118.01Z" fill="black"/>
</svg>
