<svg width="56" height="55" viewBox="0 0 56 55" fill="none" xmlns="http://www.w3.org/2000/svg">
<path d="M44.159 54.0062C44.4369 53.9919 44.7087 53.9188 44.9569 53.7916C45.2051 53.6644 45.4242 53.4861 45.5999 53.268C45.7757 53.05 45.9043 52.7969 45.9773 52.5255C46.0503 52.254 46.0662 51.9702 46.024 51.6921L43.502 35.0223L55.4124 22.4878C55.6596 22.2239 55.8314 21.897 55.9096 21.5422C55.9877 21.1874 55.9693 20.8178 55.8563 20.4727C55.7432 20.1276 55.5398 19.82 55.2676 19.5825C54.9954 19.345 54.6646 19.1865 54.3104 19.1239L37.8223 16.4027L29.7479 1.06138C29.5769 0.738831 29.3222 0.46953 29.0111 0.282507C28.7 0.0954846 28.3444 -0.00216513 27.9824 3.64192e-05C27.6205 0.00223797 27.266 0.104226 26.9572 0.295019C26.6483 0.485813 26.3968 0.758199 26.2298 1.0828L18.558 16.0813L1.64601 19.1239C1.28944 19.1871 0.956675 19.3474 0.683571 19.5876C0.410466 19.8278 0.207373 20.1389 0.0961759 20.4872C-0.0150211 20.8355 -0.0301073 21.2078 0.0525434 21.5641C0.135194 21.9204 0.312448 22.2472 0.565206 22.5092L12.3272 34.5295L9.95363 51.735C9.9075 52.0965 9.95944 52.4639 10.1039 52.798C10.2484 53.132 10.4799 53.4201 10.7737 53.6313C11.0676 53.8426 11.4127 53.9691 11.7722 53.9974C12.1317 54.0257 12.492 53.9546 12.8147 53.7918L27.7557 46.2284L43.1841 53.8133C43.4877 53.9599 43.8231 54.0263 44.159 54.0062V54.0062ZM41.5099 48.521L28.6034 42.1573C28.3254 42.0207 28.0198 41.9515 27.7108 41.9552C27.4018 41.9588 27.0979 42.0352 26.8232 42.1783L14.4254 48.4992L16.3963 34.1006C16.4392 33.7946 16.4119 33.4827 16.3163 33.1892C16.2208 32.8956 16.0596 32.6283 15.8453 32.4079L6.07536 22.4232L20.211 19.8734C20.5114 19.8202 20.7958 19.6978 21.042 19.5158C21.2882 19.3337 21.4897 19.0969 21.6309 18.8235L28.01 6.33188L34.7705 19.1449C34.9139 19.4209 35.1187 19.6593 35.3687 19.8415C35.6188 20.0237 35.9074 20.1447 36.2117 20.1948L49.9235 22.466L39.9628 32.9221C39.7454 33.1448 39.5824 33.4157 39.4867 33.7132C39.3911 34.0108 39.3654 34.3269 39.4118 34.6362L41.5099 48.5206V48.521Z" fill="#FFFFFF"/>
</svg>
