<svg width="56" height="56" viewBox="0 0 50 66" fill="none" xmlns="http://www.w3.org/2000/svg">
<path d="M44.1805 55.0013C44.4584 54.987 44.7302 54.9139 44.9784 54.7867C45.2266 54.6596 45.4457 54.4812 45.6214 54.2632C45.7972 54.0451 45.9257 53.7921 45.9988 53.5206C46.0718 53.2492 46.0877 52.9653 46.0454 52.6872L43.5235 36.0174L55.4339 23.4829C55.6811 23.219 55.8529 22.8922 55.9311 22.5373C56.0092 22.1825 55.9908 21.8129 55.8778 21.4678C55.7647 21.1227 55.5613 20.8151 55.289 20.5776C55.0168 20.3401 54.6861 20.1816 54.3319 20.1191L37.8438 17.3978L29.7693 2.05649C29.5984 1.73395 29.3437 1.46465 29.0326 1.27762C28.7215 1.0906 28.3658 0.992952 28.0039 0.995154C27.642 0.997355 27.2875 1.09934 26.9787 1.29014C26.6698 1.48093 26.4183 1.75332 26.2512 2.07792L18.5795 17.0765L1.66749 20.1191C1.31092 20.1822 0.97816 20.3425 0.705055 20.5827C0.43195 20.823 0.228857 21.134 0.11766 21.4823C0.00646332 21.8306 -0.00862288 22.2029 0.0740277 22.5592C0.156678 22.9156 0.333933 23.2423 0.586691 23.5043L12.3487 35.5246L9.97511 52.7301C9.92898 53.0916 9.98092 53.459 10.1254 53.7931C10.2698 54.1271 10.5014 54.4152 10.7952 54.6264C11.0891 54.8377 11.4342 54.9642 11.7937 54.9925C12.1532 55.0208 12.5135 54.9497 12.8362 54.787L27.7771 47.2235L43.2056 54.8084C43.5092 54.9551 43.8446 55.0214 44.1805 55.0013V55.0013ZM41.5314 49.5161L28.6249 43.1524C28.3469 43.0158 28.0413 42.9466 27.7323 42.9503C27.4233 42.9539 27.1194 43.0303 26.8446 43.1734L14.4468 49.4943L16.4177 35.0957C16.4607 34.7897 16.4334 34.4779 16.3378 34.1843C16.2423 33.8907 16.0811 33.6234 15.8668 33.403L6.09684 23.4183L20.2325 20.8685C20.5329 20.8153 20.8173 20.693 21.0635 20.5109C21.3097 20.3288 21.5112 20.092 21.6524 19.8186L28.0315 7.327L34.792 20.1401C34.9353 20.416 35.1401 20.6544 35.3902 20.8366C35.6403 21.0188 35.9289 21.1398 36.2331 21.1899L49.9449 23.4612L39.9842 33.9172C39.7669 34.1399 39.6039 34.4108 39.5082 34.7084C39.4126 35.0059 39.3869 35.322 39.4333 35.6313L41.5314 49.5157V49.5161Z" fill="black"/>
</svg>
