<svg width="26" height="26" viewBox="0 0 99 82" fill="none" xmlns="http://www.w3.org/2000/svg">
<path d="M37.259 44.7223C41.6174 44.7223 45.6293 42.8736 48.8118 39.7743C53.1811 35.5179 55.9869 28.9015 55.9869 21.4727C55.9869 8.63196 47.6033 1.12893 37.2578 1.12893C26.9171 1.12893 18.5299 8.63196 18.5299 21.4727C18.5323 34.3123 26.9183 44.7223 37.259 44.7223ZM52.1175 42.792C51.9509 42.9637 51.7903 43.1416 51.6176 43.306C47.5647 47.2566 42.465 49.4292 37.259 49.4292C31.6064 49.4292 26.4258 46.9241 22.4138 42.7799C14.7715 46.8462 3.47345 57.501 0 66.4081C0 66.4081 12.1516 82 35.9285 82C59.7055 82 74.5216 66.4081 74.5216 66.4081C71.0518 57.507 59.7706 46.8705 52.1175 42.792ZM83.4304 15.7039V0H77.5436V15.7051H61.9752V21.642H77.5448V37.3471H83.4317V21.642H99V15.7051H83.4304V15.7039Z" fill="#FFB700"/>
</svg>
