<svg width="58" height="40" viewBox="0 0 88 70" fill="none" xmlns="http://www.w3.org/2000/svg">
<path d="M24.0023 24.7557C24.1277 24.7773 24.2565 24.7653 24.3758 24.7208C24.4951 24.6764 24.6005 24.6011 24.6814 24.5026C24.7623 24.4041 24.8158 24.2859 24.8364 24.16C24.8571 24.0341 24.8442 23.905 24.799 23.7857C24.0755 22.152 22.793 20.8319 21.1835 20.064C19.5741 19.296 17.7438 19.131 16.0235 19.5986C14.255 19.8243 12.6255 20.6778 11.4302 22.0044C10.2349 23.3311 9.55292 25.0433 9.50772 26.8308C9.51139 26.9584 9.54868 27.0828 9.6158 27.1913C9.68291 27.2998 9.77746 27.3886 9.88984 27.4486C10.0022 27.5085 10.1284 27.5376 10.2557 27.5329C10.3829 27.5281 10.5066 27.4896 10.6142 27.4214C12.6193 26.2441 14.8034 25.4043 17.0794 24.9354C19.362 24.4994 21.7002 24.4387 24.0023 24.7557ZM16.7991 23.5155C14.8307 23.9206 12.9242 24.5839 11.1285 25.4884C11.4443 24.3084 12.1067 23.2511 13.0297 22.4538C13.9527 21.6565 15.0935 21.1562 16.3038 21.018C16.8616 20.9037 17.4293 20.8446 17.9987 20.8415C18.9249 20.8139 19.8441 21.0108 20.6783 21.4154C21.5125 21.82 22.2371 22.4204 22.7907 23.1657C20.7868 23.0176 18.7723 23.1352 16.7991 23.5155ZM87.3401 23.7655C87.0999 23.5458 86.8093 23.389 86.4941 23.3091C86.1789 23.2291 85.8489 23.2285 85.5334 23.3073C84.9078 23.4644 84.2393 23.607 83.5364 23.7366C73.1466 25.7069 62.4023 24.3559 52.819 19.8741C52.5808 14.8404 51.9577 9.83243 50.9552 4.89435L49.9069 1.43602C49.8107 1.11995 49.6389 0.832249 49.4065 0.597931C49.1742 0.363613 48.8882 0.189773 48.5736 0.0915278C48.2667 -0.0056074 47.9408 -0.0257975 47.6243 0.0327243C47.3078 0.0912461 47.0105 0.226695 46.7583 0.42721C46.245 0.84115 45.7053 1.24067 45.1183 1.65653C39.3131 5.81525 32.6924 8.68808 25.6956 10.0844C18.6989 11.4807 11.486 11.3685 4.53573 9.75527C3.83071 9.58184 3.15531 9.40915 2.53887 9.23675C2.22766 9.14734 1.89935 9.13579 1.58266 9.20311C1.26597 9.27042 0.970558 9.41455 0.722263 9.62288C0.470227 9.8345 0.273575 10.1047 0.14942 10.4099C0.0252654 10.7152 -0.022629 11.0462 0.00990496 11.3743L0.369824 15.0329C4.28244 34.8256 12.5838 49.3304 23.1437 54.8291C25.8046 56.2721 28.774 57.048 31.7987 57.0906C33.7856 57.0835 35.7536 56.7023 37.6003 55.9666C41.102 64.8296 47.5368 70 55.0618 70C55.3958 70 55.7327 69.9901 56.07 69.9696C66.2183 69.356 80.5354 58.3057 87.5006 29.1103L87.9796 25.5397C88.0264 25.2141 87.9924 24.8819 87.8808 24.5725C87.7692 24.2632 87.5833 23.9862 87.3396 23.766L87.3401 23.7655ZM23.808 53.5446C13.6398 48.2499 5.61226 34.1104 1.79439 14.8224L1.44489 11.2348C1.4345 11.1411 1.44748 11.0463 1.48265 10.9589C1.51782 10.8714 1.57409 10.7942 1.64641 10.7339C1.74222 10.6527 1.86343 10.6078 1.98887 10.6071C2.04272 10.6074 2.09627 10.6151 2.14801 10.6301C2.77984 10.8066 3.47094 10.9841 4.20001 11.1632C11.3505 12.8239 18.7713 12.9403 25.97 11.5047C33.1688 10.0691 39.9807 7.11427 45.9539 2.83642C46.5631 2.40409 47.1272 1.98677 47.6586 1.55826C47.726 1.50471 47.8057 1.46889 47.8905 1.45404C47.9752 1.4392 48.0623 1.4458 48.1439 1.47324C48.2342 1.50102 48.3164 1.55061 48.3832 1.61768C48.45 1.68475 48.4994 1.76724 48.527 1.85791L49.5577 5.24592C50.4846 9.83477 51.0834 14.4842 51.3496 19.1587C51.1002 19.0329 50.8486 18.9095 50.6008 18.7793C50.2917 18.6175 49.9825 18.454 49.6768 18.2849C49.2222 18.033 48.7731 17.77 48.3262 17.5032C48.0406 17.3327 47.7529 17.166 47.4704 16.9898C46.9839 16.686 46.5066 16.3674 46.0313 16.0469C45.8006 15.8913 45.5656 15.7428 45.3382 15.5834C44.64 15.0949 43.9542 14.5891 43.2806 14.066C42.7643 13.6776 42.2832 13.2773 41.8259 12.8973L41.6865 12.7814C41.4415 12.572 41.1496 12.4255 40.8357 12.3542C40.5218 12.283 40.1954 12.2894 39.8845 12.3726C39.5669 12.4591 39.275 12.6218 39.034 12.8466C38.793 13.0714 38.6101 13.3517 38.5012 13.6631L37.956 15.2483C36.2507 15.5326 34.697 16.4025 33.5608 17.7091C32.4246 19.0157 31.7765 20.6778 31.7275 22.4109C31.7313 22.5384 31.7686 22.6627 31.8356 22.7712C31.9026 22.8796 31.9971 22.9684 32.1093 23.0285C32.2215 23.0886 32.3476 23.1179 32.4748 23.1134C32.6019 23.1089 32.7256 23.0708 32.8334 23.003C33.9716 22.3326 35.1699 21.7705 36.4126 21.3241C35.3117 26.6465 34.7126 32.061 34.6233 37.496C33.5272 37.8387 32.4144 38.1251 31.2891 38.3539C27.3144 39.1163 23.2423 39.2237 19.2332 38.6718C19.1077 38.6501 18.9787 38.6621 18.8594 38.7066C18.7401 38.7511 18.6346 38.8265 18.5538 38.9251C18.4729 39.0238 18.4195 39.1421 18.399 39.2681C18.3785 39.3941 18.3916 39.5234 18.4371 39.6426C19.3943 41.805 20.9633 43.638 22.9494 44.9144C24.9356 46.1908 27.2517 46.8544 29.6104 46.8229C30.7136 46.8179 31.8138 46.7046 32.895 46.4846C33.6425 46.331 34.3789 46.1277 35.0995 45.876C35.1787 46.4809 35.2569 47.0869 35.355 47.6737C35.4028 47.961 35.4638 48.2345 35.5163 48.5172C35.6239 49.0978 35.7309 49.6783 35.8565 50.2393C35.931 50.5704 36.0178 50.8865 36.0986 51.2112C36.2212 51.704 36.3427 52.1968 36.4799 52.6738C36.5769 53.0101 36.6853 53.3324 36.7888 53.6594C36.8915 53.983 36.9839 54.3196 37.0939 54.6349C34.9347 55.4392 32.6258 55.7585 30.3302 55.5701C28.0345 55.3817 25.8081 54.6903 23.808 53.5446ZM37.3918 16.8843L37.3016 17.1491C37.1015 18.0041 36.9118 18.8483 36.7325 19.6819C35.5705 20.0581 34.4388 20.5225 33.347 21.0708C33.5978 20.0794 34.1032 19.1712 34.8128 18.4367C35.5225 17.7021 36.4117 17.1669 37.3918 16.8843ZM34.9171 44.4256C34.1664 44.6971 33.3962 44.9106 32.6131 45.0643C25.1428 46.5465 21.637 42.398 20.3682 40.2771C24.1072 40.6536 27.8809 40.4838 31.5713 39.773C32.598 39.567 33.6175 39.3155 34.6135 39.0216C34.6242 39.7346 34.6556 40.4418 34.6886 41.1481C34.696 41.3071 34.6968 41.4676 34.7056 41.626C34.7566 42.5689 34.8256 43.504 34.9171 44.4256ZM86.5498 25.3429L86.0835 28.8439C79.3155 57.1983 65.6385 67.9406 55.9823 68.5241C48.4972 68.9844 42.0314 63.8405 38.6798 54.785C37.528 51.5666 36.7653 48.2212 36.4081 44.8206C36.1671 42.5693 36.0472 40.3067 36.0489 38.0425C36.1068 32.1067 36.7792 26.193 38.0551 20.3965C38.2572 19.4387 38.4749 18.4667 38.6858 17.5492L39.8616 14.1437C39.8918 14.0536 39.9438 13.9724 40.0129 13.9073C40.082 13.8422 40.1661 13.7953 40.2576 13.7707C40.3185 13.7575 40.3811 13.7534 40.4432 13.7586C40.4608 13.7606 40.4783 13.7636 40.4957 13.7676C40.5929 13.7828 40.6839 13.8251 40.7583 13.8897L40.905 14.0116C41.379 14.4053 41.8786 14.8207 42.4039 15.2158C43.1311 15.7836 43.8737 16.3312 44.6318 16.8586C46.149 17.9134 47.7231 18.8835 49.3468 19.7644C49.8676 20.0468 50.4012 20.3043 50.9316 20.568C51.2271 20.7151 51.5166 20.8749 51.8149 21.0161L51.8182 21.0179C61.7715 25.7668 72.9731 27.2172 83.8026 25.159C84.5309 25.0249 85.2304 24.876 85.8833 24.7118C85.9688 24.6911 86.0581 24.6918 86.1432 24.7139C86.2284 24.7359 86.3068 24.7787 86.3716 24.8383C86.44 24.8996 86.4923 24.9769 86.5237 25.0634C86.555 25.1499 86.5645 25.2429 86.5512 25.3339L86.5498 25.3429ZM48.0896 34.3262C48.8459 34.5126 49.6214 34.6093 50.4002 34.6142C51.7784 34.6198 53.1304 34.2363 54.3014 33.5075C55.4725 32.7786 56.4154 31.7339 57.0223 30.4929C57.072 30.3756 57.0899 30.2473 57.0743 30.1208C57.0586 29.9944 57.01 29.8744 56.9333 29.7728C56.8567 29.6712 56.7546 29.5918 56.6375 29.5424C56.5204 29.4931 56.3924 29.4756 56.2664 29.4917C53.9492 29.7123 51.6118 29.5596 49.3427 29.0394C47.0883 28.4746 44.9391 27.55 42.9774 26.301C42.8724 26.2291 42.7503 26.1863 42.6235 26.177C42.4967 26.1677 42.3696 26.1922 42.2553 26.248C42.141 26.3038 42.0434 26.3889 41.9724 26.4947C41.9014 26.6005 41.8596 26.7233 41.8512 26.8505C41.8297 28.6384 42.447 30.375 43.5912 31.7461C44.7354 33.1172 46.3311 34.0324 48.0896 34.3262ZM49.0076 30.4465C50.9688 30.8993 52.9802 31.095 54.9916 31.0288C54.2114 31.967 53.1684 32.6487 51.9975 32.9857C50.8267 33.3227 49.582 33.2995 48.4244 32.919C47.2196 32.7346 46.0979 32.1909 45.2053 31.3585C44.3127 30.5261 43.6905 29.4436 43.4196 28.2518C45.1795 29.2234 47.0579 29.9612 49.0076 30.4465ZM67.7097 52.0586C59.6036 52.9276 51.4463 50.9718 44.6085 46.5197C44.5036 46.4473 44.3814 46.404 44.2544 46.3942C44.1274 46.3845 44 46.4086 43.8853 46.4641C43.7706 46.5197 43.6726 46.6047 43.6013 46.7106C43.5299 46.8164 43.4878 46.9393 43.4792 47.0668C43.4728 47.1637 42.9512 56.7511 53.7615 59.3436C55.0141 59.6529 56.2986 59.8133 57.5886 59.8216C59.8526 59.8346 62.0743 59.2069 63.9986 58.0106C65.9229 56.8143 67.4718 55.098 68.4674 53.0586C68.5174 52.9412 68.5355 52.8126 68.5198 52.6859C68.5042 52.5592 68.4553 52.4389 68.3783 52.3373C68.3012 52.2356 68.1987 52.1563 68.0811 52.1073C67.9636 52.0583 67.8352 52.0414 67.709 52.0583L67.7097 52.0586ZM54.0976 57.9362C46.6892 56.1596 45.2368 50.9145 44.9691 48.4539C51.4588 52.343 58.9803 54.1456 66.5219 53.6192C65.1856 55.6932 61.5396 59.7205 54.0976 57.9362ZM78.2829 34.7728C73.6261 35.2627 68.9426 34.1367 65.0133 31.5826C64.9083 31.5102 64.786 31.4669 64.659 31.4572C64.5319 31.4475 64.4046 31.4717 64.2898 31.5274C64.1751 31.583 64.0771 31.6682 64.0059 31.7741C63.9346 31.88 63.8925 32.003 63.884 32.1305C63.8618 33.9178 64.4764 35.6543 65.6172 37.0275C66.758 38.4007 68.35 39.3204 70.1067 39.621H70.1082C70.8628 39.807 71.6367 39.9035 72.4138 39.9083C73.7943 39.9131 75.1482 39.5276 76.3203 38.7961C77.4924 38.0646 78.4353 37.0167 79.0409 35.7724C79.0907 35.655 79.1087 35.5264 79.093 35.3997C79.0772 35.273 79.0284 35.1528 78.9513 35.0512C78.8743 34.9496 78.7718 34.8703 78.6542 34.8213C78.5367 34.7723 78.4083 34.7553 78.2822 34.7722L78.2829 34.7728ZM70.4443 38.2149C69.2413 38.0255 68.1225 37.4785 67.2328 36.6446C66.343 35.8106 65.7232 34.7282 65.4534 33.5371C68.98 35.5163 72.9841 36.4776 77.022 36.3144C76.2449 37.2597 75.2008 37.9471 74.0269 38.2862C72.853 38.6252 71.6043 38.6001 70.4449 38.2142L70.4443 38.2149Z" fill="#CE85FB"/>
</svg>
