<svg width="88" height="72" viewBox="0 0 88 72" fill="none" xmlns="http://www.w3.org/2000/svg">
<path fill-rule="evenodd" clip-rule="evenodd" d="M52.0123 0.241333C62.7554 0.241333 71.5064 8.99264 71.5064 19.7357C71.5064 24.9206 70.0035 31.3502 66.8767 36.7253C65.9802 38.2664 64.9275 39.7293 63.7245 41.0331C63.8213 41.684 63.9585 42.1929 64.096 42.5011C64.2768 42.9062 64.3444 42.9005 64.3738 42.9116C66.1621 43.5895 71.4268 44.034 76.4041 45.5896C81.3814 47.1451 86.5916 50.2822 87.9556 56.6456C88.0291 56.9888 88.0111 57.3452 87.9033 57.6792C87.7955 58.0132 87.6017 58.3128 87.3414 58.5482C67.8597 76.1621 36.1542 76.1621 16.6727 58.5482C16.4537 58.3499 16.2813 58.1054 16.168 57.8325C16.0547 57.5596 16.0033 57.2651 16.0175 56.9699C10.4084 55.247 5.13034 52.3744 0.657701 48.325C0.397556 48.0895 0.203961 47.7897 0.0963531 47.4556C-0.0112543 47.1216 -0.0290855 46.7651 0.0446502 46.422C1.16896 41.189 5.48931 38.5877 9.50978 37.3324C13.5282 36.0778 17.7665 35.6979 19.0522 35.211C19.0532 35.2108 19.0537 35.2104 19.0543 35.2101V35.211C19.0756 35.211 19.0636 35.249 19.1724 35.0363C19.2415 34.9013 19.3233 34.6656 19.3958 34.3477C18.4247 33.2927 17.5771 32.1142 16.8585 30.8789C14.3281 26.5288 13.1229 21.3694 13.1229 17.165C13.1229 8.40328 20.2639 1.25159 29.036 1.25159C32.924 1.25159 36.5069 2.65719 39.2777 4.98688C42.6986 2.03173 47.1523 0.241333 52.0116 0.241333H52.0123ZM52.0123 4.24133C43.4307 4.24133 36.5079 11.1555 36.5079 19.7357C36.5079 24.1131 37.9006 30.0814 40.5964 34.7136C43.292 39.3457 47.023 42.5317 52.0123 42.5317C56.9959 42.5317 60.7245 39.3462 63.4192 34.7139C66.1138 30.0816 67.5064 24.1131 67.5064 19.7357C67.5064 11.1541 60.5938 4.24133 52.0123 4.24133V4.24133ZM29.0367 5.25159C22.4249 5.25159 17.1236 10.563 17.1236 17.165C17.1236 20.5624 18.2186 25.2606 20.3167 28.8675C22.4148 32.4744 25.2477 34.8798 29.0367 34.8798C31.4025 34.8798 33.3389 33.9631 35.0321 32.3703C33.3335 28.0986 32.5079 23.5759 32.5079 19.7357C32.5079 15.2901 34.009 11.1867 36.5286 7.90259C34.4826 6.2442 31.8819 5.25159 29.0367 5.25159V5.25159ZM36.7929 36.1122C34.6484 37.7888 32.0281 38.8798 29.0367 38.8798C26.6308 38.8798 24.4907 38.1867 22.6319 37.0452C22.1744 37.8435 21.4266 38.5869 20.4764 38.9488C20.4758 38.949 20.4751 38.9493 20.4745 38.9495C17.8068 39.9626 14.1059 40.0881 10.7022 41.1508C7.67363 42.0965 5.29323 43.4132 4.27241 46.1707C8.1128 49.4073 12.5708 51.7437 17.318 53.1843C19.5141 49.0845 23.6381 46.8327 27.6136 45.5899C32.5897 44.0343 37.8517 43.5896 39.6405 42.9116C39.6409 42.9115 39.6412 42.9114 39.6415 42.9113C39.8013 42.8503 39.8851 42.8061 40.0712 42.4439C40.2061 42.1812 40.3439 41.7553 40.4493 41.199C39.1807 39.8539 38.0748 38.3327 37.1395 36.7256C37.0216 36.5228 36.9067 36.3179 36.7933 36.1122H36.7929ZM60.3617 43.9409C57.9698 45.5456 55.1804 46.5317 52.0123 46.5317C48.8859 46.5317 46.1278 45.5728 43.7567 44.0072C43.7159 44.0962 43.6738 44.1842 43.6289 44.2715C43.1099 45.2821 42.2185 46.2123 41.0582 46.652C37.8859 47.8543 33.166 48.0448 28.8074 49.4074C24.8095 50.6572 21.5542 52.4998 20.2699 56.3843C37.9098 71.4675 66.1069 71.4673 83.7464 56.3837C82.4659 52.4995 79.211 50.6576 75.2118 49.4077C70.8518 48.0451 66.1293 47.8546 62.9565 46.652C61.7456 46.193 60.9082 45.1718 60.4439 44.1316C60.4157 44.0686 60.3884 44.0049 60.3621 43.941L60.3617 43.9409Z" fill="black"/>
</svg>
