<svg width="88" height="72" viewBox="0 0 88 72" fill="none" xmlns="http://www.w3.org/2000/svg">
<path fill-rule="evenodd" clip-rule="evenodd" d="M52.0123 0C62.7554 0 71.5064 8.7513 71.5064 19.4944C71.5064 24.6793 70.0035 31.1088 66.8767 36.484C65.9802 38.0251 64.9275 39.488 63.7245 40.7918C63.8213 41.4427 63.9585 41.9516 64.096 42.2598C64.2768 42.6649 64.3444 42.6592 64.3738 42.6703C66.1621 43.3482 71.4268 43.7927 76.4041 45.3483C81.3814 46.9038 86.5916 50.0409 87.9556 56.4043C88.0291 56.7474 88.0111 57.1039 87.9033 57.4379C87.7955 57.7718 87.6017 58.0715 87.3414 58.3069C67.8597 75.9208 36.1542 75.9208 16.6727 58.3069C16.4537 58.1085 16.2813 57.8641 16.168 57.5912C16.0547 57.3183 16.0033 57.0237 16.0175 56.7286C10.4084 55.0057 5.13034 52.1331 0.657701 48.0837C0.397556 47.8481 0.203961 47.5483 0.0963531 47.2143C-0.0112543 46.8803 -0.0290855 46.5238 0.0446502 46.1807C1.16896 40.9477 5.48931 38.3464 9.50978 37.0911C13.5282 35.8365 17.7665 35.4566 19.0522 34.9697C19.0532 34.9695 19.0537 34.9691 19.0543 34.9688V34.9697C19.0756 34.9697 19.0636 35.0077 19.1724 34.795C19.2415 34.66 19.3233 34.4243 19.3958 34.1064C18.4247 33.0513 17.5771 31.8729 16.8585 30.6376C14.3281 26.2875 13.1229 21.1281 13.1229 16.9236C13.1229 8.16195 20.2639 1.01025 29.036 1.01025C32.924 1.01025 36.5069 2.41585 39.2777 4.74554C42.6986 1.79039 47.1523 0 52.0116 0H52.0123ZM52.0123 4C43.4307 4 36.5079 10.9142 36.5079 19.4944C36.5079 23.8718 37.9006 29.8401 40.5964 34.4723C43.292 39.1044 47.023 42.2904 52.0123 42.2904C56.9959 42.2904 60.7245 39.1049 63.4192 34.4726C66.1138 29.8403 67.5064 23.8718 67.5064 19.4944C67.5064 10.9128 60.5938 4 52.0123 4V4ZM29.0367 5.01025C22.4249 5.01025 17.1236 10.3216 17.1236 16.9236C17.1236 20.3211 18.2186 25.0193 20.3167 28.6262C22.4148 32.233 25.2477 34.6385 29.0367 34.6385C31.4025 34.6385 33.3389 33.7218 35.0321 32.129C33.3335 27.8572 32.5079 23.3346 32.5079 19.4944C32.5079 15.0488 34.009 10.9454 36.5286 7.66125C34.4826 6.00286 31.8819 5.01025 29.0367 5.01025V5.01025ZM36.7929 35.8709C34.6484 37.5475 32.0281 38.6385 29.0367 38.6385C26.6308 38.6385 24.4907 37.9454 22.6319 36.8039C22.1744 37.6022 21.4266 38.3456 20.4764 38.7075C20.4758 38.7077 20.4751 38.708 20.4745 38.7082C17.8068 39.7213 14.1059 39.8468 10.7022 40.9095C7.67363 41.8552 5.29323 43.1719 4.27241 45.9294C8.1128 49.166 12.5708 51.5024 17.318 52.943C19.5141 48.8432 23.6381 46.5914 27.6136 45.3486C32.5897 43.793 37.8517 43.3483 39.6405 42.6703C39.6409 42.6702 39.6412 42.6701 39.6415 42.67C39.8013 42.609 39.8851 42.5648 40.0712 42.2026C40.2061 41.9399 40.3439 41.514 40.4493 40.9577C39.1807 39.6126 38.0748 38.0914 37.1395 36.4843C37.0216 36.2815 36.9067 36.0766 36.7933 35.8709H36.7929ZM60.3617 43.6996C57.9698 45.3043 55.1804 46.2904 52.0123 46.2904C48.8859 46.2904 46.1278 45.3315 43.7567 43.7659C43.7159 43.8549 43.6738 43.9429 43.6289 44.0302C43.1099 45.0408 42.2185 45.971 41.0582 46.4107C37.8859 47.613 33.166 47.8035 28.8074 49.1661C24.8095 50.4159 21.5542 52.2585 20.2699 56.143C37.9098 71.2262 66.1069 71.226 83.7464 56.1424C82.4659 52.2582 79.211 50.4163 75.2118 49.1664C70.8518 47.8038 66.1293 47.6133 62.9565 46.4107C61.7456 45.9517 60.9082 44.9305 60.4439 43.8903C60.4157 43.8273 60.3884 43.7636 60.3621 43.6997L60.3617 43.6996Z" fill="#FFFFFF"/>
</svg>
